<svg version="1.1" xmlns="http://www.w3.org/2000/svg" width="159.256" height="38" xmlns:xlink="http://www.w3.org/1999/xlink" viewBox="0 0 159.256 38">
  <path d="M0 0h159.256v38H0z" fill="#FCFCFC"/>
  <path d="m7.574 0.164 0.639 -0.003L8.906 0.16l0.736 -0.003Q10.639 0.154 11.636 0.153l1.248 -0.002q1.955 -0.004 3.911 -0.005 2.251 -0.001 4.502 -0.01 1.744 -0.006 3.488 -0.006 1.04 0 2.079 -0.005c0.774 -0.004 1.548 -0.003 2.322 -0.002l0.688 -0.005c2.309 0.011 4.106 0.557 5.823 2.132 1.678 1.769 2.078 3.555 2.06 5.936 -0.067 1.576 -0.487 2.606 -1.476 3.844l-0.411 0.579c-0.808 1.125 -1.685 2.168 -2.624 3.184 -0.357 0.388 -0.696 0.786 -1.035 1.19 -3.936 4.484 -9.514 7.679 -14.742 10.402 -2.377 1.242 -4.574 2.514 -6.639 4.232a52.131 52.131 0 0 1 -0.911 0.736c-1.576 1.257 -3.199 2.586 -4.489 4.144C4.965 37.045 4.965 37.045 4.392 37.236c-2.106 -0.975 -3.147 -2.421 -3.998 -4.512 -0.343 -1.088 -0.334 -2.142 -0.323 -3.275q-0.002 -0.382 -0.004 -0.765c-0.003 -0.685 -0.001 -1.37 0.003 -2.056 0.003 -0.721 0.002 -1.442 0.001 -2.163 -0.001 -1.21 0.002 -2.42 0.008 -3.63 0.006 -1.395 0.006 -2.789 0.003 -4.183 -0.003 -1.348 -0.002 -2.695 0.002 -4.043q0.002 -0.856 0 -1.712c-0.002 -0.798 0.003 -1.596 0.008 -2.395l-0.004 -0.71C0.11 5.558 0.792 3.863 2.291 2.196 3.75 0.779 5.575 0.17 7.574 0.164" fill="#4E60F5"/>
  <path d="M37.427 9.739h0.191q0.027 4.39 0.04 8.78 0.005 2.039 0.018 4.077 0.011 1.778 0.014 3.556 0.002 0.94 0.009 1.881c0.006 0.702 0.006 1.404 0.006 2.106l0.008 0.621c-0.012 2.142 -0.624 3.758 -2.112 5.3 -1.25 1.11 -2.75 1.797 -4.435 1.798l-0.655 0.003 -0.71 -0.002 -0.754 0.002c-0.681 0.002 -1.361 0.001 -2.042 0 -0.714 -0.001 -1.428 0 -2.142 0q-1.799 0.001 -3.599 -0.002 -2.075 -0.003 -4.151 0.001 -1.786 0.002 -3.572 0.001 -1.065 -0.001 -2.13 0.001c-0.792 0.001 -1.585 -0.001 -2.377 -0.003l-0.707 0.002C7.087 37.855 5.969 37.782 4.774 37.427l-0.191 -0.382 0.416 -0.415a116.482 116.482 0 0 0 1.017 -1.032A37.045 37.045 0 0 1 9.739 32.271l0.369 -0.291c0.409 -0.322 0.819 -0.642 1.23 -0.962l0.381 -0.3c1.922 -1.479 4.031 -2.632 6.176 -3.747C22.551 24.544 26.93 21.776 30.744 18.141a86.693 86.693 0 0 1 0.8 -0.68c1.45 -1.272 2.605 -2.743 3.735 -4.296l0.314 -0.43C36.281 11.773 36.875 10.784 37.427 9.739" fill="#FD5827"/>
  <path d="M37.427 9.739h0.191q0.02 4.4 0.03 8.799 0.004 2.043 0.014 4.086 0.009 1.782 0.011 3.563 0.001 0.942 0.007 1.885c0.004 0.703 0.005 1.406 0.005 2.109l0.006 0.625c-0.005 1.228 -0.171 2.238 -0.644 3.375l-0.382 -0.191v-1.337h0.382c0.043 -0.274 0.082 -0.549 0.119 -0.823l0.067 -0.463c0.045 -0.487 0.045 -0.487 -0.378 -1.005l0.382 -0.573c-0.002 -0.376 -0.002 -0.376 -0.083 -0.764 -0.103 -0.575 -0.11 -0.757 0.083 -1.337 0.016 -0.466 0.022 -0.927 0.019 -1.393l-0.001 -0.409a407.115 407.115 0 0 0 -0.006 -1.29q-0.002 -0.437 -0.003 -0.875 -0.003 -1.072 -0.009 -2.144 -0.362 0.358 -0.724 0.717l-0.407 0.403a20.814 20.814 0 0 0 -1.042 1.16c-1.092 1.262 -2.136 2.37 -3.747 2.876a33.226 33.226 0 0 0 -1.205 0.692c-2.263 1.317 -4.535 2.355 -7.041 3.127l-0.567 0.175c-0.901 0.266 -1.693 0.474 -2.643 0.398l-0.191 0.382h-0.955l-0.191 0.382 -1.146 0.191 -0.191 0.382 -0.382 -0.191 -0.191 0.191c-0.464 0.413 -0.726 0.567 -1.349 0.668 -0.634 0.108 -0.709 0.226 -1.134 0.668q-0.572 0.195 -1.146 0.382l-0.358 0.286c-0.603 0.425 -1.215 0.513 -1.933 0.668v0.382l-0.764 0.191v0.382l-1.007 0.373c-0.423 0.216 -0.423 0.216 -0.712 0.964H6.111c0.143 -1.098 0.143 -1.098 0.573 -1.528l0.466 -0.477C7.638 34.945 7.638 34.945 8.211 34.563l0.382 0.191 0.573 -1.337 -0.955 0.764 -0.382 -0.191c1.149 -1.1 2.335 -2.121 3.604 -3.079l0.353 -0.269c1.916 -1.427 3.995 -2.571 6.109 -3.67C22.552 24.544 26.93 21.776 30.744 18.141a86.693 86.693 0 0 1 0.8 -0.68c1.45 -1.272 2.605 -2.743 3.735 -4.296l0.314 -0.43C36.281 11.773 36.875 10.784 37.427 9.739" fill="#FE8A30"/>
  <path d="M94.898 14.483c0.467 0.265 0.82 0.561 1.152 0.985l0.191 -1.146h2.673c0.017 1.781 0.031 3.562 0.04 5.344q0.006 1.241 0.018 2.482c0.008 0.8 0.013 1.6 0.015 2.4q0.002 0.455 0.008 0.911c0.031 2.338 -0.141 4.355 -1.842 6.117 -1.507 1.398 -3.243 1.769 -5.256 1.719 -1.623 -0.178 -3.17 -0.839 -4.284 -2.049 -0.668 -0.967 -0.952 -1.614 -0.919 -2.793 0.907 -0.09 1.769 -0.135 2.673 0 0.42 0.349 0.628 0.68 0.902 1.15 0.401 0.622 0.887 0.76 1.581 0.951 1.212 0.135 2.044 -0.074 3.055 -0.764 0.992 -0.992 1.166 -1.953 1.17 -3.318A88.985 88.985 0 0 0 96.05 25.397l-0.294 0.279c-0.131 0.121 -0.263 0.241 -0.398 0.366l-0.39 0.362c-1.294 0.957 -2.921 0.885 -4.456 0.712 -1.651 -0.528 -2.863 -1.386 -3.668 -2.923 -1.015 -2.188 -1.022 -4.556 -0.225 -6.827C87.404 15.698 88.641 14.799 90.321 14.131c1.51 -0.504 3.147 -0.298 4.576 0.352" fill="#161616"/>
  <path d="M17.771 4.571 18.332 4.583c0.408 0.891 0.796 1.786 1.146 2.702l0.191 0.498a124.12 124.12 0 0 1 0.382 1.014l0.191 0.493 0.167 0.443c0.335 0.606 0.763 0.896 1.419 1.094 1.241 0.207 2.468 0.31 3.724 0.386 0.699 0.062 1.288 0.201 1.947 0.436 0.084 0.406 0.084 0.406 0 0.955 -0.903 0.924 -2 1.633 -3.06 2.367 -0.934 0.642 -0.934 0.642 -1.714 1.452 -0.229 1.304 0.038 2.648 0.295 3.931 0.254 1.343 0.254 1.343 -0.139 1.965 -0.482 0.299 -0.736 0.279 -1.301 0.215a14.322 14.322 0 0 1 -1.277 -0.752q-0.329 -0.212 -0.659 -0.423L19.095 21.005c-0.575 -0.287 -0.88 -0.272 -1.528 -0.191 -1.406 0.594 -2.51 1.642 -3.637 2.641 -1.812 1.597 -3.729 3.036 -5.791 4.293l-0.369 0.227c-0.292 0.172 -0.593 0.327 -0.897 0.478l-0.382 -0.191 0.344 -0.254c3.633 -2.78 5.579 -6.331 6.239 -10.87 -0.197 -1.146 -1.084 -1.724 -1.974 -2.367a133.286 133.286 0 0 0 -1.041 -0.712l-0.539 -0.371A238.12 238.12 0 0 0 8.211 12.794l0.191 -1.146 0.414 -0.044c0.626 -0.067 1.252 -0.137 1.877 -0.207l0.651 -0.068C13.089 11.136 13.089 11.136 14.703 10.502c0.321 -0.495 0.509 -0.857 0.704 -1.396l0.162 -0.407A48.693 48.693 0 0 0 16.04 7.447l0.147 -0.402a86.884 86.884 0 0 0 0.627 -1.776c0.249 -0.684 0.249 -0.684 0.956 -0.699" fill="#F9F9FB"/>
  <path d="M130.804 14.703c1.604 1.132 2.694 2.57 3.177 4.494 0.319 2.168 -0.107 4.086 -1.282 5.933C131.596 26.504 130.058 27.419 128.321 27.688c-1.817 0.193 -3.416 -0.054 -4.914 -1.143 -1.47 -1.259 -2.546 -2.603 -2.767 -4.584 -0.127 -2.287 0.143 -4.12 1.615 -5.956C122.864 15.378 123.55 14.935 124.311 14.513l0.342 -0.198c1.797 -0.853 4.491 -0.649 6.15 0.389" fill="#161516"/>
  <path d="M59.795 14.034c0.819 0.326 1.451 0.825 2.074 1.433 0.167 0.442 0.167 0.442 0.191 0.764l0.418 -0.43c1.202 -1.175 2.147 -1.89 3.867 -1.933 1.593 0.042 2.584 0.448 3.735 1.599 0.603 0.981 0.979 1.9 0.977 3.059v0.591l-0.003 0.636 -0.001 0.653c-0.001 0.689 -0.003 1.378 -0.006 2.066q-0.002 0.7 -0.003 1.4 -0.003 1.717 -0.009 3.434h-2.864l-0.008 -0.788c-0.011 -0.967 -0.026 -1.935 -0.042 -2.902a262.562 262.562 0 0 1 -0.016 -1.255c-0.006 -0.602 -0.016 -1.204 -0.027 -1.806l-0.004 -0.564c-0.022 -1.011 -0.097 -1.742 -0.667 -2.615 -0.693 -0.611 -1.358 -0.674 -2.25 -0.639 -0.687 0.107 -1.063 0.36 -1.569 0.83 -0.601 1.107 -0.662 2.06 -0.671 3.305l-0.01 0.559a263.899 263.899 0 0 0 -0.023 1.756q-0.01 0.598 -0.02 1.196c-0.016 0.974 -0.029 1.948 -0.04 2.921h-2.673l-0.008 -0.747c-0.011 -0.92 -0.026 -1.839 -0.042 -2.759q-0.01 -0.596 -0.016 -1.191c-0.006 -0.573 -0.017 -1.145 -0.027 -1.718l-0.004 -0.533c-0.027 -1.228 -0.133 -2.464 -1.061 -3.364 -1.007 -0.343 -2.013 -0.296 -3.043 -0.06 -0.503 0.33 -0.594 0.638 -0.764 1.205l-0.191 0.382a14.131 14.131 0 0 0 -0.039 0.85l-0.011 0.533 -0.01 0.576 -0.012 0.589q-0.019 0.934 -0.035 1.868l-0.025 1.264q-0.031 1.552 -0.059 3.104h-2.864V14.322h2.864v1.146l0.191 -0.191c0.281 -0.193 0.564 -0.384 0.847 -0.573l0.465 -0.31c1.028 -0.664 2.307 -0.633 3.488 -0.359" fill="#161516"/>
  <path d="M156.01 14.513c1.369 0.775 1.936 1.61 2.363 3.087 0.201 0.911 0.189 1.804 0.175 2.733l-0.002 0.608c-0.003 0.634 -0.01 1.268 -0.018 1.902a1051.395 1051.395 0 0 0 -0.008 1.298c-0.006 1.055 -0.016 2.11 -0.028 3.165h-2.864l-0.191 -1.337 -0.37 0.43c-0.897 0.884 -1.993 1.327 -3.246 1.384 -1.46 -0.073 -2.647 -0.523 -3.64 -1.611 -0.766 -0.98 -1.052 -1.758 -1.012 -3.003 0.123 -0.956 0.469 -1.651 1.181 -2.303 2.218 -1.614 4.662 -1.458 7.279 -1.389 -0.166 -1.28 -0.166 -1.28 -0.752 -2.399C153.96 16.44 152.882 16.5 151.809 16.613c-0.747 0.38 -1.065 0.643 -1.528 1.337 -0.622 0.056 -0.622 0.056 -1.361 0.036l-0.741 -0.016L147.608 17.95c0.146 -1.168 0.514 -1.842 1.337 -2.673 2.099 -1.488 4.701 -1.884 7.065 -0.764" fill="#171617"/>
  <path d="M82.351 14.788c1.086 0.864 1.751 1.911 1.927 3.31 0.021 0.591 0.019 1.177 0.008 1.768l-0.003 0.648c-0.004 0.677 -0.014 1.354 -0.023 2.031q-0.006 0.692 -0.011 1.384c-0.008 1.126 -0.022 2.252 -0.037 3.378h-2.673l-0.382 -1.146 -0.477 0.442c-1.082 0.89 -2.218 1.204 -3.612 1.151 -1.541 -0.203 -2.531 -0.809 -3.495 -2.012 -0.703 -0.994 -0.53 -2.23 -0.435 -3.4 0.31 -0.68 0.31 -0.68 0.764 -1.146l0.466 -0.501c2.008 -1.532 4.606 -1.303 6.982 -1.217a52.894 52.894 0 0 0 -0.067 -0.823l-0.038 -0.463c-0.135 -0.677 -0.507 -0.98 -1.041 -1.387 -1.041 -0.347 -2.23 -0.376 -3.246 0.048 -0.398 0.311 -0.398 0.311 -0.606 0.734C76 17.95 76 17.95 75.359 18.024l-0.732 -0.027 -0.736 -0.021L73.327 17.95c0.317 -1.333 0.795 -2.232 1.91 -3.055 2.176 -1.207 4.94 -1.495 7.115 -0.107" fill="#171617"/>
  <path d="M116.839 14.725C117.926 15.516 118.507 16.647 118.774 17.95c0.156 1.6 0.09 3.216 0.06 4.822q-0.007 0.661 -0.013 1.321c-0.011 1.071 -0.027 2.143 -0.047 3.214h-2.864l-0.008 -0.771c-0.011 -0.946 -0.026 -1.892 -0.042 -2.838q-0.01 -0.614 -0.016 -1.227c-0.006 -0.589 -0.016 -1.177 -0.027 -1.766l-0.004 -0.551c-0.022 -1.015 -0.136 -1.692 -0.667 -2.586v-0.382c-1.012 -0.426 -1.973 -0.523 -3.055 -0.382 -0.966 0.456 -1.334 0.927 -1.719 1.91 -0.087 0.664 -0.093 1.323 -0.098 1.992l-0.01 0.573a276.311 276.311 0 0 0 -0.023 1.804q-0.01 0.613 -0.02 1.226 -0.024 1.499 -0.04 2.999h-2.864V14.322h2.864l0.191 1.337 0.394 -0.537c1.532 -1.8 4.203 -1.511 6.073 -0.396" fill="#191919"/>
  <path d="M134.05 14.322h3.246l0.516 1.472 0.848 2.417c0.618 1.763 1.237 3.525 1.882 5.278 0.321 -0.481 0.496 -0.831 0.685 -1.365l0.172 -0.481 0.182 -0.517 0.19 -0.533q0.299 -0.843 0.597 -1.687 0.202 -0.568 0.404 -1.137c0.615 -1.719 0.615 -1.719 1.207 -3.446h3.055c-0.154 0.772 -0.341 1.415 -0.613 2.147l-0.264 0.716 -0.286 0.768 -0.293 0.791q-0.306 0.826 -0.614 1.653 -0.395 1.061 -0.788 2.122a1381.364 1381.364 0 0 1 -0.605 1.631q-0.146 0.391 -0.291 0.783a89517898.799 89517898.799 0 0 0 -0.639 1.718C142.452 27.116 142.452 27.116 142.261 27.306c-0.547 0.014 -1.088 0.018 -1.635 0.012l-0.467 -0.003q-0.572 -0.004 -1.145 -0.009 -0.739 -1.899 -1.477 -3.798l-0.5 -1.287C136.016 19.597 135.015 16.967 134.05 14.322" fill="#161616"/>
  <path d="M0.191 6.683h0.191v5.347l0.573 0.191 -0.189 0.4C0.546 13.253 0.529 13.749 0.537 14.417l0.004 0.639c0.029 0.54 0.115 1.029 0.223 1.557l-0.107 0.394c-0.13 0.382 -0.13 0.382 0.119 0.728C0.955 18.141 0.955 18.141 0.788 18.761L0.573 19.286l0.382 0.382 -0.382 0.191v3.246l0.382 0.191 -0.382 0.191 0.095 0.394C0.764 24.442 0.764 24.442 0.752 25.134 0.706 25.804 0.706 25.804 1.146 26.352l-0.191 0.573v0.573l0.573 0.382 -0.191 0.573 -0.573 0.191v-0.382H0.382l0.203 0.477c0.222 0.828 0.133 1.358 -0.012 2.196h0.382v0.382l0.382 0.191 0.191 0.382 0.334 -0.203c0.498 -0.208 0.696 -0.166 1.193 0.012 -1.098 0.764 -1.098 0.764 -1.528 0.764 0.097 0.414 0.191 0.764 0.382 1.146l-0.382 0.382 0.573 0.382 0.764 -0.382 0.191 0.382 -0.382 0.191v0.382l0.382 0.382 0.084 0.394L3.246 36.09l0.573 0.191c0.426 -0.2 0.426 -0.2 0.764 -0.573 0.154 -0.496 0.154 -0.496 0.191 -0.955l0.549 -0.179c0.57 -0.179 0.57 -0.179 0.979 -0.394l-0.191 -0.573h0.573l0.191 -0.573h1.719l0.191 -0.764 0.573 -0.191c0.14 -0.385 0.14 -0.385 0.191 -0.764l-0.382 -0.191 0.764 -1.146 0.955 0.191 0.191 -0.382 0.764 0.191 0.191 -0.382a14.894 14.894 0 0 1 0.955 -0.382v-0.382l0.358 -0.048c0.434 -0.106 0.434 -0.106 0.633 -0.501 0.124 -0.323 0.237 -0.65 0.346 -0.979l-0.382 -0.573v-0.573h0.382l0.191 -0.764 0.382 0.191v-0.382h0.955l0.382 -0.764 -0.346 0.131L15.467 24.633c-0.31 -0.274 -0.31 -0.274 -0.573 -0.573h-0.382v0.764h-0.382l-0.382 -0.573 -0.382 0.764h-0.382v0.382c-0.573 0.382 -0.573 0.382 -1.337 0.382l-0.191 0.573a76.191 76.191 0 0 1 -1.146 0.573 60.724 60.724 0 0 0 -1.146 0.955c-0.722 0.53 -1.23 0.794 -2.1 0.955a19.095 19.095 0 0 0 -0.764 0.573h-0.382v-0.382h-0.382c0.076 -0.311 0.156 -0.621 0.239 -0.931l0.134 -0.524C6.111 27.116 6.111 27.116 6.478 26.863 6.874 26.734 6.874 26.734 7.447 26.734a47.739 47.739 0 0 0 0.764 -1.146h0.382v-0.573l0.764 0.382 0.191 -1.337h0.764v-0.764l0.573 -0.382c0.139 -0.489 0.139 -0.489 0.191 -0.955h0.573l0.191 -0.955c0.22 0.535 0.191 0.763 0.011 1.323C10.697 24.737 8.946 26.593 6.874 28.261c2.608 -1.506 4.902 -3.203 7.174 -5.174 2.703 -2.339 2.703 -2.339 4.14 -2.56 0.599 0.109 0.985 0.319 1.48 0.668 -0.586 0.293 -1.088 0.105 -1.719 0l0.024 0.454C17.95 22.151 17.95 22.151 17.568 22.533c-0.123 0.395 -0.123 0.395 -0.191 0.764 0.377 -0.066 0.377 -0.066 0.764 -0.191l0.191 -0.382c0.215 1.265 0.215 1.265 0 1.91h-0.382c0.352 0.392 0.352 0.392 0.764 0.573l0.573 0.382 0.382 0.191c-0.191 0.573 -0.191 0.573 -0.582 0.827l-0.514 0.256 -0.566 0.287 -0.605 0.301C14.906 28.723 12.694 30.146 10.502 31.889l-0.544 0.43c-1.586 1.276 -3.226 2.603 -4.528 4.176C4.965 37.045 4.965 37.045 4.392 37.236c-2.108 -0.976 -3.147 -2.423 -3.999 -4.515C0.054 31.645 0.066 30.609 0.082 29.489l0 -0.752c0 -0.673 0.005 -1.345 0.012 -2.017 0.006 -0.706 0.006 -1.411 0.008 -2.117 0.003 -1.333 0.011 -2.666 0.02 -3.999 0.011 -1.519 0.016 -3.038 0.021 -4.557C0.153 12.926 0.17 9.805 0.191 6.683m17.759 18.523 0.191 0.573v-0.573zm-14.894 5.347h0.382l-0.191 0.955 -0.382 -0.573z" fill="#565CF0"/>
  <path d="M28.087 0.173c0.599 -0.013 1.198 -0.022 1.798 -0.029l0.491 -0.012C32.457 0.119 34.172 0.851 35.697 2.249c1.678 1.769 2.078 3.555 2.06 5.936 -0.067 1.576 -0.487 2.606 -1.476 3.844l-0.411 0.579c-0.808 1.125 -1.685 2.168 -2.624 3.184 -0.357 0.388 -0.696 0.786 -1.035 1.19C30.191 19.285 27.21 22.119 24.251 23.105c-0.764 0 -0.764 0 -1.146 -0.191l-0.191 -0.573 0.191 -0.191c0.044 -0.257 0.079 -0.516 0.107 -0.776L23.296 20.623l0.382 0.191c0.158 0.474 0.191 0.831 0.191 1.337l0.382 -0.191 0.191 0.573 0.382 -0.573 -0.573 -0.191v-0.764l0.573 -0.191 0.382 0.382 0.191 -0.382h0.764l-0.382 -0.955 0.573 -0.573 0.191 0.573 0.382 0.191v0.382h0.573l-0.012 -0.561C27.497 19.286 27.497 19.286 27.688 19.095c0.126 -0.378 0.126 -0.378 0.191 -0.764l-0.191 -0.191 -0.084 -0.382 -0.107 -0.382 -0.382 -0.191 -0.191 0.764h-0.382l-0.382 -0.382h-0.382l-0.191 -0.764 0.549 -0.263c0.597 -0.272 0.597 -0.272 0.979 -0.692h0.573l0.191 0.382c0.572 -0.137 0.572 -0.137 0.847 -0.501L29.025 15.467c0.408 0.048 0.661 0.088 0.955 0.382l0.322 -0.167C30.744 15.467 30.744 15.467 31.257 15.288c0.146 -0.067 0.292 -0.134 0.442 -0.203l0.191 -0.573 0.573 0.191 0.382 -1.528 -0.191 0.191h-0.573v-0.382h-0.573l0.191 -1.337h0.764l-0.382 -0.382h-0.382l-0.191 -0.573c0.445 -0.23 0.859 -0.413 1.337 -0.573l-0.382 -0.573 0.382 -0.764 0.955 0.191a16.231 16.231 0 0 1 0.382 1.337l0.764 -0.764 0.382 0.191v-0.382l-0.382 -0.191 0.382 -0.191 0.191 -0.573 0.465 -0.358c0.523 -0.434 0.676 -0.721 0.871 -1.361h0.382l-0.191 -0.573c-0.008 -0.445 -0.008 -0.891 0 -1.337l-0.37 -0.131C36.281 4.392 36.281 4.392 36.138 3.891L36.09 3.437l-0.573 0.191v-0.573h-0.382l-0.155 -0.37C34.775 2.228 34.775 2.228 34.181 2.1l-0.382 0.573 -0.191 -0.573 0.191 -0.382 -0.191 -0.382c-0.659 -0.22 -1.213 -0.382 -1.91 -0.382l-0.525 -0.095c-0.668 -0.103 -1.283 -0.134 -1.957 -0.095l-0.382 0.382V0.764a88.985 88.985 0 0 0 -0.776 -0.012l-0.436 -0.007c-0.521 0.008 -0.521 0.008 -1.087 0.121 -1.041 0.122 -2.051 0.052 -3.095 -0.007q-0.616 -0.034 -1.232 -0.066l-0.547 -0.031c-0.492 -0.023 -0.492 -0.023 -1.037 0.192 -0.578 -0.09 -0.832 -0.237 -1.337 -0.573 2.515 -0.066 5.03 -0.127 7.546 -0.181q0.627 -0.014 1.255 -0.029" fill="#26ACE6"/>
  <path d="M46.02 9.166h3.055v18.141h-3.055z" fill="#171617"/>
  <path d="M129.311 16.946c1.036 0.716 1.584 1.718 1.875 2.914 0.141 1.479 -0.167 2.797 -1.086 3.986 -0.843 0.895 -1.813 1.184 -3.02 1.265 -1.203 -0.044 -2.015 -0.678 -2.84 -1.504 -0.819 -1.324 -0.882 -2.859 -0.617 -4.366 0.386 -1.282 1.373 -2.062 2.502 -2.712 1.213 -0.273 2.109 -0.187 3.185 0.416" fill="#F9F9FA"/>
  <path d="M93.568 16.422c1.091 0.391 1.815 1.052 2.41 2.043 0.305 0.731 0.34 1.273 0.335 2.062l0.004 0.734c-0.115 1.054 -0.48 1.796 -1.305 2.464 -0.11 0.092 -0.22 0.183 -0.333 0.277 -0.93 0.664 -1.704 0.778 -2.829 0.63 -1.127 -0.354 -1.825 -0.943 -2.482 -1.91 -0.619 -1.296 -0.551 -2.72 -0.095 -4.058 0.812 -1.856 2.407 -2.404 4.296 -2.244" fill="#FAFAFA"/>
  <path d="M101.588 14.322h2.864v12.985h-2.864z" fill="#181818"/>
  <path d="m16.422 3.628 0.442 0.095c0.52 0.113 0.52 0.113 1.086 0.095l0.191 0.382h0.382v0.382l0.764 0.382h-0.382v0.382h0.573l-0.024 0.454c-0.031 0.532 -0.031 0.532 0.406 0.883v0.573l0.573 0.191 -0.036 0.644L20.432 8.784l0.573 0.382 -0.191 0.573h0.573v0.382h0.573v0.382c0.761 0.139 0.761 0.139 1.528 0.191 0.388 -0.243 0.388 -0.243 0.573 -0.573v0.573l1.719 -0.573v0.573l0.537 0.084C26.925 10.884 26.925 10.884 27.497 11.075v-0.573h0.573l-0.012 0.621c0.009 0.563 0.054 0.952 0.203 1.48l-0.271 0.219q-0.611 0.493 -1.221 0.986l-0.427 0.344 -0.412 0.334 -0.379 0.306c-0.324 0.275 -0.622 0.561 -0.918 0.866l-0.382 0.382h-0.382c-0.529 0.386 -0.529 0.386 -0.955 0.955 -0.08 0.708 -0.08 0.708 0 1.337l0.382 0.191v4.201l0.382 0.191v0.382l1.146 -0.764 0.382 0.191a35.518 35.518 0 0 1 -3.676 2.506l-0.382 0.24c-0.716 0.414 -0.987 0.518 -1.834 0.379C18.714 25.588 18.714 25.588 18.332 25.206l-0.382 -0.191v-0.382h0.382v-1.528l-0.955 0.191c0.191 -1.419 0.191 -1.419 0.382 -2.1 0.874 -0.265 1.444 -0.125 2.291 0.191q0.399 0.243 0.788 0.501c0.587 0.386 0.974 0.602 1.695 0.454 0.43 -0.34 0.43 -0.34 0.384 -0.79l-0.062 -0.487 -0.063 -0.523c-0.053 -0.379 -0.113 -0.758 -0.176 -1.136L22.533 18.714l-0.079 -0.531c-0.077 -0.869 -0.111 -1.496 0.411 -2.223 0.711 -0.657 1.491 -1.198 2.286 -1.746l0.363 -0.253q0.353 -0.243 0.714 -0.475c0.793 -0.532 1.01 -0.937 1.269 -1.838l-0.47 -0.044c-0.707 -0.067 -1.413 -0.137 -2.12 -0.207l-0.739 -0.068c-2.88 -0.292 -2.88 -0.292 -3.764 -1.288 -0.551 -0.951 -0.89 -2.018 -1.262 -3.048l-0.238 -0.647Q18.616 5.561 18.332 4.774h-1.146l-0.195 0.578 -0.258 0.747 -0.128 0.382C16.274 7.425 16.274 7.425 15.849 7.638l0.179 -0.68C16.211 6.232 16.329 5.516 16.422 4.774l-0.573 -0.191zm1.528 21.578 0.382 0.191 -0.191 0.382z" fill="#1F87FD"/>
  <path d="M0.191 6.683h0.191v5.347l0.573 0.191 -0.189 0.4C0.546 13.253 0.529 13.749 0.537 14.417l0.004 0.639c0.029 0.54 0.115 1.029 0.223 1.557l-0.107 0.394c-0.13 0.382 -0.13 0.382 0.119 0.728C0.955 18.141 0.955 18.141 0.788 18.761L0.573 19.286l0.382 0.382 -0.382 0.191v3.246l0.382 0.191 -0.382 0.191 0.095 0.394C0.764 24.442 0.764 24.442 0.752 25.134 0.706 25.804 0.706 25.804 1.146 26.352l-0.191 0.573v0.573l0.573 0.382 -0.191 0.573 -0.573 0.191v-0.382H0.382l0.203 0.477c0.222 0.828 0.133 1.358 -0.012 2.196h0.382v0.382l0.382 0.191 0.191 0.382 0.334 -0.203c0.498 -0.208 0.696 -0.166 1.193 0.012 -1.098 0.764 -1.098 0.764 -1.528 0.764 0.097 0.414 0.191 0.764 0.382 1.146l-0.382 0.382 0.573 0.382 0.764 -0.382 0.191 0.382 -0.382 0.191v0.382l0.382 0.382 0.084 0.394L3.246 36.09l0.573 0.191c0.426 -0.2 0.426 -0.2 0.764 -0.573 0.154 -0.496 0.154 -0.496 0.191 -0.955l0.549 -0.179c0.57 -0.179 0.57 -0.179 0.979 -0.394l-0.191 -0.573h0.573l0.191 -0.573h1.719l0.191 -0.764 0.573 -0.191c0.14 -0.385 0.14 -0.385 0.191 -0.764l-0.382 -0.191 0.764 -1.146 0.955 0.191 0.191 -0.382 0.764 0.191 0.191 -0.382a14.894 14.894 0 0 1 0.955 -0.382v-0.382h0.955c-0.431 0.865 -1.003 1.316 -1.79 1.838C10.758 31.63 9.48 32.686 8.211 33.799l-0.533 0.461c-0.886 0.779 -1.69 1.574 -2.432 2.493C4.965 37.045 4.965 37.045 4.392 37.236c-2.108 -0.976 -3.147 -2.423 -3.999 -4.515C0.054 31.645 0.066 30.609 0.082 29.489l0 -0.752c0 -0.673 0.005 -1.345 0.012 -2.017 0.006 -0.706 0.006 -1.411 0.008 -2.117 0.003 -1.333 0.011 -2.666 0.02 -3.999 0.011 -1.519 0.016 -3.038 0.021 -4.557C0.153 12.926 0.17 9.805 0.191 6.683m2.864 23.869h0.382l-0.191 0.955 -0.382 -0.573z" fill="#7020CE"/>
  <path d="M28.087 0.173c0.599 -0.013 1.198 -0.022 1.798 -0.029l0.491 -0.012C32.457 0.119 34.172 0.851 35.697 2.249c1.553 1.637 2.005 3.218 2.028 5.436l0.009 0.548c-0.017 1.171 -0.21 1.877 -0.88 2.841l-0.191 -0.764 -0.573 0.191c-0.418 -0.084 -0.418 -0.084 -0.764 -0.191v1.146l-1.146 -0.191 -0.191 0.382h-0.382l-0.251 0.43c-0.354 0.577 -0.734 0.893 -1.277 1.289v-0.382h-0.573l0.191 -1.337h0.764l-0.382 -0.382h-0.382l-0.191 -0.573c0.445 -0.23 0.859 -0.413 1.337 -0.573l-0.382 -0.573 0.382 -0.764 0.955 0.191a16.231 16.231 0 0 1 0.382 1.337l0.764 -0.764 0.382 0.191v-0.382l-0.382 -0.191 0.382 -0.191 0.191 -0.573 0.465 -0.358c0.523 -0.434 0.676 -0.721 0.871 -1.361h0.382l-0.191 -0.573c-0.008 -0.445 -0.008 -0.891 0 -1.337l-0.37 -0.131C36.281 4.392 36.281 4.392 36.138 3.891L36.09 3.437l-0.573 0.191v-0.573h-0.382l-0.155 -0.37C34.775 2.228 34.775 2.228 34.181 2.1l-0.382 0.573 -0.191 -0.573 0.191 -0.382 -0.191 -0.382c-0.659 -0.22 -1.213 -0.382 -1.91 -0.382l-0.525 -0.095c-0.668 -0.103 -1.283 -0.134 -1.957 -0.095l-0.382 0.382V0.764a88.985 88.985 0 0 0 -0.776 -0.012l-0.436 -0.007c-0.521 0.008 -0.521 0.008 -1.087 0.121 -1.041 0.122 -2.051 0.052 -3.095 -0.007q-0.616 -0.034 -1.232 -0.066l-0.547 -0.031c-0.492 -0.023 -0.492 -0.023 -1.037 0.192 -0.578 -0.09 -0.832 -0.237 -1.337 -0.573 2.515 -0.066 5.03 -0.127 7.546 -0.181q0.627 -0.014 1.255 -0.029" fill="#22B9E2"/>
  <path d="M37.427 9.739h0.191c0.019 1.447 0.033 2.895 0.042 4.343q0.006 0.738 0.016 1.477c0.009 0.708 0.014 1.416 0.017 2.125l0.012 0.665c0 1.194 -0.026 1.95 -0.85 2.848l-0.382 0.191c0.094 -1.222 0.094 -1.222 0.585 -1.802L37.427 19.286h-0.382c-0.024 -1.251 -0.024 -1.251 0.095 -1.677 0.137 -0.606 0.113 -1.188 0.108 -1.808l-0.005 -0.731L37.236 14.513h-0.573v-0.955l-1.146 0.191 -0.143 0.525c-0.25 0.649 -0.47 0.948 -1.003 1.384l-0.573 0.191c-0.315 0.497 -0.382 0.737 -0.382 1.337l-0.191 0.382 -0.573 -0.382v0.382h-0.573l0.191 0.573h-0.382l-0.191 0.764h-0.573v0.573h-0.764l-0.191 0.764h-0.573v0.382l-0.632 0.227c-0.691 0.293 -0.958 0.61 -1.277 1.301l-0.191 0.382h-1.146l-0.239 0.644c-0.203 0.474 -0.29 0.66 -0.716 0.967 -0.512 0.144 -0.997 0.107 -1.528 0.107 -0.319 0.059 -0.638 0.122 -0.955 0.191 0.724 -0.776 1.491 -1.35 2.375 -1.933C28.387 20.414 31.464 18.034 33.799 15.085l0.449 -0.556C35.441 13.028 36.567 11.458 37.427 9.739m-0.573 3.246 0.191 0.382Z" fill="#FAE23F"/>
  <path d="m79.688 21.363 0.484 0.005c0.392 0.005 0.783 0.011 1.175 0.019 0.108 2.066 0.108 2.066 -0.573 2.864 -0.854 0.75 -1.316 0.986 -2.447 1.003l-0.601 0.015c-0.657 -0.071 -1.005 -0.251 -1.536 -0.635 -0.398 -0.507 -0.382 -0.777 -0.37 -1.432 0.216 -0.806 0.433 -1.002 1.134 -1.432 0.899 -0.472 1.744 -0.426 2.733 -0.406" fill="#F9F9F9"/>
  <path d="m153.993 21.351 0.478 0.008c0.386 0.007 0.771 0.017 1.157 0.028q0.007 0.41 0.012 0.821l0.007 0.462c-0.035 0.808 -0.306 1.318 -0.896 1.864 -1.045 0.766 -2.058 0.857 -3.324 0.673 -0.714 -0.306 -0.904 -0.496 -1.337 -1.146 -0.091 -0.7 -0.059 -1.045 0.298 -1.659 1.084 -1.028 2.182 -1.095 3.604 -1.05" fill="#FAFAFA"/>
  <path d="M18.326 20.988c1.317 0.079 2.267 0.457 3.252 1.354v0.382h1.337l0.191 1.146q-0.685 0.426 -1.372 0.847l-0.39 0.243c-0.675 0.412 -1.25 0.757 -2.057 0.819 -0.506 -0.193 -0.883 -0.461 -1.337 -0.764v-0.382h0.382v-1.528l-0.955 0.191c0.307 -2.279 0.307 -2.279 0.949 -2.309M17.95 25.206l0.382 0.191 -0.191 0.382z" fill="#4A70F3"/>
  <path d="M36.663 10.121c0.217 0.65 0.141 0.881 -0.14 1.488 -0.88 1.536 -2.075 2.882 -3.27 4.178 -0.5 0.544 -0.98 1.104 -1.458 1.668C31.507 17.759 31.507 17.759 30.935 18.141c-0.418 -0.072 -0.418 -0.072 -0.764 -0.191l0.382 -0.191 -0.191 -0.573 0.382 -0.191c0.208 -0.782 0.208 -0.782 0 -1.528l0.466 -0.155L31.698 15.085l0.191 -0.573 0.573 0.191 0.382 -1.528 -0.191 0.191 -0.191 -0.573c0.382 -0.382 0.382 -0.382 0.764 -0.573a14.894 14.894 0 0 0 0.382 -0.955c0.594 0 1.135 0.087 1.719 0.191v-1.146c0.278 0.006 0.278 0.006 0.561 0.012 0.561 0.056 0.561 0.056 0.776 -0.203" fill="#25B6D7"/>
  <path d="M46.02 9.166h3.055v17.95h-2.864v-0.191h2.482V9.548h-2.291l0.002 0.577q0.011 2.689 0.017 5.378 0.003 1.383 0.009 2.765 0.006 1.334 0.007 2.667 0.001 0.509 0.004 1.019c0.003 0.475 0.003 0.949 0.003 1.424l0.004 0.429c-0.004 0.973 -0.004 0.973 -0.429 1.399z" fill="#020202"/>
  <path d="M8.784 33.417h0.382c-0.071 0.523 -0.131 0.876 -0.454 1.301C8.402 34.945 8.402 34.945 7.829 34.945c-0.664 0.597 -0.664 0.597 -1.146 1.337h-0.382v0.955c0.645 0.054 1.267 0.088 1.91 0 0.345 -0.453 0.345 -0.453 0.573 -0.955 0.609 -0.155 0.609 -0.155 1.146 -0.191 -0.191 0.573 -0.191 0.573 -0.573 0.776L8.975 37.045l-0.191 0.382 0.396 -0.042c1.629 -0.155 3.244 -0.166 4.879 -0.149q0.768 0.007 1.535 0.012l0.677 0.007c0.525 0.019 0.525 0.019 0.915 -0.21v0.382h2.291l0.191 -0.573 0.191 0.382c2.319 0.442 4.868 0.256 7.221 0.298l1.291 0.025q1.568 0.03 3.137 0.059v0.191q-4.848 0.013 -9.696 0.02 -2.251 0.003 -4.502 0.009 -1.963 0.006 -3.926 0.007 -1.039 0.001 -2.077 0.004c-0.774 0.003 -1.549 0.003 -2.323 0.003l-0.69 0.004c-1.231 -0.003 -2.335 -0.078 -3.52 -0.429l-0.191 -0.382 0.411 -0.409a79.055 79.055 0 0 0 1.07 -1.092l0.536 -0.552 0.271 -0.286c0.494 -0.504 0.833 -0.792 1.531 -0.908z" fill="#FA132B"/>
  <path d="M11.839 21.005c0.22 0.535 0.191 0.763 0.011 1.323C10.697 24.737 8.946 26.593 6.874 28.261c1.968 -1.137 3.807 -2.317 5.53 -3.806l0.359 -0.307 0.313 -0.275C13.367 23.678 13.367 23.678 13.94 23.678l-0.286 0.346c-0.34 0.412 -0.34 0.412 -0.286 0.99h-0.382v0.382c-0.573 0.382 -0.573 0.382 -1.337 0.382l-0.191 0.573a76.191 76.191 0 0 1 -1.146 0.573 60.724 60.724 0 0 0 -1.146 0.955c-0.722 0.53 -1.23 0.794 -2.1 0.955a19.095 19.095 0 0 0 -0.764 0.573h-0.382v-0.382h-0.382c0.076 -0.311 0.156 -0.621 0.239 -0.931l0.134 -0.524C6.111 27.116 6.111 27.116 6.478 26.863 6.874 26.734 6.874 26.734 7.447 26.734a47.739 47.739 0 0 0 0.764 -1.146h0.382v-0.573l0.764 0.382 0.191 -1.337h0.764v-0.764l0.573 -0.382c0.139 -0.489 0.139 -0.489 0.191 -0.955h0.573z" fill="#6F26E2"/>
  <path d="M51.94 14.322h2.864v0.382l-2.291 -0.191v12.221h1.719v-7.638h0.191v7.829h0.382v0.382h-2.864z" fill="#1F1F1F"/>
  <path d="m21.005 25.779 -0.191 1.337 -0.382 -0.382v-0.382l-0.191 0.764 -0.644 0.072c-0.698 0.052 -0.698 0.052 -1.074 0.501a16.995 16.995 0 0 0 -0.382 0.764l-0.43 -0.024c-0.513 -0.012 -0.513 -0.012 -0.883 0.203 -0.564 0.282 -1.121 0.322 -1.742 0.394v0.764c-0.286 0.43 -0.286 0.43 -0.573 0.764l-0.191 -0.573 -0.358 0.203L13.558 30.362l-0.382 -0.191 -0.191 0.382 -0.382 0.167L12.221 30.935l-0.072 0.382 -0.119 0.382a24.251 24.251 0 0 1 -1.146 0.382l-0.382 0.573 -0.191 -0.191v0.764l-0.406 -0.06c-0.799 0.087 -1.113 0.473 -1.695 1.014l-0.382 -0.191c2.973 -2.847 6.297 -5.012 9.897 -6.985a161.166 161.166 0 0 0 0.683 -0.377 117.437 117.437 0 0 1 0.969 -0.528l0.573 -0.313C20.432 25.588 20.432 25.588 21.005 25.779" fill="#F95332"/>
  <path d="M104.07 8.784c0.603 0.526 0.746 0.83 0.859 1.623 -0.113 0.793 -0.256 1.097 -0.859 1.623 -0.754 0.219 -1.151 0.273 -1.874 -0.048 -0.596 -0.477 -0.785 -0.792 -0.883 -1.552 0.104 -0.865 0.373 -1.108 1.038 -1.647 0.615 -0.307 1.065 -0.158 1.719 0" fill="#151515"/>
  <path d="M28.087 0.173c0.599 -0.013 1.198 -0.022 1.798 -0.029l0.491 -0.012c2.073 -0.012 3.831 0.71 5.328 2.139 0.863 0.935 1.662 1.967 1.771 3.268l-0.048 0.382 -0.382 0.191v-1.337l-0.37 -0.131C36.281 4.392 36.281 4.392 36.138 3.891L36.09 3.437l-0.573 0.191v-0.573h-0.382l-0.155 -0.37C34.775 2.228 34.775 2.228 34.181 2.1l-0.382 0.573 -0.191 -0.573 0.191 -0.382 -0.191 -0.382c-0.659 -0.22 -1.213 -0.382 -1.91 -0.382l-0.525 -0.095c-0.668 -0.103 -1.283 -0.134 -1.957 -0.095l-0.382 0.382V0.764a88.985 88.985 0 0 0 -0.776 -0.012l-0.436 -0.007c-0.521 0.008 -0.521 0.008 -1.087 0.121 -1.041 0.122 -2.051 0.052 -3.095 -0.007q-0.616 -0.034 -1.232 -0.066l-0.547 -0.031c-0.492 -0.023 -0.492 -0.023 -1.037 0.192 -0.578 -0.09 -0.832 -0.237 -1.337 -0.573 2.515 -0.066 5.03 -0.127 7.546 -0.181q0.627 -0.014 1.255 -0.029" fill="#16AAF5"/>
  <path d="M46.402 9.548h2.291l-0.002 0.657q-0.011 3.06 -0.017 6.12a1421.274 1421.274 0 0 1 -0.009 3.147q-0.006 1.517 -0.007 3.035 -0.001 0.58 -0.004 1.16c-0.003 0.54 -0.003 1.08 -0.003 1.62l-0.004 0.488c-0.034 0.856 -0.034 0.856 0.429 1.532h-3.055c-0.024 -2.053 -0.024 -2.053 0.191 -2.482 0.023 -0.483 0.036 -0.962 0.039 -1.446l0.006 -0.452q0.009 -0.741 0.015 -1.482l0.012 -1.026q0.016 -1.351 0.029 -2.703 0.015 -1.379 0.031 -2.757 0.031 -2.706 0.059 -5.412m0.191 0.191v16.995h1.91V9.739z" fill="#202020"/>
  <path d="M14.894 25.206h1.91v1.528l1.146 -0.191c-0.866 0.866 -1.697 1.542 -2.769 2.148l-0.543 0.313c-0.543 0.227 -0.736 0.238 -1.271 0.021v-0.382h0.382c0.23 -0.445 0.413 -0.859 0.573 -1.337l-0.382 -0.573v-0.573h0.382l0.191 -0.764 0.382 0.191z" fill="#5C48E6"/>
  <path d="M0.191 6.683h0.191v5.347l0.573 0.191 -0.189 0.4C0.546 13.253 0.529 13.749 0.537 14.417l0.004 0.639c0.029 0.54 0.115 1.029 0.223 1.557l-0.107 0.394c-0.13 0.382 -0.13 0.382 0.119 0.728C0.955 18.141 0.955 18.141 0.788 18.761L0.573 19.286l0.382 0.382 -0.382 0.191v3.246l0.382 0.191 -0.382 0.191 0.095 0.394C0.764 24.442 0.764 24.442 0.752 25.134 0.706 25.804 0.706 25.804 1.146 26.352l-0.191 0.573v0.573l0.573 0.382 -0.191 0.573 -0.573 0.191v-0.382H0.382l-0.191 0.573z" fill="#721FF3"/>
  <path d="M115.336 17.377c0.622 0.414 0.712 0.617 0.887 1.32 0.126 0.745 0.114 1.487 0.105 2.241l-0.002 0.521c-0.002 0.545 -0.007 1.089 -0.012 1.634q-0.003 0.556 -0.005 1.113 -0.007 1.359 -0.019 2.718h2.1V17.95h0.382v9.357h-2.864l-0.011 -0.768c-0.015 -0.943 -0.032 -1.887 -0.049 -2.83q-0.011 -0.611 -0.02 -1.223c-0.009 -0.587 -0.02 -1.175 -0.031 -1.762l-0.007 -0.549c-0.022 -1.002 -0.129 -1.849 -0.454 -2.798" fill="#090909"/>
  <path d="M12.985 28.834h0.955c-0.431 0.865 -1.003 1.316 -1.79 1.838 -1.945 1.339 -3.688 2.887 -5.434 4.473 -0.509 0.457 -1.03 0.895 -1.56 1.327 0.264 -0.609 0.568 -0.969 1.062 -1.408 0.604 -0.58 0.826 -0.975 0.847 -1.838 1.098 -0.191 1.098 -0.191 1.528 -0.191l0.06 -0.37L8.784 32.271l0.573 -0.191c0.14 -0.385 0.14 -0.385 0.191 -0.764l-0.382 -0.191 0.764 -1.146 0.955 0.191 0.191 -0.382 0.764 0.191 0.191 -0.382a14.894 14.894 0 0 1 0.955 -0.382z" fill="#6225DB"/>
  <path d="m31.126 18.141 0.191 1.146 -0.955 0.191 -0.191 0.764h-0.573v0.382l-0.632 0.227c-0.691 0.293 -0.958 0.61 -1.277 1.301l-0.191 0.382h-1.146l-0.239 0.644c-0.203 0.474 -0.29 0.66 -0.716 0.967 -0.512 0.144 -0.997 0.107 -1.528 0.107 -0.319 0.059 -0.638 0.122 -0.955 0.191 0.724 -0.776 1.491 -1.35 2.375 -1.933 1.056 -0.712 2.088 -1.446 3.091 -2.232l0.321 -0.25a15.467 15.467 0 0 0 1.521 -1.376C30.744 18.141 30.744 18.141 31.126 18.141" fill="#F7C230"/>
  <path d="M7.352 0.145 7.885 0.143l0.583 0.004h0.615c0.673 0 1.345 0.003 2.018 0.006l1.397 0.002c1.227 0.002 2.454 0.005 3.682 0.01 1.252 0.004 2.503 0.006 3.755 0.008 2.457 0.004 4.914 0.011 7.371 0.019v0.191l-0.695 0.011c-0.849 0.015 -1.698 0.032 -2.547 0.049q-0.552 0.011 -1.104 0.02c-0.528 0.009 -1.056 0.02 -1.584 0.031l-0.5 0.007C19.989 0.483 19.989 0.483 19.286 0.955c-0.385 -0.044 -0.77 -0.088 -1.153 -0.148C17.709 0.758 17.402 0.838 16.995 0.955q-0.383 -0.092 -0.764 -0.191 -0.453 -0.061 -0.907 -0.108l-0.462 -0.048L14.513 0.573l0.191 0.573c-0.573 -0.191 -0.573 -0.191 -0.955 -0.382 -0.584 -0.03 -1.165 -0.049 -1.75 -0.06l-0.525 -0.012q-0.832 -0.019 -1.663 -0.035l-1.126 -0.025Q7.302 0.601 5.92 0.573C6.524 0.17 6.662 0.143 7.352 0.145" fill="#1253FE"/>
  <path d="M68.171 18.523c0.382 0.382 0.382 0.382 0.428 0.732l-0.002 0.429v0.486l-0.006 0.526 -0.002 0.538c-0.002 0.568 -0.007 1.136 -0.012 1.704q-0.003 0.577 -0.005 1.154 -0.007 1.416 -0.019 2.832h2.1V18.523c0.396 0.594 0.429 0.719 0.425 1.392v0.498l-0.006 0.535 -0.002 0.55c-0.002 0.58 -0.007 1.159 -0.012 1.739q-0.003 0.589 -0.005 1.179 -0.007 1.446 -0.019 2.891h-2.864z" fill="#0A0A09"/>
  <path d="M37.427 20.05h0.191q0.02 2.383 0.03 4.766 0.004 1.107 0.014 2.213 0.009 1.07 0.011 2.139 0.002 0.407 0.006 0.813c0.017 1.526 -0.043 2.782 -0.633 4.199l-0.382 -0.191v-1.337h0.382c0.043 -0.274 0.082 -0.549 0.119 -0.823l0.067 -0.463c0.045 -0.487 0.045 -0.487 -0.378 -1.005l0.382 -0.573c-0.002 -0.376 -0.002 -0.376 -0.083 -0.764 -0.103 -0.575 -0.11 -0.757 0.083 -1.337 0.016 -0.466 0.022 -0.927 0.019 -1.393l-0.001 -0.409a407.115 407.115 0 0 0 -0.006 -1.29q-0.002 -0.437 -0.003 -0.875 -0.003 -1.072 -0.009 -2.144 -0.362 0.358 -0.724 0.717l-0.407 0.403a20.623 20.623 0 0 0 -1.042 1.16c-0.787 0.918 -1.69 1.702 -2.602 2.494l-0.573 -0.191q0.495 -0.454 0.991 -0.907l0.557 -0.51C33.99 24.251 33.99 24.251 34.475 23.883c0.57 -0.481 1.004 -1.032 1.448 -1.625 0.082 -0.107 0.164 -0.214 0.248 -0.324 0.366 -0.482 0.704 -0.965 1.015 -1.485z" fill="#FE8F0C"/>
  <path d="M96.241 14.322h2.673c0.017 1.781 0.031 3.562 0.04 5.344q0.006 1.241 0.018 2.482c0.008 0.8 0.013 1.6 0.015 2.4q0.002 0.455 0.008 0.911c0.023 1.719 0.015 3.354 -0.845 4.904l-0.382 0.191 0.122 -0.304c0.564 -1.595 0.542 -3.173 0.549 -4.841q0.005 -0.465 0.01 -0.929c0.009 -0.809 0.015 -1.619 0.02 -2.428 0.006 -0.828 0.015 -1.657 0.023 -2.485 0.016 -1.621 0.029 -3.241 0.04 -4.862h-1.719l-0.191 1.337 -0.382 -0.191z" fill="#020202"/>
  <path d="M8.784 33.417h0.382c-0.071 0.523 -0.131 0.876 -0.454 1.301C8.402 34.945 8.402 34.945 7.829 34.945c-0.664 0.597 -0.664 0.597 -1.146 1.337h-0.382v0.955c0.645 0.054 1.267 0.088 1.91 0 0.345 -0.453 0.345 -0.453 0.573 -0.955 0.609 -0.155 0.609 -0.155 1.146 -0.191 -0.191 0.573 -0.191 0.573 -0.573 0.776L8.975 37.045l-0.191 0.382 0.461 -0.049c2.01 -0.193 2.01 -0.193 2.976 0.049v0.191q-1.176 0.056 -2.353 0.103 -0.399 0.017 -0.798 0.036c-1.481 0.07 -2.868 0.128 -4.296 -0.329l-0.191 -0.382 0.411 -0.409a79.055 79.055 0 0 0 1.07 -1.092l0.536 -0.552 0.271 -0.286c0.494 -0.504 0.833 -0.792 1.531 -0.908z" fill="#F21A4E"/>
  <path d="M26.161 19.286c0.373 0.373 0.544 0.674 0.764 1.146h1.146c-2.081 2.215 -2.081 2.215 -3.437 2.482l-0.489 0.227L23.678 23.296c-0.573 -0.382 -0.573 -0.382 -0.764 -0.955l0.191 -0.191c0.044 -0.257 0.079 -0.516 0.108 -0.776L23.296 20.623l0.382 0.191c0.158 0.474 0.191 0.831 0.191 1.337l0.382 -0.191 0.191 0.573 0.382 -0.573 -0.573 -0.191v-0.764l0.573 -0.191 0.382 0.382 0.191 -0.382h0.764l-0.215 -0.441L25.779 19.859z" fill="#30A0EF"/>
  <path d="m32.844 8.784 0.955 0.191c0.191 0.573 0.191 0.573 0.286 0.967 0.085 0.382 0.085 0.382 0.286 0.752l-0.239 0.31c-0.351 0.465 -0.351 0.465 -0.692 1.026 -0.403 0.569 -0.798 0.931 -1.361 1.337v-0.382h-0.573l0.191 -1.337h0.764l-0.382 -0.382h-0.382l-0.191 -0.573c0.445 -0.23 0.859 -0.413 1.337 -0.573l-0.382 -0.573zm1.91 0.764v0.573Z" fill="#22B2E9"/>
  <path d="M101.97 14.322h2.482v12.985h-2.864v-0.191l2.291 -0.191 0.191 -12.221h-2.1z" fill="#060506"/>
  <path d="M9.739 13.94c0.771 0.206 1.319 0.624 1.933 1.122l0.491 0.392c0.985 0.885 0.985 0.885 1.054 1.557C12.751 20.859 12.751 20.859 11.457 21.96c0.164 -1.637 0.164 -1.637 0.573 -2.291l-0.382 -0.191 0.275 -0.358C12.378 18.209 12.412 17.241 12.412 16.231a35.708 35.708 0 0 0 -1.146 -0.764l-0.382 -0.382c-0.393 -0.116 -0.787 -0.193 -1.188 -0.274L9.357 14.703l-0.191 -0.382zm2.291 3.055h0.382l-0.191 0.573h-0.382z" fill="#5F3FF6"/>
  <path d="M28.643 17.186c1.313 0.692 1.313 0.692 1.528 1.337 -0.513 0.855 -1.277 1.552 -2.1 2.1l-0.573 -0.191c-0.008 -0.382 -0.008 -0.764 0 -1.146l0.191 -0.191 0.06 -0.322c0.182 -0.612 0.53 -1.069 0.895 -1.587" fill="#2AA7E5"/>
  <path d="M15.085 29.025c0 0.815 -0.072 0.943 -0.573 1.528l-0.191 -0.573 -0.358 0.203L13.558 30.362l-0.382 -0.191 -0.191 0.382 -0.382 0.167L12.221 30.935l-0.072 0.382 -0.119 0.382a24.251 24.251 0 0 1 -1.146 0.382l-0.382 0.573 -0.191 -0.191v0.764l-0.406 -0.06c-0.799 0.087 -1.113 0.473 -1.695 1.014l-0.382 -0.191c1.614 -1.545 3.34 -2.901 5.156 -4.201l0.327 -0.235c0.627 -0.437 1.001 -0.62 1.773 -0.529" fill="#F93136"/>
  <path d="M31.126 0.191v0.191l-2.1 0.191 -0.191 0.573V0.764a88.985 88.985 0 0 0 -0.776 -0.012l-0.437 -0.007c-0.521 0.008 -0.521 0.008 -1.087 0.121 -1.041 0.122 -2.051 0.052 -3.095 -0.007q-0.616 -0.034 -1.232 -0.066l-0.547 -0.031c-0.492 -0.023 -0.492 -0.023 -1.037 0.192 -0.578 -0.09 -0.832 -0.237 -1.337 -0.573q1.608 -0.042 3.217 -0.082 0.544 -0.014 1.088 -0.028C26.104 0.207 28.613 0.179 31.126 0.191" fill="#1388FE"/>
  <path d="M18.714 20.623c0.549 0.286 0.549 0.286 0.955 0.573 -0.586 0.293 -1.088 0.105 -1.719 0l0.024 0.454C17.95 22.151 17.95 22.151 17.568 22.533l-0.191 0.382 -0.764 -0.382 -0.191 0.382v-0.382l-0.573 0.191v-0.573l-0.31 0.454c-0.511 0.565 -0.871 0.701 -1.599 0.883 1.072 -1.465 2.86 -3.06 4.774 -2.864" fill="#455EF8"/>
  <path d="m16.422 3.628 0.442 0.095c0.52 0.113 0.52 0.113 1.086 0.095l0.191 0.382h0.382v0.382l0.764 0.382h-0.382v0.382h0.573l-0.024 0.477c0.028 0.787 0.197 1.438 0.406 2.196 -0.649 -0.324 -0.746 -1.079 -0.979 -1.73l-0.16 -0.439C18.589 5.492 18.461 5.133 18.332 4.774h-1.146l-0.195 0.578 -0.258 0.747 -0.128 0.382C16.274 7.425 16.274 7.425 15.849 7.638l0.179 -0.68C16.211 6.232 16.329 5.516 16.422 4.774l-0.573 -0.191z" fill="#1A70FD"/>
  <path d="M60.342 18.523h0.191v8.211h1.91v-6.683h0.191v7.256h-2.482c-0.01 -2.004 0.025 -4 0.095 -6.003l0.028 -0.817q0.033 -0.982 0.068 -1.964" fill="#201F20"/>
  <path d="m0.191 28.834 0.573 0.191c0.019 0.667 -0.042 1.259 -0.191 1.91h0.382v0.382l0.382 0.191 0.191 0.382 0.334 -0.203c0.498 -0.208 0.696 -0.166 1.193 0.012 -1.098 0.764 -1.098 0.764 -1.528 0.764 0.097 0.414 0.191 0.764 0.382 1.146l-0.764 0.191 -0.263 -0.537C0.584 32.646 0.584 32.646 0.191 32.08c-0.043 -0.363 -0.043 -0.363 -0.037 -0.766l0.004 -0.438 0.01 -0.454 0.005 -0.462c0.005 -0.375 0.011 -0.75 0.019 -1.126m2.864 1.719h0.382l-0.191 0.955 -0.382 -0.573z" fill="#772BDE"/>
  <path d="M35.518 12.985c0 0.86 -0.16 1.658 -0.74 2.315C34.372 15.658 34.372 15.658 33.799 15.849c-0.315 0.497 -0.382 0.737 -0.382 1.337l-0.191 0.382 -0.573 -0.382v0.382h-0.573l0.191 0.573h-0.382l-0.191 0.764 -0.573 -0.191c0.047 -1.068 0.736 -1.611 1.444 -2.327q0.366 -0.38 0.73 -0.761l0.358 -0.375c0.668 -0.717 1.268 -1.485 1.859 -2.266" fill="#F9DE28"/>
  <path d="M10.884 9.93c0.573 0.191 0.573 0.191 0.955 0.955h1.719c-0.825 0.825 -2.724 0.744 -3.86 0.788 -0.433 0 -0.863 -0.006 -1.296 -0.024 -0.112 0.532 -0.112 0.532 0 1.146 0.403 0.391 0.851 0.675 1.337 0.955 -0.762 0 -1.241 -0.214 -1.91 -0.573 -0.231 -0.53 -0.226 -0.804 -0.095 -1.361C8.165 11.276 8.706 11.06 9.357 10.884c0.752 -0.036 0.752 -0.036 1.337 0z" fill="#4B44FB"/>
  <path d="M109.99 18.523h0.191v8.784h-2.482v-0.382h2.1l-0.003 -0.73q-0.005 -1.338 -0.007 -2.675 -0.002 -0.58 -0.004 -1.159c-0.002 -0.555 -0.003 -1.109 -0.004 -1.664l-0.003 -0.526v-0.486l-0.001 -0.429C109.799 18.904 109.799 18.904 109.99 18.523" fill="#050505"/>
  <path d="m16.613 32.08 0.764 0.382 -0.191 0.382h-0.382v0.382h-1.337l-0.191 0.573 -0.441 0.072c-0.552 0.097 -0.552 0.097 -1.086 0.501 -0.228 0.391 -0.228 0.391 -0.382 0.764l-0.573 -0.191c-0.754 0.237 -1.446 0.626 -2.144 0.992C10.312 36.09 10.312 36.09 9.93 36.09v-0.382l0.764 -0.191v-0.382l0.398 -0.147 0.521 -0.199 0.517 -0.195c0.477 -0.192 0.477 -0.192 0.778 -0.527 0.447 -0.447 1 -0.402 1.605 -0.459l0.191 -0.573 1.528 -0.191 0.191 -0.573z" fill="#F42648"/>
  <path d="M26.352 29.598c-1.506 0.638 -3.013 1.22 -4.583 1.683l-0.401 0.119c-0.628 0.18 -1.229 0.312 -1.879 0.396L18.904 31.889l-0.191 0.382c-0.506 0.113 -1.011 0.142 -1.528 0.191l0.191 -0.573c0.778 -0.284 1.464 -0.432 2.291 -0.382l0.191 -0.573 0.344 -0.017c1.306 -0.095 2.429 -0.419 3.654 -0.866q0.527 -0.191 1.055 -0.378l0.463 -0.169C25.779 29.407 25.779 29.407 26.352 29.598" fill="#FD4630"/>
  <path d="M46.02 9.166h3.055v4.583h-0.382V9.548h-2.291l-0.191 2.864h-0.191z" fill="#09090A"/>
  <path d="M22.915 19.477h0.191c0.23 0.893 0.206 1.759 0.191 2.673v0.573l0.382 0.191v0.382l1.146 -0.764 0.382 0.191a31.126 31.126 0 0 1 -3.735 2.494l-0.407 0.235c-0.331 0.185 -0.672 0.353 -1.014 0.517l-0.382 -0.191 0.298 -0.163a147.799 147.799 0 0 0 1.325 -0.744l0.469 -0.257 0.444 -0.254 0.412 -0.23L22.915 23.869v-0.764l-1.337 -0.382v-0.191l0.561 -0.179c0.554 -0.145 0.554 -0.145 0.776 -0.394 0.014 -0.417 0.016 -0.835 0.012 -1.253l-0.005 -0.693z" fill="#2277F3"/>
  <path d="m13.558 23.487 0.382 0.191 -0.286 0.346c-0.34 0.412 -0.34 0.412 -0.286 0.99h-0.382v0.382c-0.573 0.382 -0.573 0.382 -1.337 0.382l-0.191 0.573c-0.752 0.454 -1.422 0.66 -2.291 0.764 0.578 -0.61 1.196 -1.103 1.874 -1.599C11.912 24.87 12.746 24.207 13.558 23.487" fill="#6225E1"/>
  <path d="M84.02 21.196h0.191v6.111h-2.673v-1.528h0.191v1.146h2.1l-0.007 -1.011 -0.005 -1.316 -0.005 -0.666 -0.002 -0.643 -0.003 -0.591c0.021 -0.522 0.095 -0.994 0.213 -1.501" fill="#020202"/>
  <path d="m20.623 22.151 0.394 0.179c0.631 0.228 1.232 0.315 1.898 0.394l0.191 1.146c-0.575 0.423 -0.85 0.579 -1.575 0.537L21.005 24.251l-0.191 -0.382 0.382 -0.573 -0.286 -0.251C20.623 22.724 20.623 22.724 20.623 22.151" fill="#4282F6"/>
  <path d="m23.296 20.623 0.382 0.191c0.158 0.474 0.191 0.831 0.191 1.337l0.382 -0.191 0.191 0.573 0.382 -0.573 -0.573 -0.191v-0.764l0.573 -0.191 0.382 0.573 0.573 0.382 -0.382 0.382v0.573l-0.322 0.072c-0.459 0.111 -0.459 0.111 -0.931 0.346L23.678 23.296c-0.573 -0.382 -0.573 -0.382 -0.764 -0.955l0.191 -0.191c0.044 -0.257 0.079 -0.516 0.108 -0.776z" fill="#3992EA"/>
  <path d="M37.427 26.352h0.191q0.021 1.258 0.032 2.516 0.004 0.427 0.012 0.854c0.027 1.583 0.021 2.976 -0.616 4.459l-0.382 -0.191v-1.337h0.382c0.043 -0.274 0.082 -0.549 0.119 -0.823l0.067 -0.463c0.045 -0.487 0.045 -0.487 -0.378 -1.005l0.382 -0.573a51.558 51.558 0 0 0 -0.16 -1.081c-0.055 -0.808 0.158 -1.576 0.351 -2.356" fill="#FE790C"/>
  <path d="M8.784 33.417h0.382c-0.071 0.523 -0.131 0.876 -0.454 1.301C8.402 34.945 8.402 34.945 7.829 34.945c-0.664 0.597 -0.664 0.597 -1.146 1.337 -0.489 0.119 -0.489 0.119 -0.955 0.191 0 -0.573 0 -0.573 0.391 -1.04l0.516 -0.512 0.51 -0.515c0.469 -0.397 0.675 -0.504 1.256 -0.607z" fill="#F72648"/>
  <path d="M37.427 13.558h0.191q0.028 1.355 0.042 2.711 0.006 0.461 0.016 0.921c0.009 0.443 0.014 0.885 0.017 1.328l0.012 0.412c0 0.972 -0.237 1.518 -0.85 2.265l-0.382 0.191c0.094 -1.222 0.094 -1.222 0.585 -1.802L37.427 19.286h-0.382c-0.014 -0.744 0.01 -1.383 0.191 -2.1q0.04 -0.433 0.06 -0.868l0.024 -0.488 0.023 -0.505 0.025 -0.514q0.03 -0.626 0.059 -1.252" fill="#FED112"/>
  <path d="M27.116 15.849h0.573l0.382 0.382c-0.072 0.597 -0.072 0.597 -0.191 1.146l-0.764 -0.191 -0.191 0.764h-0.382l-0.382 -0.382h-0.382l-0.191 -0.764 0.549 -0.263c0.597 -0.272 0.597 -0.272 0.979 -0.692" fill="#26A5F3"/>
  <path d="M25.97 22.151c0.024 1.265 0.024 1.265 -0.191 1.91 -0.662 0.139 -1.234 0.191 -1.91 0.191 -0.319 0.059 -0.638 0.122 -0.955 0.191 2.083 -2.291 2.083 -2.291 3.055 -2.291" fill="#FAA52E"/>
  <path d="M37.427 6.111h0.191c0.021 0.577 0.036 1.153 0.048 1.731l0.019 0.49c0.018 1.149 -0.178 1.796 -0.831 2.744l-0.191 -0.764 -0.573 0.191 -0.573 -0.191c0.143 -0.465 0.143 -0.465 0.382 -0.955 0.406 -0.155 0.406 -0.155 0.764 -0.191l0.191 0.382c0.433 -0.697 0.456 -1.339 0.501 -2.148l0.043 -0.731z" fill="#1AB4DC"/>
  <path d="M9.93 27.116c-0.845 0.91 -1.638 1.493 -2.864 1.719 -0.433 0.28 -0.433 0.28 -0.764 0.573l-0.191 -0.573a276.502 276.502 0 0 1 1.289 -0.847l0.367 -0.244 0.358 -0.233 0.327 -0.215c0.54 -0.292 0.913 -0.462 1.478 -0.179" fill="#6E1CDA"/>
  <path d="M0.191 6.683h0.191v5.347l0.573 0.191 -0.189 0.402c-0.217 0.622 -0.231 1.102 -0.216 1.758l0.011 0.619L0.573 15.467l-0.382 0.191z" fill="#5C19FA"/>
  <path d="M15.085 29.025c0 0.815 -0.072 0.943 -0.573 1.528l-0.191 -0.573 -0.358 0.203L13.558 30.362l-0.382 -0.191 -0.191 0.382c-0.394 0.215 -0.394 0.215 -0.764 0.382v0.573l-0.573 -0.191h0.382l-0.191 -0.573q0.465 -0.377 0.931 -0.752l0.524 -0.423c0.651 -0.505 0.978 -0.565 1.792 -0.544" fill="#F9473B"/>
  <path d="M9.739 13.94c0.771 0.206 1.319 0.624 1.933 1.122l0.491 0.392c0.624 0.561 0.988 0.908 1.073 1.756C13.176 17.759 13.176 17.759 12.794 18.141l-0.022 -0.356 -0.038 -0.468 -0.033 -0.463C12.586 16.345 12.432 16.172 12.03 15.849a34.181 34.181 0 0 0 -0.764 -0.382l-0.382 -0.382c-0.393 -0.116 -0.787 -0.193 -1.188 -0.274L9.357 14.703l-0.191 -0.382z" fill="#4E35F8"/>
  <path d="m17.377 25.397 0.382 0.191v0.382h0.764v0.382l0.573 -0.382 0.573 0.191a166.512 166.512 0 0 1 -1.217 0.68l-0.349 0.198c-0.299 0.164 -0.607 0.313 -0.916 0.458l-0.382 -0.191 0.955 -0.573h-0.955c-0.215 -0.716 -0.215 -0.716 0 -1.146z" fill="#4858EC"/>
  <path d="m9.739 25.588 0.573 0.382v0.382c-0.531 0.411 -1.12 0.74 -1.695 1.086l-0.487 0.303 -0.466 0.284 -0.43 0.262L6.874 28.452l-0.382 -0.191 0.371 -0.294C7.838 27.192 8.799 26.406 9.739 25.588" fill="#F3ECF9"/>
  <path d="m21.005 25.779 -0.191 1.337 -0.382 -0.382v-0.382l-0.191 0.764 -1.91 0.191v-0.573a95.477 95.477 0 0 1 1.015 -0.585l0.571 -0.329C20.432 25.588 20.432 25.588 21.005 25.779" fill="#FB7128"/>
  <path d="M13.176 0.382q1.295 -0.014 2.59 -0.021 0.441 -0.003 0.881 -0.008c0.422 -0.005 0.844 -0.007 1.266 -0.009l0.399 -0.006c0.325 0 0.65 0.02 0.975 0.043l0.382 0.382c-0.689 0.239 -1.202 0.118 -1.91 0q-0.383 0.09 -0.764 0.191c-0.255 -0.061 -0.51 -0.125 -0.764 -0.191q-0.453 -0.061 -0.907 -0.107l-0.462 -0.049L14.513 0.573l0.191 0.573c-0.519 -0.173 -1.021 -0.368 -1.528 -0.573z" fill="#2568FE"/>
  <path d="M22.342 36.663h0.382l0.191 0.573 8.593 0.191v0.191h-9.166z" fill="#FE3A1E"/>
  <path d="m32.08 15.658 0.573 0.191c-0.028 0.938 -0.528 1.424 -1.173 2.04C31.126 18.141 31.126 18.141 30.565 18.129L30.171 17.95l0.382 -0.191 -0.191 -0.573c0.487 -0.45 0.708 -0.57 1.384 -0.609L32.271 16.613z" fill="#31AED1"/>
  <path d="M0.382 24.06c0.545 0.545 0.382 0.969 0.382 1.719l0.382 0.573 -0.191 0.573v0.573l0.573 0.382 -0.191 0.573 -0.573 0.191v-0.382H0.382z" fill="#8430E7"/>
  <path d="M36.281 21.387c0 1.087 -1.018 1.899 -1.719 2.673 -0.845 0.824 -1.721 1.594 -2.673 2.291l-0.382 -0.191c0.876 -0.913 1.834 -1.752 2.84 -2.518 0.419 -0.357 0.565 -0.617 0.788 -1.11 0.275 -0.298 0.275 -0.298 0.573 -0.573l0.322 -0.322z" fill="#FEB523"/>
  <path d="M34.754 1.528c-0.863 0 -1.63 -0.265 -2.423 -0.597 -0.482 -0.212 -0.482 -0.212 -1.205 -0.167h-1.91l0.191 -0.382c1.995 -0.386 3.713 -0.08 5.347 1.146" fill="#129DFA"/>
  <path d="m13.94 26.352 0.454 0.382c0.447 0.42 0.447 0.42 0.883 0.382 0.06 0.537 0.06 0.537 0 1.146 -0.591 0.489 -1.158 0.657 -1.91 0.764v-0.382h0.382c0.23 -0.445 0.413 -0.859 0.573 -1.337 -0.168 -0.507 -0.168 -0.507 -0.382 -0.955" fill="#653DE2"/>
  <path d="M32.844 16.04c0.263 0.508 0.453 0.967 0.573 1.528l-0.764 -0.382v0.382h-0.573l0.191 0.573h-0.382l-0.191 0.764 -0.573 -0.191c0.095 -0.851 0.386 -1.256 0.967 -1.874l0.424 -0.457z" fill="#F9CF2B"/>
  <path d="M133.095 18.141h0.573c0.361 1.194 0.777 2.838 0.191 4.01h-0.382q-0.008 -0.501 -0.012 -1.003l-0.007 -0.564c0.016 -0.469 0.074 -0.851 0.21 -1.298h-0.382z" fill="#242324"/>
  <path d="m9.93 29.98 0.955 0.191 -0.382 1.719 -0.955 0.191v-0.764l-0.382 -0.191z" fill="#7326D4"/>
  <path d="M134.05 14.322h3.246l-0.191 0.764v-0.382h-2.482l0.298 0.633C135.196 16.04 135.196 16.04 135.005 16.613z" fill="#0B0B0B"/>
  <path d="M0.191 20.814h0.191l0.028 0.495 0.043 0.639c0.013 0.211 0.027 0.421 0.04 0.638L0.573 23.105l0.382 0.191 -0.382 0.191 -0.191 5.347H0.191z" fill="#6602E2"/>
  <path d="m8.02 20.814 0.573 0.573 0.382 -0.191v1.528c-0.764 0 -0.764 0 -1.074 -0.286L7.638 22.151h-0.382a10.789 10.789 0 0 1 0.764 -1.337" fill="#7639F0"/>
  <path d="m15.085 22.915 -0.191 0.573 0.764 0.573 -0.191 0.573 -0.263 -0.286c-0.287 -0.33 -0.287 -0.33 -0.692 -0.286v0.764h-0.382l-0.382 -0.573h-0.573a122.211 122.211 0 0 1 0.74 -0.668l0.416 -0.376C14.703 22.915 14.703 22.915 15.085 22.915" fill="#604DEE"/>
  <path d="m29.789 12.985 0.955 0.382 -0.382 1.146h-0.382v0.382l-0.573 0.191c-0.191 -0.573 -0.191 -0.573 -0.191 -1.146h0.382zm0.573 0 0.382 0.191Z" fill="#24ADEF"/>
  <path d="m9.739 24.251 0.573 0.191c-0.27 0.597 -0.596 1.058 -1.026 1.552l-0.339 0.395c-0.355 0.346 -0.665 0.533 -1.117 0.727l0.394 -0.418c0.43 -0.503 0.43 -0.503 0.322 -1.074L8.402 25.206c0.573 0 0.573 0 0.955 0.191l0.084 -0.465C9.548 24.442 9.548 24.442 9.739 24.251" fill="#671EE0"/>
  <path d="m128.13 13.94 -0.191 0.382c-0.453 0.059 -0.453 0.059 -1.038 0.084 -1.122 0.073 -2.105 0.308 -3.163 0.68 1.198 -1.3 2.746 -1.22 4.392 -1.146" fill="#0D0D0D"/>
  <path d="M26.925 20.432h1.146c-0.707 0.749 -1.442 1.326 -2.291 1.91l-0.764 -0.382 0.955 -0.191v-0.573h0.764z" fill="#2596ED"/>
  <path d="m27.116 21.196 0.573 0.191 0.191 0.573 -0.382 0.573c-0.573 0.024 -0.573 0.024 -1.146 0l-0.382 0.191c0.064 -0.6 0.201 -0.774 0.644 -1.205z" fill="#F8B231"/>
  <path d="m16.613 32.08 0.764 0.382 -0.191 0.382h-0.382v0.382h-1.337l-0.191 0.573h-1.146l0.382 -0.191 0.191 -0.573 1.528 -0.191 0.191 -0.573z" fill="#F93041"/>
  <path d="m16.422 3.628 0.955 0.191v0.573l-0.382 0.191a14.894 14.894 0 0 0 -0.382 0.955l-0.382 -0.382 0.191 -0.382 -0.573 -0.191z" fill="#336DFE"/>
  <path d="M27.497 12.794c-0.28 0.679 -0.644 1.039 -1.217 1.492l-0.446 0.362C25.397 14.894 25.397 14.894 24.96 14.837L24.633 14.703q0.607 -0.479 1.217 -0.955l0.349 -0.276C27.072 12.794 27.072 12.794 27.497 12.794" fill="#168EF8"/>
  <path d="M27.497 10.502h0.573l-0.012 0.621c0.009 0.553 0.037 0.962 0.203 1.48l-0.764 0.382c-0.255 -0.509 -0.128 -0.796 0 -1.337l-0.382 -0.191v-0.382h0.382z" fill="#219FF8"/>
  <path d="m17.95 3.819 0.191 0.382h0.382v0.382l-1.337 0.191 -0.195 0.578 -0.258 0.747 -0.128 0.382C16.274 7.425 16.274 7.425 15.849 7.638c0.744 -2.966 0.744 -2.966 1.659 -3.604z" fill="#1556FE"/>
  <path d="M34.945 23.487c0 0.573 0 0.573 -0.228 0.848l-0.315 0.282 -0.34 0.308 -0.359 0.317 -0.359 0.323A151.618 151.618 0 0 1 32.462 26.352l-0.573 -0.191q0.495 -0.454 0.991 -0.907l0.557 -0.51A30.744 30.744 0 0 1 34.945 23.487" fill="#FE7F14"/>
  <path d="M23.296 20.623c0.382 0.191 0.382 0.191 0.513 0.549C23.869 21.578 23.869 21.578 23.678 22.151l0.382 0.573v0.573l-0.955 -0.191c-0.107 -0.37 -0.107 -0.37 -0.191 -0.764l0.191 -0.191c0.044 -0.257 0.079 -0.516 0.108 -0.776z" fill="#388DF6"/>
  <path d="M20.241 31.317v0.382l-0.656 0.072L18.904 31.889l-0.191 0.382c-0.506 0.113 -1.011 0.142 -1.528 0.191l0.191 -0.573c0.548 -0.181 0.548 -0.181 1.229 -0.322l0.679 -0.146C19.859 31.317 19.859 31.317 20.241 31.317" fill="#FC3F39"/>
  <path d="m18.904 27.116 -0.573 1.337h-0.955v-0.573l0.382 -0.191 -0.573 -0.382c0.64 -0.403 0.997 -0.391 1.719 -0.191" fill="#F86137"/>
  <path d="m152.947 13.914 0.461 0.002 0.458 -0.002C154.291 13.94 154.291 13.94 154.864 14.131v0.382c-0.342 0.01 -0.684 0.018 -1.026 0.024l-0.577 0.013C152.764 14.513 152.764 14.513 152.382 14.131c0.191 -0.191 0.191 -0.191 0.565 -0.216" fill="#0E0E0E"/>
  <path d="M9.93 27.116c-0.577 0.622 -1.195 1.073 -1.91 1.528l-0.191 -0.573c1.337 -1.337 1.337 -1.337 2.1 -0.955" fill="#762ADD"/>
  <path d="m13.558 23.487 0.382 0.191 -0.286 0.346c-0.34 0.412 -0.34 0.412 -0.286 0.99h-0.382v0.382l-0.573 0.191 -0.191 -0.573c0.274 -0.39 0.274 -0.39 0.657 -0.8l0.381 -0.414z" fill="#5D32EA"/>
  <path d="m3.437 1.337 0.191 0.382 -0.465 0.346C2.631 2.446 2.631 2.446 2.482 3.055l-0.573 0.191 -0.191 0.573 -0.573 0.191c0.255 -0.76 0.57 -1.212 1.146 -1.766l0.406 -0.397C3.055 1.528 3.055 1.528 3.437 1.337" fill="#3D34FC"/>
  <path d="m5.347 0.382 2.673 0.191v0.191h-1.337l-0.191 0.382V0.764l-0.955 0.764 -0.573 -0.573z" fill="#5358FD"/>
  <path d="M16.231 5.538c0.349 1.047 -0.218 2.233 -0.573 3.246h-0.191c-0.093 -1.28 0.176 -2.113 0.764 -3.246" fill="#3162FE"/>
  <path d="M29.407 17.95h0.573l0.191 0.573c-0.319 0.51 -0.711 0.923 -1.146 1.337l-0.573 -0.573 0.37 -0.131c0.446 -0.223 0.446 -0.223 0.537 -0.752z" fill="#33A8D6"/>
  <path d="M22.342 36.663h0.382l0.191 0.573 0.488 -0.013 0.634 -0.011 0.631 -0.013C25.206 37.236 25.206 37.236 25.588 37.618h-3.246z" fill="#FE2F30"/>
  <path d="m21.005 25.779 -0.191 1.337 -0.382 -0.382v-0.382l-0.191 0.382 -0.573 -0.191v-0.573c0.692 -0.406 0.692 -0.406 1.337 -0.191" fill="#F67634"/>
  <path d="m24.442 23.105 0.382 0.191v0.382h-0.382l-0.191 0.764 -0.382 -0.191a14.513 14.513 0 0 0 -0.955 0.191c0.492 -0.506 0.939 -0.944 1.528 -1.337" fill="#F79F26"/>
  <path d="M9.93 36.09c-0.191 0.573 -0.191 0.573 -0.573 0.776L8.975 37.045l-0.191 0.382 -0.573 -0.191c0.646 -1.146 0.646 -1.146 1.719 -1.146" fill="#F3224E"/>
  <path d="m13.367 29.598 0.382 0.191 -0.573 0.191 -0.191 0.573c-0.394 0.227 -0.394 0.227 -0.764 0.382v0.573l-0.573 -0.191h0.382l-0.191 -0.573z" fill="#FB412C"/>
  <path d="m23.869 24.06 0.191 0.382c-0.191 0.382 -0.191 0.382 -0.644 0.621L22.915 25.206l-0.573 -0.382v-0.382z" fill="#F89134"/>
  <path d="M7.829 11.839h0.382l0.012 0.418C8.486 13.046 9.05 13.326 9.739 13.749c-0.762 0 -1.241 -0.214 -1.91 -0.573 -0.191 -0.489 -0.191 -0.489 -0.191 -0.955z" fill="#4D28F9"/>
  <path d="M18.332 25.015c0.517 0.259 0.928 0.546 1.337 0.955l-1.146 0.382v-0.382l-0.573 0.191v-0.382h0.382l-0.191 -0.573z" fill="#4F64EB"/>
  <path d="M155.628 25.97h0.573v0.764h1.91v0.191l-0.446 -0.013 -0.58 -0.011 -0.577 -0.013c-0.528 -0.015 -0.528 -0.015 -0.879 0.419z" fill="#242424"/>
  <path d="m15.276 8.975 0.191 0.382c-0.233 0.511 -0.417 0.908 -0.764 1.337 -0.525 0.179 -0.525 0.179 -0.955 0.191v-0.573h0.955v-0.764h0.382z" fill="#254CFD"/>
  <path d="m17.95 27.497 -0.955 0.955 -0.382 -0.191 -0.573 0.191c0.191 -0.573 0.191 -0.573 0.525 -0.8 0.487 -0.176 0.871 -0.184 1.384 -0.155" fill="#FB5C2B"/>
  <path d="M5.92 27.688h0.382v0.573l0.382 0.382 -0.764 0.764v-0.382h-0.382z" fill="#8733DC"/>
  <path d="M0.191 20.814h0.191l0.028 0.495 0.043 0.639c0.013 0.211 0.027 0.421 0.04 0.638L0.573 23.105l0.382 0.191 -0.382 0.191 -0.382 0.764z" fill="#700EE7"/>
  <path d="M37.427 9.739h0.191l-0.191 1.91 -0.573 0.191c-0.143 -0.298 -0.143 -0.298 -0.191 -0.764 0.216 -0.478 0.481 -0.892 0.764 -1.337" fill="#F1EE59"/>
  <path d="m0.191 28.834 0.573 0.191c0.046 0.78 -0.11 1.37 -0.382 2.1H0.191z" fill="#7018DF"/>
  <path d="M3.437 24.824h1.337c-0.191 0.573 -0.191 0.573 -0.573 0.764l-0.573 0.191z" fill="#802DE6"/>
  <path d="M37.236 19.668c0.155 0.322 0.155 0.322 0.191 0.764 -0.465 0.525 -0.465 0.525 -0.955 0.955 0.06 -0.644 0.06 -0.644 0.191 -1.337z" fill="#FED224"/>
  <path d="M0.382 8.402h0.573q-0.033 0.424 -0.072 0.847l-0.04 0.477L0.764 10.121l-0.382 0.191z" fill="#6E43FD"/>
  <path d="M77.528 25.206h1.337l0.191 0.573h-1.528z" fill="#222222"/>
  <path d="M10.884 22.915c0 0.645 -0.167 1.114 -0.382 1.719h-0.573v-0.382l-0.382 -0.191h0.764v-0.764z" fill="#753DEA"/>
  <path d="m15.467 21.96 0.382 0.191c-0.551 0.805 -0.963 1.1 -1.91 1.337 0.883 -1.098 0.883 -1.098 1.528 -1.528" fill="#4335F4"/>
  <path d="m7.256 17.95 0.382 0.764 -0.764 0.764 -0.382 -0.764z" fill="#733BF7"/>
  <path d="m19.477 6.492 0.382 0.191v0.573l0.573 0.191 -0.191 1.146 -0.573 -0.191z" fill="#2883FE"/>
  <path d="M0.955 4.01h0.191v1.146H0.764l-0.191 1.337H0.382c-0.06 -1.004 0.064 -1.613 0.573 -2.482" fill="#5235FC"/>
  <path d="M102.161 11.457c1.175 0.112 1.175 0.112 1.528 0.191l0.191 0.382c-0.537 0.131 -0.537 0.131 -1.146 0.191 -0.358 -0.263 -0.358 -0.263 -0.573 -0.573z" fill="#1F1F20"/>
  <path d="m11.648 30.744 0.382 0.191v0.764c-0.346 0.119 -0.346 0.119 -0.764 0.191l-0.573 -0.382z" fill="#F5393C"/>
  <path d="M36.281 21.387c0 0.686 -0.127 0.785 -0.573 1.277l-0.322 0.36L35.136 23.296l-0.191 -0.573z" fill="#FECD22"/>
  <path d="m19.859 21.387 1.719 0.955c-0.382 0.191 -0.382 0.191 -0.967 0.06L20.05 22.151z" fill="#2B69F9"/>
  <path d="m31.317 15.658 0.764 0.191 0.191 0.764h-0.955l-0.191 -0.382z" fill="#2AB4D7"/>
  <path d="M139.397 21.769h0.573l0.382 1.337 -0.573 0.191z" fill="#1C1B1C"/>
  <path d="m4.774 20.623 0.191 0.573c-0.274 0.418 -0.274 0.418 -0.573 0.764l-0.382 -1.146z" fill="#7C30EE"/>
  <path d="M156.965 15.658c0.358 0.036 0.358 0.036 0.764 0.191 0.239 0.489 0.239 0.489 0.382 0.955l-0.573 0.191c-0.573 -0.907 -0.573 -0.907 -0.573 -1.337" fill="#1D1E1E"/>
  <path d="m32.271 36.854 1.337 0.191 -0.191 0.382c-0.395 0.079 -0.395 0.079 -0.871 0.119l-0.478 0.043L31.698 37.618l0.573 -0.191z" fill="#FE480C"/>
  <path d="m0.382 31.317 0.191 0.573 0.573 0.191v0.573H0.382z" fill="#6D1FDB"/>
  <path d="M24.633 20.814c0.286 0.263 0.286 0.263 0.573 0.573v0.382h-0.955v-0.764z" fill="#3497F3"/>
  <path d="m23.869 10.121 0.191 0.573 0.573 0.191c-0.663 0.221 -1.214 0.204 -1.91 0.191l0.358 -0.155C23.545 10.702 23.545 10.702 23.869 10.121" fill="#167EFC"/>
</svg>
