<svg version="1.1" xmlns="http://www.w3.org/2000/svg" width="31" height="31" viewBox="0 0 31 31"><path d="M0 0h31v31H0z" fill="#4C64F3"/><path d="M30.533 8.101h0.156q0.022 3.589 0.032 7.178 0.004 1.667 0.015 3.334 0.009 1.453 0.012 2.907 0.001 0.769 0.007 1.538c0.005 0.574 0.005 1.147 0.005 1.72l0.007 0.51c-0.009 1.633 -0.589 2.873 -1.684 4.087 -1.566 1.42 -3.029 1.697 -5.124 1.684l-0.606 0.002c-0.544 0.002 -1.088 0 -1.633 -0.002 -0.572 -0.002 -1.144 -0.001 -1.716 -0.001q-1.44 0 -2.881 -0.005a861.302 861.302 0 0 0 -3.322 -0.003q-1.604 0.001 -3.207 -0.002 -0.68 -0.001 -1.359 -0.001c-0.634 0 -1.268 -0.002 -1.901 -0.004l-0.564 0.001c-1.007 -0.006 -1.9 -0.095 -2.874 -0.355 0.116 -0.53 0.254 -0.781 0.639 -1.169l0.305 -0.308 0.331 -0.324 0.34 -0.336c0.932 -0.907 1.91 -1.72 2.953 -2.495a35.985 35.985 0 0 0 0.776 -0.603c1.465 -1.162 2.991 -2.143 4.675 -2.962A49.693 49.693 0 0 0 21.497 17.915l0.27 -0.197C23.053 16.775 24.241 15.745 25.392 14.643l0.236 -0.223C27.522 12.623 29.41 10.48 30.533 8.101" fill="#FD6E2C"/><path d="M14.497 3.885 14.955 3.894c0.333 0.727 0.65 1.457 0.935 2.204l0.156 0.406a101.256 101.256 0 0 1 0.312 0.827l0.156 0.402 0.136 0.361c0.266 0.481 0.609 0.725 1.13 0.887 1.112 0.184 2.227 0.306 3.349 0.412 0.961 0.093 0.961 0.093 1.305 0.264 0.042 0.352 0.042 0.352 0 0.779 -0.28 0.305 -0.28 0.305 -0.672 0.594l-0.428 0.321L20.874 11.683l-0.463 0.346c-1.162 0.862 -1.162 0.862 -1.602 1.052 -0.296 0.137 -0.296 0.137 -0.386 0.446 -0.142 1.152 -0.008 2.111 0.319 3.221 0.128 0.466 0.19 0.843 0.107 1.322 -0.253 0.302 -0.253 0.302 -0.623 0.467 -0.739 -0.056 -1.168 -0.271 -1.762 -0.701 -0.751 -0.491 -1.373 -0.861 -2.288 -0.701 -0.989 0.428 -1.783 1.248 -2.593 1.943 -1.545 1.322 -3.156 2.556 -4.874 3.645L6.387 22.93c-0.253 0.156 -0.516 0.298 -0.779 0.437l-0.312 -0.156 0.326 -0.252c2.227 -1.766 3.601 -3.585 4.406 -6.33l0.167 -0.54C10.55 14.921 10.55 14.921 10.593 13.709c-0.536 -0.811 -1.23 -1.293 -2.035 -1.821a882.643 882.643 0 0 1 -0.964 -0.645C6.942 10.806 6.942 10.806 6.698 10.593c-0.049 -0.409 -0.049 -0.409 0 -0.779 0.263 -0.263 0.612 -0.22 0.974 -0.257l0.512 -0.056q0.532 -0.056 1.065 -0.111C10.769 9.279 10.769 9.279 12.151 8.724c0.184 -0.435 0.184 -0.435 0.312 -0.935 0.232 -0.641 0.472 -1.279 0.711 -1.918l0.194 -0.524 0.186 -0.497 0.169 -0.454c0.204 -0.5 0.204 -0.5 0.774 -0.511" fill="#F7F8FB"/><path d="M0 0h31v31h-4.985v-0.156l0.291 -0.069c1.492 -0.395 2.55 -1.005 3.387 -2.324L29.91 28.04l0.155 -0.272c0.553 -1.075 0.556 -2.064 0.547 -3.255q0.001 -0.317 0.002 -0.634c0.002 -0.57 0 -1.14 -0.002 -1.71 -0.002 -0.599 -0.001 -1.197 0 -1.796q0 -1.508 -0.005 -3.016c-0.004 -1.159 -0.005 -2.318 -0.003 -3.478q0.002 -1.678 -0.002 -3.356 -0.001 -0.712 0 -1.424 0.001 -0.839 -0.004 -1.679c-0.001 -0.301 0 -0.603 0.001 -0.904C30.583 4.826 30.234 3.492 29.131 2.181c-1.216 -1.143 -2.467 -1.729 -4.146 -1.736l-0.528 -0.003 -0.575 -0.001 -0.609 -0.003c-0.665 -0.003 -1.33 -0.005 -1.996 -0.006l-0.689 -0.002q-1.62 -0.005 -3.24 -0.006 -1.865 -0.002 -3.729 -0.012 -1.445 -0.007 -2.889 -0.007c-0.574 0 -1.148 -0.002 -1.722 -0.006 -0.641 -0.004 -1.283 -0.004 -1.925 -0.003l-0.569 -0.006c-1.949 0.012 -3.371 0.595 -4.786 1.914 -1.324 1.372 -1.509 2.958 -1.497 4.795l-0.003 0.618c-0.003 0.555 -0.002 1.11 0 1.665 0.002 0.584 0 1.168 -0.001 1.752q-0.002 1.47 0.003 2.94c0.003 1.129 0.002 2.258 -0.001 3.387q-0.004 1.46 -0.002 2.921c0.001 0.579 0.001 1.159 -0.001 1.739 -0.002 0.647 0.001 1.293 0.004 1.94l-0.004 0.574c0.018 1.793 0.494 3.203 1.662 4.576 1.036 0.901 2.054 1.417 3.408 1.636v0.156H0z" fill="#FAFBFC"/><path d="M30.533 8.101h0.156v18.538h-0.156l-0.156 -9.658c-0.346 0.301 -0.346 0.301 -0.477 0.779 -0.436 1.071 -1.392 1.992 -2.327 2.648 0.204 -0.781 0.51 -1.208 1.071 -1.782 0.592 -0.626 1.037 -1.189 1.421 -1.957l0.156 -0.156c0.008 -0.305 0.006 -0.61 0 -0.915 -0.021 -1.877 0.079 -3.753 0.156 -5.628h-0.467l-0.156 0.623h-0.312l-0.029 0.263C29.234 11.364 28.898 11.635 28.508 11.995l0.156 0.312 -0.779 0.156v0.312h-0.312l-0.119 0.273c-0.217 0.394 -0.464 0.651 -0.787 0.963l-0.337 0.328L26.015 14.643l-0.419 0.428C25.236 15.422 25.236 15.422 24.857 15.714c-0.338 0.28 -0.588 0.542 -0.867 0.876 -0.588 0.701 -1.209 1.153 -2.01 1.594 -0.569 0.345 -1.095 0.75 -1.627 1.148C19.289 20.095 19.289 20.095 18.849 20.095l-0.156 0.935c-0.74 -0.136 -0.74 -0.136 -1.09 -0.312v0.312l-0.467 0.156 -0.312 -0.312 0.389 -0.212A39.381 39.381 0 0 0 25.392 14.643l0.236 -0.223C27.522 12.623 29.41 10.48 30.533 8.101" fill="#ECD631"/><path d="M0.156 5.608h0.156l0.156 1.558 0.312 -0.156 -0.156 1.402H0.312q0.033 0.37 0.068 0.74c0.012 0.137 0.025 0.275 0.038 0.416 0.039 0.394 0.039 0.394 0.137 0.739C0.623 10.593 0.623 10.593 0.555 10.992 0.428 11.772 0.261 12.828 0.623 13.553l-0.156 0.312c-0.011 0.39 0 0.777 0.01 1.167C0.468 15.397 0.415 15.696 0.312 16.045l0.312 0.156 -0.156 0.156c-0.016 0.385 -0.022 0.764 -0.019 1.149l-0.002 0.324c0.001 0.486 0.022 0.867 0.177 1.331l-0.068 0.331C0.434 20.11 0.455 20.714 0.467 21.342l0.312 0.156c0.039 1.136 0.039 1.136 -0.156 1.684C0.302 24.206 0.363 25.191 0.779 26.171l0.049 0.516c0.12 0.646 0.352 1.023 0.721 1.556C1.714 28.508 1.714 28.508 1.714 28.819h0.312a44.085 44.085 0 0 1 0.779 0.779c0.439 0.355 0.439 0.355 0.935 0.312v-0.312h0.312v-0.312c0.411 -0.278 0.775 -0.466 1.246 -0.623l0.156 -0.312c0.156 -0.312 0.156 -0.312 0.623 -0.467v-0.312h0.312v-0.312c0.29 -0.263 0.29 -0.263 0.672 -0.555l0.378 -0.293C7.789 26.171 7.789 26.171 8.256 26.015c0.172 -0.372 0.172 -0.372 0.312 -0.779l0.312 -0.467h0.467c0.656 -0.241 1.149 -0.501 1.587 -1.052C11.216 23.367 11.216 23.367 11.644 23.318L11.995 23.367l0.156 -0.467q0.466 -0.159 0.935 -0.312l0.312 -0.467 0.623 0.156v-0.312l1.246 -0.156c-0.573 0.473 -1.211 0.784 -1.869 1.12 -1.979 1.033 -3.726 2.304 -5.452 3.709l-0.264 0.214C5.53 28.475 5.53 28.475 3.894 30.533c-1.365 -0.366 -2.227 -1.151 -2.96 -2.337 -0.496 -0.961 -0.799 -1.793 -0.798 -2.881l-0.001 -0.527 0.002 -0.576v-0.608q0 -0.825 0.002 -1.649c0.001 -0.575 0.001 -1.149 0.001 -1.724q0.001 -1.632 0.003 -3.264 0.002 -1.858 0.003 -3.716Q0.15 9.43 0.156 5.608" fill="#6B19F3"/><path d="m14.332 22.276 0.156 0.467c-0.66 0.429 -1.286 0.811 -2.025 1.09 -0.571 0.287 -0.571 0.287 -0.935 0.779l-0.351 0.049c-0.572 0.143 -0.808 0.465 -1.207 0.886h-0.312v0.312l-0.516 0.263c-0.535 0.301 -0.738 0.604 -1.042 1.139q-0.31 0.083 -0.623 0.156a21.653 21.653 0 0 0 -0.779 0.779 41.281 41.281 0 0 1 -0.652 0.594c-0.158 0.141 -0.158 0.141 -0.318 0.285C5.452 29.286 5.452 29.286 5.141 29.286c-0.158 0.639 -0.158 0.639 0 1.246l0.28 0q3.391 -0.005 6.781 -0.008 1.64 -0.001 3.279 -0.004 1.585 -0.003 3.17 -0.003 0.602 0 1.204 -0.002c2.059 -0.004 4.107 -0.002 6.16 0.172v0.312q-4.016 0.011 -8.031 0.016 -1.865 0.002 -3.729 0.007 -1.626 0.005 -3.252 0.006 -0.86 0 -1.721 0.004c-0.641 0.003 -1.283 0.003 -1.924 0.002l-0.572 0.003c-1.014 -0.002 -1.911 -0.087 -2.891 -0.35 0.116 -0.53 0.254 -0.781 0.639 -1.169l0.305 -0.308 0.331 -0.324 0.34 -0.336c0.932 -0.907 1.91 -1.72 2.953 -2.495a35.985 35.985 0 0 0 0.776 -0.603C10.825 24.194 12.496 23.138 14.332 22.276" fill="#FA3646"/><path d="M28.975 2.181c0.623 0.231 0.816 0.561 1.12 1.139l0.24 0.446c0.589 1.31 0.714 3.341 0.223 4.695 -0.384 0.775 -0.891 1.456 -1.427 2.131l-0.366 0.48c-0.334 0.422 -0.68 0.829 -1.036 1.233l-0.322 0.374A48.915 48.915 0 0 1 26.327 13.864l-0.232 0.248C23.928 16.41 20.788 19.397 17.759 20.407v-0.467h0.312v-0.312l0.467 -0.156 0.14 -0.309C18.849 18.849 18.849 18.849 19.186 18.72l0.383 -0.066 0.386 -0.071L20.251 18.538v-0.623l-0.312 -0.156v-0.312h0.779l0.156 -0.312v0.312h0.467l0.156 -0.312c0.271 -0.195 0.271 -0.195 0.604 -0.399l0.33 -0.205C22.744 16.357 22.744 16.357 23.211 16.201v-0.312h0.312v-0.623c0.568 -0.602 1.059 -0.715 1.869 -0.779v-0.312c0.67 -0.743 0.67 -0.743 1.246 -0.935v-0.467h0.312l0.136 -0.438C27.261 11.839 27.261 11.839 27.573 11.372h0.312l0.136 -0.292C28.196 10.749 28.196 10.749 28.508 10.437c0.11 -0.257 0.215 -0.517 0.312 -0.779h0.312l0.156 -0.312 0.467 -0.156 -0.312 -0.156v-0.467h0.623l-0.01 -0.458C30.065 7.633 30.065 7.633 30.221 7.477c0.036 -0.314 0.064 -0.629 0.088 -0.944l0.039 -0.522L30.377 5.608l-0.312 -0.156 0.156 -0.623 -0.312 -0.156 -0.058 -0.409c-0.121 -0.655 -0.377 -1.047 -0.72 -1.616z" fill="#2CB6CB"/><path d="M0 5.608h0.156l0.001 0.316q0.009 3.819 0.028 7.638c0.006 1.231 0.011 2.463 0.014 3.694q0.003 1.611 0.013 3.221c0.003 0.568 0.006 1.136 0.006 1.704 0 0.636 0.005 1.271 0.01 1.907l-0.002 0.564c0.022 1.782 0.504 3.191 1.665 4.556 1.036 0.901 2.054 1.417 3.408 1.636v0.156H0z" fill="#F1EAF9"/><path d="M30.688 7.789h0.156q0.031 3.435 0.061 6.871 0.014 1.596 0.028 3.192c0.039 4.383 0.078 8.765 0.067 13.148h-4.985v-0.156l0.291 -0.069c1.492 -0.395 2.55 -1.005 3.387 -2.324L29.91 28.04l0.154 -0.28c0.509 -1.01 0.559 -1.893 0.554 -3.011l0.005 -0.558c0.005 -0.604 0.005 -1.209 0.005 -1.813q0.003 -0.631 0.008 -1.262c0.006 -0.991 0.01 -1.983 0.012 -2.974 0.002 -1.129 0.009 -2.259 0.015 -3.389 0.013 -2.322 0.021 -4.643 0.027 -6.965" fill="#FDF5EB"/><path d="M14.176 3.427c0.428 0.019 0.428 0.019 0.935 0.156 0.52 0.605 0.673 1.092 0.779 1.869l0.312 0.312c0.312 0.467 0.312 0.467 0.312 1.09 0.047 0.26 0.098 0.52 0.156 0.779h0.312l0.156 0.935 0.399 -0.019C18.07 8.568 18.07 8.568 18.606 8.724c0.578 0.162 1.049 0.167 1.645 0.156l0.294 0.074c0.506 0.126 1.018 0.134 1.538 0.164C22.432 9.191 22.432 9.191 22.744 9.658c0.068 0.458 0.068 0.458 0 0.935 -0.312 0.312 -0.312 0.312 -0.779 0.623a66.518 66.518 0 0 0 -0.662 0.487l-0.324 0.235c-0.28 0.2 -0.28 0.2 -0.416 0.525l-0.467 0.156 -0.156 0.312 -0.37 0.214c-0.432 0.267 -0.649 0.423 -0.876 0.876 0.027 0.542 0.027 0.542 0.156 1.09l0.078 0.428c0.077 0.374 0.077 0.374 0.234 0.818 0 0.467 0 0.467 -0.156 0.935l0.312 0.156 -0.156 0.312a15.578 15.578 0 0 0 0 0.779h-0.312l-0.312 0.467 -1.869 -0.623v-0.312l-0.351 -0.136C15.889 17.759 15.889 17.759 15.607 17.593c-0.517 -0.222 -1.029 -0.246 -1.587 -0.302l0.156 -0.312c1.232 0 1.963 0.459 2.942 1.15 0.568 0.295 0.816 0.278 1.42 0.096l0.156 -0.156c-0.018 -0.722 -0.112 -1.413 -0.321 -2.103 -0.21 -0.782 -0.298 -1.631 -0.046 -2.415 0.303 -0.446 0.707 -0.735 1.136 -1.051 0.089 -0.068 0.179 -0.136 0.271 -0.205 0.44 -0.331 0.885 -0.651 1.339 -0.964l0.464 -0.321 0.421 -0.281c0.385 -0.355 0.396 -0.569 0.475 -1.073l-0.383 -0.036c-0.577 -0.055 -1.153 -0.112 -1.729 -0.169l-0.603 -0.056c-2.35 -0.238 -2.35 -0.238 -3.07 -1.051 -0.45 -0.776 -0.726 -1.647 -1.03 -2.486l-0.194 -0.528Q15.187 4.693 14.955 4.05l-1.09 -0.156z" fill="#1F8BFC"/><path d="M10.749 0.312q2.915 -0.017 5.83 -0.024a849.774 849.774 0 0 0 2.707 -0.011q1.307 -0.007 2.615 -0.009 0.498 -0.001 0.995 -0.005c0.466 -0.003 0.933 -0.004 1.399 -0.004l0.411 -0.005c1.308 0.006 2.514 0.29 3.577 1.08l0.39 0.283C28.975 1.869 28.975 1.869 29.131 2.181l-0.312 0.467 -0.156 -0.779 -0.36 -0.049C27.884 1.714 27.884 1.714 27.662 1.49c-0.695 -0.691 -1.747 -0.741 -2.676 -0.762q-0.556 0.002 -1.112 0.012l-0.569 0.002c-0.964 -0.002 -0.964 -0.002 -1.915 0.126C21.03 0.935 21.03 0.935 20.563 0.779a23.834 23.834 0 0 0 -1.017 -0.015l-0.607 0.002 -0.635 0.004q-0.317 0.001 -0.635 0.002 -0.582 0.002 -1.164 0.005Q16.041 0.779 15.578 0.779q-0.314 0.005 -0.627 0.011C13.517 0.808 12.156 0.782 10.749 0.467z" fill="#1485FE"/><path d="M15.266 21.809c-0.573 0.473 -1.211 0.784 -1.869 1.12 -1.979 1.033 -3.726 2.304 -5.452 3.709l-0.264 0.214C5.53 28.475 5.53 28.475 3.894 30.533c-0.82 -0.22 -1.359 -0.584 -2.025 -1.09 0.287 -0.097 0.287 -0.097 0.623 -0.156a18.226 18.226 0 0 1 0.779 0.623h0.467v-0.312h0.312v-0.312c0.411 -0.278 0.775 -0.466 1.246 -0.623l0.156 -0.312c0.156 -0.312 0.156 -0.312 0.623 -0.467v-0.312h0.312v-0.312c0.29 -0.263 0.29 -0.263 0.672 -0.555l0.378 -0.293C7.789 26.171 7.789 26.171 8.256 26.015c0.172 -0.372 0.172 -0.372 0.312 -0.779l0.312 -0.467h0.467c0.656 -0.241 1.149 -0.501 1.587 -1.052C11.216 23.367 11.216 23.367 11.644 23.318L11.995 23.367l0.156 -0.467q0.466 -0.159 0.935 -0.312l0.312 -0.467 0.623 0.156v-0.312c0.456 -0.152 0.772 -0.169 1.246 -0.156" fill="#6C25D0"/><path d="m6.263 0.291 0.376 0q0.394 0 0.787 0.001 0.597 0.001 1.195 -0.001 0.384 0 0.767 0.001l0.357 -0.001C10.507 0.293 11.24 0.36 11.995 0.467v0.156l-0.622 0.007c-0.761 0.009 -1.521 0.021 -2.281 0.034q-0.494 0.008 -0.988 0.013c-0.473 0.005 -0.946 0.013 -1.419 0.022l-0.447 0.003 -0.416 0.009 -0.366 0.005C5.064 0.794 4.939 0.956 4.673 1.246c-0.434 0.016 -0.816 -0.078 -1.246 -0.156l-0.107 0.273C3.061 1.807 2.755 2.044 2.337 2.337h-0.312v0.312l-0.467 0.156c-0.192 0.547 -0.192 0.547 -0.312 1.09H0.935v0.312H0.623l0.097 0.419C0.783 5.176 0.711 5.431 0.467 5.92l-0.312 -0.312c0.025 -1.403 0.624 -2.525 1.568 -3.544C3.037 0.821 4.49 0.286 6.263 0.291" fill="#3449FD"/><path d="m9.191 18.226 0.312 0.156c-0.208 0.766 -0.552 1.325 -1.042 1.938l-0.211 0.269C7.421 21.628 6.557 22.467 5.452 23.211c1.691 -0.849 3.207 -1.924 4.673 -3.116l0.312 0.156c-0.23 0.607 -0.535 0.78 -1.09 1.09l-0.349 0.282c-0.483 0.383 -0.983 0.719 -1.501 1.052l-0.277 0.182C6.458 23.349 5.692 23.702 4.829 23.99l-0.312 -0.156c0.224 -0.524 0.506 -0.871 0.935 -1.246h0.312l0.156 -0.312 0.302 -0.136c0.387 -0.211 0.472 -0.397 0.633 -0.798h0.312v-0.312a40.503 40.503 0 0 1 0.545 -0.537C8.345 19.837 8.916 19.105 9.191 18.226" fill="#7B2DDD"/><path d="M30.377 11.372h0.156c0.161 3.508 0.169 7.014 0.166 10.525l0 0.354q-0.003 2.194 -0.009 4.388h-0.156l-0.156 -9.658c-0.346 0.301 -0.346 0.301 -0.477 0.779 -0.436 1.071 -1.392 1.992 -2.327 2.648 0.204 -0.781 0.51 -1.208 1.071 -1.782 0.592 -0.626 1.037 -1.189 1.421 -1.957l0.156 -0.156c0.008 -0.334 0.006 -0.669 0 -1.003 -0.015 -1.383 0.067 -2.758 0.156 -4.138" fill="#FEB12D"/><path d="m25.08 14.955 0.467 0.156 -0.206 0.166c-0.501 0.415 -0.956 0.832 -1.372 1.333 -0.579 0.695 -1.199 1.138 -1.991 1.574 -0.569 0.345 -1.095 0.75 -1.627 1.148C19.289 20.095 19.289 20.095 18.849 20.095l-0.156 0.935c-0.74 -0.136 -0.74 -0.136 -1.09 -0.312v0.312l-0.467 0.156 -0.312 -0.312 0.389 -0.212C20.057 19.088 22.706 17.174 25.08 14.955" fill="#F0BB32"/><path d="M23.055 16.824c-1.053 0.935 -2.17 1.726 -3.349 2.492l-0.417 0.272c-0.999 0.642 -0.999 0.642 -1.53 0.819v-0.467h0.312v-0.312l0.467 -0.156 0.14 -0.309C18.849 18.849 18.849 18.849 19.186 18.72l0.383 -0.066 0.386 -0.071L20.251 18.538v-0.623l-0.312 -0.156v-0.312h0.779l0.156 -0.312v0.312h0.467l0.156 -0.312c0.592 -0.355 0.897 -0.525 1.558 -0.312" fill="#3497E3"/><path d="m6.698 9.503 0.467 0.156 -0.312 0.156c-0.098 0.353 -0.098 0.353 0 0.779 0.349 0.339 0.757 0.581 1.168 0.837q0.344 0.225 0.687 0.451l0.334 0.219C10.409 13.028 10.409 13.028 10.749 13.709c-0.017 1.103 -0.287 2.08 -0.613 3.125l-0.125 0.405 -0.123 0.379 -0.111 0.343C9.658 18.226 9.658 18.226 9.347 18.382c-0.049 -0.665 0.053 -1.095 0.332 -1.695C10.1 15.661 10.494 14.478 10.126 13.397c-0.364 -0.304 -0.364 -0.304 -0.779 -0.467l-0.312 -0.156v-0.312h-0.467c-0.214 -0.195 -0.214 -0.195 -0.467 -0.467 -0.538 -0.465 -1.069 -0.791 -1.714 -1.09 -0.019 -0.526 -0.019 -0.526 0 -1.09z" fill="#553EF8"/><path d="m14.332 22.276 0.156 0.467c-0.66 0.429 -1.286 0.811 -2.025 1.09 -0.571 0.287 -0.571 0.287 -0.935 0.779l-0.351 0.049c-0.572 0.143 -0.808 0.465 -1.207 0.886h-0.312v0.312l-0.516 0.263c-0.535 0.301 -0.738 0.604 -1.042 1.139 -0.292 0.097 -0.292 0.097 -0.623 0.156 -0.263 0.15 -0.524 0.304 -0.779 0.467 0.242 -0.628 0.683 -0.993 1.188 -1.412l0.268 -0.224C9.735 24.953 11.426 23.837 13.241 22.899a91.598 91.598 0 0 0 1.09 -0.623" fill="#F64135"/><path d="M14.176 3.427c0.428 0.019 0.428 0.019 0.935 0.156 0.52 0.605 0.673 1.092 0.779 1.869l0.312 0.312c0.312 0.467 0.312 0.467 0.312 1.09 0.047 0.26 0.098 0.52 0.156 0.779h0.312l0.156 0.935 0.37 -0.029c0.752 0.039 1.412 0.26 2.122 0.496v0.156c-1.002 0.055 -1.774 0.057 -2.648 -0.467 -0.685 -0.846 -0.996 -1.848 -1.363 -2.862l-0.194 -0.528Q15.187 4.693 14.955 4.05l-1.09 -0.156z" fill="#1C74FD"/><path d="m0.467 21.342 0.312 0.156c0.039 1.136 0.039 1.136 -0.156 1.684C0.302 24.206 0.363 25.191 0.779 26.171l0.049 0.516c0.12 0.646 0.352 1.023 0.721 1.556C1.714 28.508 1.714 28.508 1.714 28.819h0.312l0.156 0.467c-0.855 -0.336 -1.221 -0.998 -1.587 -1.801 -0.36 -0.829 -0.457 -1.488 -0.453 -2.398 0 -0.103 0 -0.206 0.001 -0.312 0.001 -0.327 0.003 -0.654 0.005 -0.981q0.001 -0.333 0.002 -0.667Q0.151 22.313 0.156 21.497z" fill="#6A0DDF"/><path d="M10.749 0.312h7.945c-0.438 0.438 -0.882 0.382 -1.47 0.409l-0.322 0.018C16.46 0.763 16.02 0.779 15.578 0.779q-0.314 0.005 -0.627 0.011C13.517 0.808 12.156 0.782 10.749 0.467z" fill="#1661FE"/><path d="M28.975 2.181c0.623 0.231 0.816 0.561 1.12 1.139l0.24 0.446c0.409 0.91 0.392 1.814 0.402 2.796l0.014 0.428c0.01 1.035 0.01 1.035 -0.377 1.44L30.065 8.568c-0.007 -0.312 -0.006 -0.623 0 -0.935l0.156 -0.156c0.036 -0.314 0.064 -0.629 0.088 -0.944l0.039 -0.522L30.377 5.608l-0.312 -0.156 0.156 -0.623 -0.312 -0.156 -0.058 -0.409c-0.121 -0.655 -0.377 -1.047 -0.72 -1.616z" fill="#34B8E3"/><path d="M26.327 13.553c-0.253 0.641 -0.715 1.074 -1.197 1.548 -0.084 0.083 -0.168 0.166 -0.254 0.251C23.366 16.824 23.366 16.824 22.588 16.824l0.312 -0.623h0.312v-0.312h0.312v-0.623c0.568 -0.602 1.059 -0.715 1.869 -0.779v-0.312c0.55 -0.623 0.55 -0.623 0.935 -0.623" fill="#30A8D7"/><path d="M30.533 8.101h0.156v8.412h-0.156l-0.156 -6.543h-0.467c-0.149 -0.398 -0.184 -0.561 -0.006 -0.956l0.22 -0.329 0.218 -0.333z" fill="#FDDF4C"/><path d="m10.126 20.095 0.312 0.156c-0.23 0.607 -0.535 0.78 -1.09 1.09l-0.35 0.282C7.781 22.591 6.499 23.443 4.985 23.834c0.525 -0.585 1.114 -0.946 1.782 -1.344 1.185 -0.721 2.279 -1.526 3.359 -2.395" fill="#6E23DC"/><path d="M15.266 21.809c-0.576 0.475 -1.219 0.79 -1.879 1.129C12.313 23.497 11.287 24.093 10.281 24.769l-0.312 -0.312 0.273 -0.107c0.384 -0.193 0.384 -0.193 0.652 -0.613C11.216 23.367 11.216 23.367 11.644 23.318L11.995 23.367l0.156 -0.467q0.466 -0.159 0.935 -0.312l0.312 -0.467 0.623 0.156v-0.312c0.456 -0.152 0.772 -0.169 1.246 -0.156" fill="#6239D5"/><path d="m6.543 27.573 0.156 0.623a99.698 99.698 0 0 1 -0.604 0.545l-0.34 0.307C5.452 29.286 5.452 29.286 5.141 29.286c-0.16 0.706 -0.184 0.879 0.156 1.558l-1.402 -0.156c0.162 -0.649 0.259 -0.783 0.716 -1.229l0.339 -0.335 0.356 -0.344 0.358 -0.352Q6.102 27.999 6.543 27.573" fill="#F42548"/><path d="m20.563 18.538 0.467 0.312a109.668 109.668 0 0 1 -0.74 0.536l-0.416 0.301c-0.359 0.227 -0.611 0.341 -1.025 0.41l-0.156 0.935c-0.74 -0.136 -0.74 -0.136 -1.09 -0.312v0.312l-0.467 0.156 -0.312 -0.312 0.422 -0.234c1.151 -0.644 2.253 -1.319 3.317 -2.102" fill="#F58E31"/><path d="M19.161 8.879c1.013 -0.019 1.013 -0.019 1.389 0.075 0.504 0.126 1.016 0.133 1.533 0.162C22.432 9.191 22.432 9.191 22.744 9.658c0.068 0.458 0.068 0.458 0 0.935 -0.459 0.459 -0.995 0.769 -1.558 1.09v-0.467c0.264 -0.214 0.545 -0.375 0.837 -0.549 0.341 -0.263 0.341 -0.263 0.41 -1.009l-3.271 -0.312z" fill="#1B95F8"/><path d="M14.176 16.98c1.232 0 1.963 0.459 2.942 1.15 0.47 0.294 0.47 0.294 1 0.237 0.456 -0.1 0.456 -0.1 0.633 -0.54L18.849 17.447c0.312 0.312 0.312 0.312 0.331 0.72L19.161 18.538h-0.312l-0.312 0.467 -1.869 -0.623v-0.312l-0.351 -0.136C15.889 17.759 15.889 17.759 15.607 17.593c-0.517 -0.222 -1.029 -0.246 -1.587 -0.302z" fill="#2F66F9"/><path d="M30.377 16.668h0.156v9.97h-0.312l0.156 -9.191 -0.467 0.156z" fill="#FE830D"/><path d="m5.452 28.04 0.467 0.312 -0.403 0.398 -0.521 0.517 -0.266 0.262c-0.475 0.457 -0.475 0.457 -0.834 1.003 -0.82 -0.22 -1.359 -0.584 -2.025 -1.09 0.287 -0.097 0.287 -0.097 0.623 -0.156a18.226 18.226 0 0 1 0.779 0.623h0.467v-0.312h0.312v-0.312c0.411 -0.278 0.775 -0.466 1.246 -0.623 0.114 -0.314 0.114 -0.314 0.156 -0.623" fill="#7121CA"/><path d="m27.573 19.784 0.312 0.156c-0.471 0.806 -1.007 1.29 -1.762 1.83 -0.1 0.075 -0.199 0.15 -0.302 0.227 -0.648 0.471 -1.204 0.728 -1.986 0.902v-0.312l0.779 -0.156v-0.312h0.467v-0.312l0.448 -0.117c0.555 -0.222 0.567 -0.306 0.798 -0.818l0.623 -0.156c0.182 -0.299 0.182 -0.299 0.312 -0.623z" fill="#FE961C"/><path d="M0.156 5.608h0.156l0.156 1.558 0.312 -0.156 -0.156 1.402H0.312q0.033 0.37 0.068 0.74c0.012 0.137 0.025 0.275 0.038 0.416 0.038 0.393 0.038 0.393 0.142 0.728C0.665 10.791 0.465 11.213 0.312 11.683H0.156z" fill="#5217FC"/><path d="M24.613 0.312c1.732 -0.096 3.034 0.444 4.362 1.558l0.156 0.312 -0.312 0.467 -0.156 -0.779 -0.36 -0.049C27.884 1.714 27.884 1.714 27.665 1.489 26.911 0.75 25.609 0.702 24.613 0.623z" fill="#179EFA"/><path d="M1.714 2.181c0 0.608 -0.205 1.013 -0.467 1.558l-0.312 0.156v0.312H0.623l0.097 0.419C0.783 5.176 0.711 5.431 0.467 5.92l-0.312 -0.312c0.022 -1.221 0.488 -2.297 1.295 -3.213z" fill="#5141FC"/><path d="M20.407 18.538v0.312c-0.229 0.178 -0.229 0.178 -0.545 0.371l-0.341 0.21 -0.36 0.217 -0.36 0.221Q18.359 20.139 17.915 20.407l-0.312 -0.312 0.467 -0.156v-0.312l0.467 -0.156 0.117 -0.302C18.849 18.849 18.849 18.849 19.385 18.655 19.94 18.538 19.94 18.538 20.407 18.538" fill="#3C7DE6"/><path d="M18.226 13.864c0.329 0.423 0.527 0.717 0.623 1.246 0.084 0.432 0.172 0.828 0.312 1.246 0 0.467 0 0.467 -0.156 0.935l0.312 0.156h-0.467c-0.428 -1.218 -0.728 -2.287 -0.623 -3.583" fill="#409AFC"/><path d="m13.709 3.894 0.312 0.156c-0.173 0.491 -0.349 0.98 -0.526 1.47l-0.15 0.424 -0.146 0.403 -0.134 0.373C12.93 7.01 12.93 7.01 12.618 7.166q0.033 -0.38 0.068 -0.759c0.012 -0.141 0.025 -0.282 0.038 -0.427C12.774 5.608 12.774 5.608 12.93 5.296h0.312v-0.935h0.312z" fill="#3465FD"/><path d="m14.332 22.276 0.156 0.467c-0.913 0.594 -1.717 1.06 -2.804 1.246 0.495 -0.554 1.018 -0.866 1.675 -1.207l0.284 -0.149A105.307 105.307 0 0 1 14.332 22.276" fill="#F55632"/><path d="m12.774 17.915 0.312 0.156 -0.438 0.341c-0.346 0.284 -0.516 0.472 -0.75 0.866C11.683 19.628 11.683 19.628 11.372 19.726L11.06 19.784c-0.269 0.23 -0.269 0.23 -0.467 0.467l-0.312 -0.312q0.491 -0.419 0.983 -0.837l0.281 -0.24 0.272 -0.231 0.25 -0.213C12.293 18.237 12.533 18.075 12.774 17.915m-2.492 2.337v0.467l-0.312 -0.156z" fill="#563DF0"/><path d="M17.136 21.03v0.312l0.312 0.156c-0.584 0.175 -0.584 0.175 -0.935 0v0.467c-0.72 0.331 -0.72 0.331 -1.246 0.156 0.156 -0.467 0.156 -0.467 0.427 -0.649l0.332 -0.159 0.33 -0.162C16.668 21.03 16.668 21.03 17.136 21.03" fill="#F77730"/><path d="m9.191 18.226 0.312 0.156c-0.217 0.82 -0.587 1.359 -1.11 2.006l-0.221 0.28Q7.904 21.006 7.633 21.342l-0.156 -0.467a10.749 10.749 0 0 1 0.672 -0.915C8.599 19.395 8.961 18.913 9.191 18.226" fill="#733AE8"/><path d="M28.975 2.181c0.627 0.231 0.822 0.57 1.129 1.149l0.246 0.451C30.533 4.206 30.533 4.206 30.533 4.829l-0.623 -0.156 -0.039 -0.399c-0.142 -0.65 -0.397 -1.058 -0.74 -1.626z" fill="#32B3F4"/><path d="m9.035 25.548 0.156 0.467 -0.715 0.563c-0.262 0.225 -0.262 0.225 -0.375 0.683a10.749 10.749 0 0 1 -0.623 0.156c-0.263 0.15 -0.524 0.304 -0.779 0.467 0.248 -0.696 0.79 -1.068 1.344 -1.519l0.289 -0.239A136.151 136.151 0 0 1 9.035 25.548" fill="#F5313B"/><path d="M10.281 14.955h0.156c-0.077 1.15 -0.322 2.209 -0.779 3.271l-0.312 0.156c-0.049 -0.667 0.048 -1.118 0.332 -1.722C9.925 16.108 10.098 15.53 10.281 14.955" fill="#5F38F4"/><path d="M29.754 9.503h0.156l-0.156 1.09h-0.312l-0.039 0.282c-0.152 0.442 -0.336 0.582 -0.74 0.808l-0.467 -0.156 0.262 -0.324 0.342 -0.425 0.34 -0.422c0.315 -0.392 0.315 -0.392 0.615 -0.854" fill="#EEE23A"/><path d="M15.889 0.312c0.293 -0.053 0.293 -0.053 0.644 -0.046l0.38 0.005 0.397 0.012 0.401 0.007c0.327 0.005 0.654 0.014 0.982 0.023 -0.438 0.438 -0.882 0.382 -1.47 0.409l-0.322 0.018C16.46 0.763 16.02 0.779 15.578 0.779z" fill="#1273FE"/><path d="M0.156 16.824h0.156l0.029 0.393 0.039 0.513 0.038 0.509C0.452 18.703 0.452 18.703 0.623 19.161l-0.068 0.331C0.434 20.11 0.455 20.714 0.467 21.342l-0.312 0.156z" fill="#7314E8"/><path d="m20.563 18.538 0.467 0.312a109.668 109.668 0 0 1 -0.74 0.536l-0.416 0.301c-0.359 0.227 -0.611 0.341 -1.025 0.41l-0.156 -0.312z" fill="#EE9E31"/><path d="M30.533 8.101h0.156v3.116h-0.156l-0.012 -0.33 -0.027 -0.43 -0.022 -0.427c-0.057 -0.398 -0.057 -0.398 -0.414 -0.577L29.754 9.347a126.025 126.025 0 0 1 0.38 -0.623l0.213 -0.351z" fill="#F1EB67"/><path d="m9.035 8.724 0.265 0.155c0.4 0.175 0.664 0.189 1.098 0.176l0.377 -0.009L11.06 9.035c-0.642 0.642 -1.706 0.476 -2.561 0.477A197.216 197.216 0 0 1 7.477 9.503v-0.156l1.402 -0.156z" fill="#3B3BFB"/><path d="M6.231 0.312v0.467l-0.516 -0.029c-0.64 0.032 -0.639 0.075 -1.042 0.496 -0.419 -0.049 -0.419 -0.049 -0.779 -0.156 0.376 -0.582 0.376 -0.582 0.73 -0.74C5.162 0.292 5.691 0.303 6.231 0.312" fill="#4753FB"/><path d="M30.221 8.412c0 0.599 -0.203 0.844 -0.526 1.344l-0.296 0.464C29.131 10.593 29.131 10.593 28.819 10.749c0.115 -0.599 0.341 -1.275 0.779 -1.714l-0.156 -0.467z" fill="#35BBC7"/><path d="m6.698 9.503 0.467 0.156 -0.312 0.156c-0.059 0.368 -0.059 0.368 0 0.779 0.304 0.297 0.304 0.297 0.701 0.516l0.394 0.241L8.256 11.528c-0.467 0.156 -0.467 0.156 -0.82 0.001l-0.378 -0.225 -0.382 -0.223L6.387 10.905c-0.019 -0.526 -0.019 -0.526 0 -1.09z" fill="#5331F9"/><path d="M19.161 8.879c0.601 -0.012 1.137 -0.017 1.714 0.156 0.259 0.053 0.519 0.105 0.779 0.156l-0.156 0.312 -2.337 -0.156z" fill="#2990FC"/><path d="m7.166 21.653 0.156 0.312 0.312 0.156a140.357 140.357 0 0 1 -0.993 0.633l-0.285 0.184c-0.243 0.153 -0.495 0.292 -0.747 0.429l-0.312 -0.156 0.369 -0.301 0.478 -0.39 0.477 -0.389c0.28 -0.23 0.28 -0.23 0.546 -0.478" fill="#E0CEF4"/><path d="m25.08 14.955 0.467 0.156 -0.211 0.177c-0.579 0.49 -1.13 0.992 -1.658 1.536l-0.467 -0.156z" fill="#F2C62F"/><path d="m23.659 0.302 0.544 0.004L24.613 0.312v0.312c-1.025 0.149 -1.934 0.139 -2.96 0V0.467c0.678 -0.131 1.315 -0.173 2.006 -0.165" fill="#0B90FD"/><path d="M4.206 29.91c0.37 0.117 0.37 0.117 0.779 0.312l0.312 0.623 -1.402 -0.156c0.156 -0.623 0.156 -0.623 0.312 -0.779" fill="#F1295B"/><path d="M26.015 21.497c-0.234 0.701 -0.765 0.917 -1.402 1.246 -0.467 0.127 -0.467 0.127 -0.779 0.156v-0.312l0.779 -0.156v-0.312h0.467v-0.312c0.584 -0.312 0.584 -0.312 0.935 -0.312" fill="#FE811C"/><path d="M1.869 29.286c0.45 0.063 0.728 0.116 1.09 0.399 0.388 0.279 0.624 0.263 1.09 0.224l-0.156 0.623c-0.82 -0.22 -1.364 -0.575 -2.025 -1.09z" fill="#7B33CB"/><path d="M0.623 27.106c0.653 0.436 0.847 0.982 1.09 1.714h0.312l0.156 0.467c-0.708 -0.278 -1.064 -0.78 -1.441 -1.421C0.623 27.573 0.623 27.573 0.623 27.106" fill="#6B1FD3"/><path d="m10.126 20.095 0.312 0.156c-0.306 0.806 -0.976 1.047 -1.714 1.402 0.058 -0.425 0.123 -0.593 0.444 -0.888l0.345 -0.241 0.346 -0.246z" fill="#662FE4"/><path d="m0.156 25.392 0.467 0.156c0.2 1.157 0.2 1.157 0 1.714 -0.315 -0.473 -0.362 -0.653 -0.409 -1.197l-0.035 -0.382z" fill="#7124DD"/><path d="M15.266 21.809c-0.683 0.537 -1.138 0.828 -2.025 0.779l0.156 -0.467 0.623 0.156v-0.312c0.456 -0.152 0.772 -0.169 1.246 -0.156" fill="#5551DB"/><path d="M18.849 17.447c0.312 0.312 0.312 0.312 0.331 0.72L19.161 18.538h-0.312l-0.312 0.467 -0.779 -0.156 0.467 -0.156v-0.312l0.467 -0.312c0.113 -0.321 0.113 -0.321 0.156 -0.623" fill="#2D82F7"/><path d="M0.467 3.894c0.299 0.44 0.31 0.643 0.273 1.188C0.623 5.608 0.623 5.608 0.312 5.92c-0.188 -0.77 -0.098 -1.279 0.156 -2.025" fill="#6647FC"/><path d="M27.261 0.779a53.588 53.588 0 0 1 0.672 0.351l0.378 0.197c0.373 0.245 0.576 0.484 0.82 0.854l-0.312 0.467 -0.156 -0.779 -0.351 -0.039c-0.513 -0.14 -0.718 -0.332 -1.052 -0.74z" fill="#23A9F8"/><path d="m0.467 21.342 0.312 0.156c0.045 1.335 0.045 1.335 -0.312 1.869H0.312q-0.006 -0.463 -0.01 -0.925l-0.006 -0.52C0.312 21.497 0.312 21.497 0.467 21.342" fill="#8430E7"/><path d="M9.035 9.191c-0.297 0.297 -0.519 0.457 -0.942 0.498 -0.309 -0.002 -0.618 -0.016 -0.927 -0.031l-0.156 -0.467q0.331 -0.046 0.662 -0.088l0.372 -0.049c0.368 -0.019 0.64 0.029 0.991 0.137" fill="#6357FB"/><path d="M10.593 8.568h1.402c-0.312 0.467 -0.312 0.467 -0.604 0.584 -0.361 0.043 -0.61 -0.006 -0.954 -0.117z" fill="#3D5AFE"/><path d="M20.407 18.538v0.312l-1.09 0.623 -0.156 -0.623c0.453 -0.196 0.747 -0.312 1.246 -0.312" fill="#3988E3"/><path d="M30.377 16.668h0.156v2.648h-0.156v-1.869l-0.467 0.156z" fill="#FE9B0F"/><path d="m29.754 27.417 0.467 0.156a31.312 31.312 0 0 1 -0.273 0.604l-0.153 0.34c-0.231 0.355 -0.432 0.459 -0.82 0.615l0.17 -0.296 0.219 -0.386 0.219 -0.383c0.194 -0.321 0.194 -0.321 0.17 -0.649" fill="#FE711C"/><path d="M0.156 9.97h0.312c0.249 0.623 0.046 1.098 -0.156 1.714H0.156z" fill="#6722F9"/><path d="M10.437 13.709h0.312l-0.156 1.558 -0.312 -0.312c0.005 -0.425 0.088 -0.825 0.156 -1.246" fill="#6A54F9"/><path d="m4.362 0.467 0.623 0.156 -0.312 0.623 -0.779 -0.156z" fill="#5659FD"/><path d="m21.809 17.915 0.312 0.156c-0.438 0.321 -0.438 0.321 -0.935 0.623l-0.467 -0.156c0.372 -0.295 0.634 -0.471 1.09 -0.623" fill="#F9AF2D"/><path d="m20.719 17.136 0.156 0.312h0.467l0.156 -0.312 0.156 0.467h-0.467l-0.156 0.467 -0.156 -0.312h-0.312z" fill="#359FEE"/><path d="M30.377 7.322h0.156c0.029 0.448 0.029 0.448 0 0.935l-0.467 0.312c-0.019 -0.448 -0.019 -0.448 0 -0.935z" fill="#20B7DA"/><path d="M0.623 7.01c0.173 0.518 0.132 0.876 0 1.402H0.312c-0.039 -0.876 -0.039 -0.876 0.312 -1.402" fill="#6E44FE"/></svg>