<svg version="1.1" xmlns="http://www.w3.org/2000/svg" width="31" height="31" viewBox="0 0 31 31"><path d="m7.491 0.133 0.573 -0.002q0.775 -0.002 1.551 -0.002Q10.1 0.129 10.586 0.129 12.282 0.127 13.979 0.127q1.576 0 3.153 -0.004Q18.489 0.12 19.847 0.12q0.809 0 1.618 -0.002c0.603 -0.002 1.205 -0.001 1.808 0 0.176 -0.001 0.353 -0.002 0.535 -0.003 2.015 0.008 3.862 0.381 5.387 1.788 1.416 1.586 1.721 3.384 1.711 5.443l0.002 0.604c0.002 0.542 0.001 1.085 0 1.627 -0.001 0.571 0 1.141 0.001 1.712 0.001 0.958 0 1.917 -0.002 2.875 -0.002 1.103 -0.002 2.207 0.001 3.31q0.003 1.428 0.001 2.855 -0.001 0.85 0.001 1.7c0.002 0.632 -0.001 1.265 -0.003 1.898l0.003 0.559c-0.015 1.945 -0.352 3.633 -1.725 5.074 -1.044 0.955 -2.179 1.458 -3.591 1.465l-0.551 0.004 -0.602 0.002 -0.636 0.004c-0.696 0.004 -1.391 0.006 -2.087 0.009l-0.72 0.003q-1.499 0.005 -2.999 0.008 -2.143 0.004 -4.287 0.017 -1.51 0.009 -3.02 0.01c-0.6 0.001 -1.2 0.002 -1.8 0.007q-0.848 0.007 -1.697 0.004c-0.304 0 -0.607 0.004 -0.911 0.008 -1.882 -0.013 -3.34 -0.585 -4.695 -1.896C0.165 27.607 -0.047 26.04 -0.048 23.973l-0.004 -0.613c-0.003 -0.552 -0.005 -1.104 -0.005 -1.656q-0.001 -0.519 -0.003 -1.037 -0.006 -1.814 -0.007 -3.628A634.487 634.487 0 0 0 -0.078 13.671q-0.008 -1.451 -0.008 -2.903c0 -0.576 -0.002 -1.152 -0.006 -1.729 -0.005 -0.644 -0.003 -1.288 -0.002 -1.931l-0.007 -0.57C-0.085 4.769 0.484 3.169 1.714 1.869 3.34 0.329 5.353 0.132 7.491 0.133M14.176 3.894c-0.588 0.867 -0.886 1.865 -1.239 2.843 -0.699 1.892 -0.699 1.892 -1.39 2.324 -1.334 0.363 -2.71 0.451 -4.085 0.557 -0.31 0.024 -0.31 0.024 -0.608 0.195 -0.084 0.357 -0.084 0.357 0 0.779a7.945 7.945 0 0 0 1.003 0.759q0.3 0.203 0.6 0.408l0.298 0.2c0.379 0.259 0.744 0.533 1.107 0.814l0.329 0.253C10.437 13.241 10.437 13.241 10.593 13.553c0.066 1.018 -0.12 1.87 -0.409 2.843l-0.129 0.438c-0.551 1.807 -1.263 3.139 -2.581 4.48 -0.343 0.302 -0.343 0.302 -0.308 0.651l-0.302 0.136c-0.345 0.148 -0.345 0.148 -0.477 0.487 0.673 -0.232 1.22 -0.588 1.791 -1.003l0.289 -0.208c0.741 -0.541 1.444 -1.12 2.139 -1.718a65.427 65.427 0 0 1 1.934 -1.598l0.272 -0.22c0.686 -0.542 1.158 -0.874 2.045 -0.843 0.753 0.183 1.301 0.54 1.942 0.962 0.493 0.305 0.753 0.426 1.339 0.382L18.538 18.226c0.264 -0.866 0.022 -1.665 -0.152 -2.528 -0.141 -0.755 -0.215 -1.39 -0.004 -2.145 0.506 -0.614 1.138 -1.08 1.772 -1.558l0.269 -0.205A57.171 57.171 0 0 1 22.276 10.437c-0.054 -0.385 -0.054 -0.385 -0.156 -0.779 -0.357 -0.178 -0.606 -0.193 -1.003 -0.223l-0.423 -0.035a150.482 150.482 0 0 0 -0.873 -0.066c-2.43 -0.204 -2.43 -0.204 -3.091 -0.857 -0.654 -0.969 -0.955 -2.153 -1.303 -3.257l-0.152 -0.45 -0.131 -0.408c-0.169 -0.356 -0.169 -0.356 -0.6 -0.435z" fill="#4B65F4"/><path d="M30.688 5.296h0.156q0.017 4.004 0.024 8.007 0.003 1.859 0.011 3.718 0.007 1.622 0.009 3.243 0.001 0.858 0.005 1.715c0.004 0.64 0.004 1.28 0.004 1.921l0.005 0.567c-0.007 1.953 -0.341 3.644 -1.719 5.091 -1.046 0.957 -2.182 1.46 -3.597 1.462l-0.555 0.002 -0.607 0 -0.64 0.002q-0.869 0.002 -1.738 0.002 -0.543 0 -1.086 0.001 -1.896 0.002 -3.791 0.002 -1.766 0 -3.532 0.004 -1.517 0.003 -3.034 0.003 -0.905 0 -1.811 0.002 -0.852 0.002 -1.704 0c-0.307 0 -0.614 0.001 -0.921 0.002l-0.557 -0.002 -0.482 0c-0.502 -0.043 -0.919 -0.174 -1.389 -0.35l0.312 -0.156c0.164 -0.288 0.164 -0.288 0.312 -0.623l0.312 -0.623h0.312l0.312 -0.623h0.312v-0.312h0.312v-0.312h0.312v-0.312c0.23 -0.209 0.23 -0.209 0.565 -0.458 0.466 -0.351 0.928 -0.704 1.383 -1.069l0.287 -0.23a118.704 118.704 0 0 0 0.561 -0.452c0.548 -0.436 1.085 -0.761 1.721 -1.063q0.238 -0.229 0.467 -0.467a20.563 20.563 0 0 1 0.779 -0.467l0.399 -0.263C12.774 23.055 12.774 23.055 13.397 23.055v-0.312l1.09 -0.312v-0.312h0.779l0.088 -0.282c0.274 -0.418 0.552 -0.487 1.003 -0.67 0.539 -0.239 1.029 -0.557 1.528 -0.868C18.963 19.628 18.963 19.628 19.317 19.628v-0.312a15.266 15.266 0 0 1 0.779 -0.467q0.468 -0.31 0.935 -0.623l0.473 -0.306c0.156 -0.101 0.311 -0.203 0.472 -0.307l0.473 -0.306c0.46 -0.333 0.835 -0.7 1.231 -1.106 0.36 -0.204 0.36 -0.204 0.623 -0.312v-0.312h0.312v-0.312a40.97 40.97 0 0 1 0.779 -0.623l0.156 -0.312h0.312l0.117 -0.273c0.223 -0.402 0.473 -0.672 0.818 -0.974h0.312l0.312 -0.623h0.312l0.136 -0.273L28.352 11.216h0.312v-0.312h0.312l0.131 -0.273c0.173 -0.336 0.364 -0.646 0.57 -0.963 0.291 -0.458 0.515 -0.9 0.701 -1.412l0.156 -0.156c0.024 -0.209 0.039 -0.419 0.049 -0.629l0.02 -0.382 0.019 -0.401 0.02 -0.403q0.025 -0.495 0.048 -0.989" fill="#FD6E2B"/><path d="M0.156 5.608h0.156l0.005 0.4q0.023 1.864 0.048 3.727 0.013 0.958 0.025 1.916 0.011 0.924 0.024 1.848 0.005 0.353 0.009 0.706 0.006 0.494 0.013 0.987c0.002 0.187 0.005 0.375 0.007 0.568C0.438 16.193 0.438 16.193 0.623 16.513c0.011 0.577 0 1.153 -0.01 1.73 -0.003 0.61 -0.003 0.61 0.097 1.218L0.779 19.94l-0.156 0.156c-0.019 0.505 -0.029 0.967 0.088 1.46 0.079 0.474 0.015 0.888 -0.047 1.361 -0.054 0.592 -0.059 1.18 -0.06 1.774l-0.002 0.339c-0.047 0.537 -0.047 0.537 0.177 0.985l0.312 -0.623 0.058 0.38L1.246 26.171l0.312 0.156 -0.467 0.623 0.312 0.156 0.467 0.467 0.312 0.156v-0.312h0.312c0.019 1.207 0.019 1.207 -0.156 1.558l0.297 -0.136c0.886 -0.384 1.542 -0.558 2.507 -0.487 0.172 -0.372 0.172 -0.372 0.312 -0.779l-0.156 -0.312c-0.091 -1.132 -0.091 -1.132 0.312 -1.636l0.312 -0.234v0.623l0.448 -0.01C6.854 26.015 6.854 26.015 7.166 26.171v-0.623h0.312v0.623l0.467 -0.156c0.114 -0.314 0.114 -0.314 0.156 -0.623h-0.312l0.156 -0.467 0.623 0.312v-0.467l0.448 0.01c0.472 0.025 0.472 0.025 0.798 -0.166a20.874 20.874 0 0 0 0.467 -0.935l-0.467 -0.156 0.467 -1.09H8.568c-0.312 0.048 -0.624 0.099 -0.935 0.156l-0.019 0.36C7.477 23.367 7.477 23.367 7.049 23.659c-0.558 0.193 -0.728 0.152 -1.285 0.019 -0.421 0.029 -0.829 0.092 -1.246 0.156 0.273 -0.896 0.273 -0.896 0.623 -1.246l0.312 -0.156 -0.156 -1.402 0.623 -0.156 -0.156 0.467c0.485 0 0.796 -0.027 1.246 -0.156l0.156 -0.623 0.623 -0.156 0.058 -0.38L7.945 19.628l0.312 -0.156 0.312 0.156v-0.312l-0.312 -0.156 0.467 -0.312c0.186 -0.319 0.186 -0.319 0.312 -0.623h0.312l0.058 -0.396c0.103 -0.572 0.251 -1.118 0.409 -1.678 0.187 -0.672 0.348 -1.328 0.409 -2.025C10.281 13.553 10.281 13.553 10.593 13.241c0.482 0.964 0.033 2.189 -0.253 3.155l-0.129 0.438c-0.541 1.776 -1.219 3.09 -2.52 4.435 -0.356 0.372 -0.676 0.758 -0.992 1.164 1.537 -1.041 2.995 -2.135 4.397 -3.354C13.721 16.801 13.721 16.801 15.111 16.824c0.545 0.224 0.545 0.224 0.935 0.467l-0.156 0.623 0.341 0.049c0.481 0.118 0.815 0.287 1.217 0.574v0.312l0.312 0.312c-0.292 0.759 -0.292 0.759 -0.467 0.935h0.779v-0.312h0.467l0.312 -0.779h1.246l-0.312 0.312h-0.467v0.312l-0.523 0.29 -0.684 0.382 -0.344 0.191c-0.551 0.308 -1.064 0.621 -1.564 1.007l-0.419 0.166c-0.385 0.11 -0.385 0.11 -0.516 0.458h-0.779v0.312c-0.467 0.312 -0.467 0.312 -1.09 0.312v0.312c-0.085 0.028 -0.169 0.057 -0.256 0.086 -0.111 0.039 -0.223 0.079 -0.338 0.119l-0.334 0.115c-0.343 0.159 -0.524 0.348 -0.786 0.615 -0.419 0.107 -0.419 0.107 -0.779 0.156l-0.156 0.467a327.291 327.291 0 0 1 -0.935 0.467c-0.434 0.316 -0.844 0.659 -1.256 1.003l-0.648 0.535a182.261 182.261 0 0 0 -1.036 0.863C6.543 27.729 6.543 27.729 6.231 27.729v0.312h-0.312v0.312h-0.312v0.312c-0.292 0.331 -0.292 0.331 -0.623 0.623h-0.312l-0.049 0.273c-0.122 0.4 -0.31 0.652 -0.575 0.974 -1.319 -0.066 -2.175 -1.035 -3.016 -1.96 -0.858 -1.264 -0.967 -2.374 -0.949 -3.883q0 -0.313 0 -0.627c0 -0.563 0.003 -1.126 0.008 -1.689 0.004 -0.59 0.004 -1.18 0.005 -1.77 0.002 -1.115 0.007 -2.231 0.013 -3.346 0.007 -1.271 0.01 -2.542 0.014 -3.812C0.131 10.833 0.142 8.22 0.156 5.608" fill="#5C50EC"/><path d="M21.965 0.156c0.311 -0.058 0.311 -0.058 0.691 -0.057l0.423 0L23.523 0.107l0.429 -0.002c1.958 0.016 3.76 0.442 5.242 1.794 0.851 0.961 1.533 2.168 1.537 3.467l0.001 0.478 -0.004 0.494 0.004 0.499 -0.001 0.476 -0.001 0.435C30.688 8.101 30.688 8.101 30.377 8.412l-0.195 0.477c-0.299 0.727 -0.711 1.406 -1.207 2.015h-0.312v0.312h-0.312l-0.029 0.263C28.144 11.987 27.803 12.25 27.417 12.618l-0.312 0.467h-0.312l-0.117 0.273c-0.223 0.402 -0.473 0.672 -0.818 0.974h-0.312l-0.117 0.292c-0.227 0.386 -0.409 0.479 -0.818 0.643v0.312h-0.312v0.312a34.894 34.894 0 0 1 -0.802 0.569c-0.317 0.218 -0.317 0.218 -0.649 0.58 -0.945 0.923 -2.326 2.048 -3.69 2.161l-0.312 -0.039 -0.312 0.623h-0.467v0.312c-0.37 0.097 -0.37 0.097 -0.779 0.156l-0.312 -0.312 0.467 -0.312 0.156 -0.467 -0.312 -0.312v-0.312c-0.506 -0.361 -0.944 -0.535 -1.558 -0.623l0.312 -0.467c0.427 0.159 0.783 0.314 1.159 0.575 0.509 0.261 0.79 0.188 1.334 0.049l-0.058 -0.535 -0.04 -0.382a36.92 36.92 0 0 0 -0.153 -1.134l-0.049 -0.351q-0.049 -0.348 -0.105 -0.695c-0.106 -0.782 -0.044 -1.237 0.405 -1.888 0.312 -0.283 0.605 -0.525 0.944 -0.769l0.269 -0.202c0.681 -0.506 1.383 -0.979 2.099 -1.433L22.121 10.437v-0.623c-0.358 -0.179 -0.615 -0.196 -1.014 -0.228l-0.427 -0.037q-0.442 -0.036 -0.885 -0.072C18.929 9.402 18.128 9.27 17.291 9.035v-0.312h2.96l0.156 0.312 0.36 -0.078C21.186 8.879 21.186 8.879 21.653 8.879v0.312h0.779v0.312h0.312v0.467l0.312 0.156c-0.15 0.198 -0.15 0.198 -0.302 0.399 -0.352 0.521 -0.427 0.999 -0.477 1.626h-0.312l-0.156 0.312 -0.496 -0.107c-0.581 -0.091 -0.581 -0.091 -1.042 0.126 -0.366 0.262 -0.366 0.262 -0.399 0.672C19.784 13.553 19.784 13.553 19.317 13.855c-0.515 0.279 -0.515 0.279 -0.604 0.827L18.693 15.111h0.312l-0.156 1.09 0.312 0.156v0.779h0.312l0.312 0.312c0.257 0.11 0.517 0.215 0.779 0.312v-0.312l0.263 0.127c0.402 0.075 0.402 0.075 0.769 -0.312 0.369 -0.4 0.369 -0.4 0.536 -0.779 0.191 -0.37 0.392 -0.434 0.769 -0.594l0.467 -0.312h0.467v-0.623l0.526 -0.097L24.925 14.643a19.784 19.784 0 0 0 0.312 -0.935c0.487 -0.292 0.487 -0.292 0.935 -0.467l-0.156 -0.156q-0.085 -0.388 -0.156 -0.779l0.448 0.097L26.794 12.462c0.346 -0.346 0.456 -0.636 0.623 -1.09h-0.312l0.156 -0.467 0.312 -0.156 -0.029 -0.37L27.573 9.97l0.467 -0.312 -0.156 -0.623 0.467 -0.156v0.623h0.312l0.039 -0.273c0.149 -0.446 0.395 -0.662 0.74 -0.974l0.467 0.156 0.068 -0.38C30.065 7.633 30.065 7.633 30.221 7.477c0.02 -0.324 0.027 -0.649 0.029 -0.974l0.007 -0.538c-0.035 -0.503 -0.149 -0.835 -0.347 -1.292 0.058 -0.36 0.058 -0.36 0.156 -0.623h-0.467l-0.156 0.467c-0.304 -0.113 -0.304 -0.113 -0.623 -0.312 -0.095 -0.321 -0.095 -0.321 -0.117 -0.691l-0.027 -0.37c-0.01 -0.269 -0.012 -0.539 -0.012 -0.809l-0.448 -0.049C27.729 2.181 27.729 2.181 27.417 1.714V1.402l-0.438 -0.146L26.015 0.935V0.623l-0.409 0.078C24.312 0.886 22.938 0.868 21.653 0.623zm-2.648 17.291 0.156 0.312Zm0.623 0.312 -0.312 0.467h0.467zm7.477 -15.578h0.312v0.312h-0.312z" fill="#30B7C1"/><path d="M0.156 5.608h0.156l0.005 0.4q0.023 1.864 0.048 3.727 0.013 0.958 0.025 1.916 0.011 0.924 0.024 1.848 0.005 0.353 0.009 0.706 0.006 0.494 0.013 0.987c0.002 0.187 0.005 0.375 0.007 0.568C0.438 16.193 0.438 16.193 0.623 16.513c0.011 0.577 0 1.153 -0.01 1.73 -0.003 0.61 -0.003 0.61 0.097 1.218L0.779 19.94l-0.156 0.156c-0.019 0.505 -0.029 0.967 0.088 1.46 0.079 0.474 0.015 0.888 -0.047 1.361 -0.054 0.592 -0.059 1.18 -0.06 1.774l-0.002 0.339c-0.047 0.537 -0.047 0.537 0.177 0.985l0.312 -0.623 0.058 0.38L1.246 26.171l0.312 0.156 -0.467 0.623 0.312 0.156 0.467 0.467 0.312 0.156v-0.312h0.312c0.019 1.207 0.019 1.207 -0.156 1.558l0.297 -0.136c0.886 -0.384 1.542 -0.558 2.507 -0.487 0.172 -0.372 0.172 -0.372 0.312 -0.779l-0.156 -0.312c-0.091 -1.132 -0.091 -1.132 0.312 -1.636l0.312 -0.234v0.623l0.448 -0.01C6.854 26.015 6.854 26.015 7.166 26.171v-0.623h0.312v0.623l0.467 -0.156c0.114 -0.314 0.114 -0.314 0.156 -0.623h-0.312l0.156 -0.467 0.623 0.312v-0.467l0.448 0.01c0.472 0.025 0.472 0.025 0.798 -0.166a20.874 20.874 0 0 0 0.467 -0.935l-0.467 -0.156c0.195 -0.584 0.424 -0.758 0.935 -1.09 0.341 0.01 0.341 0.01 0.623 0.156l0.312 0.467c0.399 0.114 0.399 0.114 0.779 0.156 -0.494 0.551 -0.805 0.87 -1.558 0.935l-0.156 0.467a327.291 327.291 0 0 1 -0.935 0.467c-0.434 0.316 -0.844 0.659 -1.256 1.003l-0.648 0.535a182.261 182.261 0 0 0 -1.036 0.863C6.543 27.729 6.543 27.729 6.231 27.729v0.312h-0.312v0.312h-0.312v0.312c-0.292 0.331 -0.292 0.331 -0.623 0.623h-0.312l-0.049 0.273c-0.122 0.4 -0.31 0.652 -0.575 0.974 -1.319 -0.066 -2.175 -1.035 -3.016 -1.96 -0.858 -1.264 -0.967 -2.374 -0.949 -3.883q0 -0.313 0 -0.627c0 -0.563 0.003 -1.126 0.008 -1.689 0.004 -0.59 0.004 -1.18 0.005 -1.77 0.002 -1.115 0.007 -2.231 0.013 -3.346 0.007 -1.271 0.01 -2.542 0.014 -3.812C0.131 10.833 0.142 8.22 0.156 5.608" fill="#6F25C7"/><path d="M30.688 5.296h0.156q0.005 4.028 0.008 8.056 0.001 1.87 0.004 3.741 0.002 1.63 0.003 3.26 0 0.863 0.002 1.726c0.001 0.643 0.001 1.285 0.001 1.928l0.002 0.577 -0.001 0.532 0 0.46c-0.02 0.468 -0.089 0.913 -0.175 1.373h-0.156v-10.281l-1.246 1.714 -0.623 0.467 0.312 -0.935h0.312l0.156 -0.467 0.224 -0.214c0.672 -0.699 0.596 -1.565 0.585 -2.471l-0.001 -0.416c-0.002 -0.436 -0.006 -0.873 -0.01 -1.309q-0.002 -0.445 -0.004 -0.89Q30.231 11.058 30.221 9.97l-0.29 0.369C29.598 10.749 29.598 10.749 29.247 11.08c-0.326 0.282 -0.326 0.282 -0.273 0.759 -0.214 0.263 -0.214 0.263 -0.467 0.467h-0.312c-0.712 1.168 -0.712 1.168 -0.935 2.492l-0.38 -0.01c-0.389 -0.036 -0.389 -0.036 -0.555 0.165a77.111 77.111 0 0 1 -0.812 0.568c-0.286 0.205 -0.286 0.205 -0.528 0.47C24.769 16.201 24.769 16.201 24.457 16.201l-0.156 0.467c-0.455 0.323 -0.682 0.467 -1.246 0.467v0.312l-0.467 0.312c-0.156 0.303 -0.156 0.303 -0.263 0.643l-0.119 0.342L22.121 19.005h-0.467l0.156 -0.623c-0.667 0.473 -0.667 0.473 -0.935 1.246l-2.648 0.623c0.441 -0.441 0.527 -0.526 1.09 -0.623v-0.312a15.266 15.266 0 0 1 0.779 -0.467q0.468 -0.31 0.935 -0.623l0.473 -0.306c0.156 -0.101 0.311 -0.203 0.472 -0.307l0.473 -0.306c0.46 -0.333 0.835 -0.7 1.231 -1.106 0.36 -0.204 0.36 -0.204 0.623 -0.312v-0.312h0.312v-0.312a40.97 40.97 0 0 1 0.779 -0.623l0.156 -0.312h0.312l0.117 -0.273c0.223 -0.402 0.473 -0.672 0.818 -0.974h0.312l0.312 -0.623h0.312l0.136 -0.273L28.352 11.216h0.312v-0.312h0.312l0.131 -0.273c0.173 -0.336 0.364 -0.646 0.57 -0.963 0.291 -0.458 0.515 -0.9 0.701 -1.412l0.156 -0.156c0.024 -0.209 0.039 -0.419 0.049 -0.629l0.02 -0.382 0.019 -0.401 0.02 -0.403q0.025 -0.495 0.048 -0.989" fill="#F2E3A4"/><path d="M17.291 8.724h2.96l0.156 0.312 0.36 -0.078C21.186 8.879 21.186 8.879 21.653 8.879v0.312h0.779v0.312h0.312v0.467l0.312 0.156c-0.15 0.198 -0.15 0.198 -0.302 0.399 -0.352 0.521 -0.427 0.999 -0.477 1.626h-0.312l-0.156 0.312 -0.496 -0.107c-0.581 -0.091 -0.581 -0.091 -1.042 0.126 -0.366 0.262 -0.366 0.262 -0.399 0.672C19.784 13.553 19.784 13.553 19.317 13.855c-0.515 0.279 -0.515 0.279 -0.604 0.827L18.693 15.111h0.312l-0.156 1.09 0.312 0.156v0.779h0.312l0.312 0.312c0.257 0.11 0.517 0.215 0.779 0.312v-0.312l0.779 0.312 -0.467 0.156c-0.188 0.312 -0.188 0.312 -0.312 0.623h-0.467v0.312c-0.503 0.335 -0.667 0.343 -1.246 0.312l-0.312 0.623h-0.467v0.312c-0.37 0.097 -0.37 0.097 -0.779 0.156l-0.312 -0.312 0.467 -0.312 0.156 -0.467 -0.312 -0.312v-0.312c-0.506 -0.361 -0.944 -0.535 -1.558 -0.623l0.312 -0.467c0.427 0.159 0.783 0.314 1.159 0.575 0.509 0.261 0.79 0.188 1.334 0.049l-0.058 -0.535 -0.04 -0.382a36.92 36.92 0 0 0 -0.153 -1.134l-0.049 -0.351q-0.049 -0.348 -0.105 -0.695c-0.106 -0.782 -0.044 -1.237 0.405 -1.888 0.312 -0.283 0.605 -0.525 0.944 -0.769l0.269 -0.202c0.681 -0.506 1.383 -0.979 2.099 -1.433L22.121 10.437v-0.623c-0.358 -0.179 -0.615 -0.196 -1.014 -0.228l-0.427 -0.037q-0.442 -0.036 -0.885 -0.072C18.929 9.402 18.128 9.27 17.291 9.035zm2.025 8.724 0.156 0.312Zm0.623 0.312 -0.312 0.467h0.467z" fill="#57B1F4"/><path d="m13.397 22.744 0.623 0.156 -0.312 0.156 -0.156 0.467c-0.477 0.185 -0.477 0.185 -0.935 0.312l-0.156 0.779 -0.156 -0.312 -0.195 0.234C11.839 24.769 11.839 24.769 11.216 24.769c-1.065 0.405 -2.172 1.232 -2.804 2.181h-0.312v0.312h-0.467l-0.224 0.38C7.166 28.04 7.166 28.04 6.825 28.167L6.543 28.196l0.156 0.623h-0.623l-0.117 0.458L5.764 29.754c-0.331 0.136 -0.331 0.136 -0.623 0.156l0.156 0.623 0.575 -0.146c0.481 -0.121 0.963 -0.23 1.451 -0.321l-0.467 0.623 0.259 -0.033c1.207 -0.139 2.407 -0.145 3.621 -0.143l0.662 0q0.688 0 1.376 0.001 0.883 0.001 1.765 -0.001 0.681 -0.001 1.362 0 0.326 0 0.651 0 0.453 0 0.906 0.001l0.52 0C18.382 30.533 18.382 30.533 18.693 30.688l0.156 -0.312 0.156 0.156c0.438 0.014 0.872 0.018 1.31 0.015l0.398 -0.001c0.421 -0.001 0.841 -0.003 1.262 -0.005q0.427 -0.001 0.854 -0.002 1.048 -0.003 2.097 -0.008v-0.312h0.312l0.156 0.312h1.09l-0.156 0.312q-4.119 0.017 -8.239 0.024 -1.912 0.003 -3.825 0.011 -1.667 0.007 -3.334 0.009 -0.883 0.001 -1.765 0.005 -0.831 0.005 -1.662 0.003a112.472 112.472 0 0 0 -0.899 0.005C4.971 30.897 4.971 30.897 4.206 30.377l0.146 -0.282C4.533 29.74 4.533 29.74 4.673 29.286h0.312l0.312 -0.623h0.312v-0.312h0.312v-0.312h0.312v-0.312c0.23 -0.209 0.23 -0.209 0.565 -0.458 0.466 -0.351 0.928 -0.704 1.383 -1.069l0.287 -0.23a118.704 118.704 0 0 0 0.561 -0.452c0.548 -0.436 1.085 -0.761 1.721 -1.063q0.238 -0.229 0.467 -0.467a20.563 20.563 0 0 1 0.779 -0.467l0.399 -0.263C12.774 23.055 12.774 23.055 13.397 23.055z" fill="#F11D3E"/><path d="M10.437 13.241c0.312 0.312 0.312 0.312 0.357 0.854 -0.021 0.801 -0.227 1.536 -0.454 2.3l-0.129 0.438c-0.541 1.776 -1.219 3.09 -2.52 4.435 -0.356 0.372 -0.676 0.758 -0.992 1.164l0.286 -0.233C7.927 21.479 8.623 21.168 9.814 21.186l0.156 1.09c-0.539 0.149 -0.998 0.16 -1.558 0.136 -0.496 -0.02 -0.496 -0.02 -0.935 0.331v0.623c-0.671 0.39 -0.969 0.489 -1.714 0.312 -0.421 0.029 -0.829 0.092 -1.246 0.156 0.273 -0.896 0.273 -0.896 0.623 -1.246l0.312 -0.156 -0.156 -1.402 0.623 -0.156 -0.156 0.467c0.485 0 0.796 -0.027 1.246 -0.156l0.156 -0.623 0.623 -0.156 0.058 -0.38L7.945 19.628l0.312 -0.156 0.312 0.156v-0.312l-0.312 -0.156 0.467 -0.312c0.186 -0.319 0.186 -0.319 0.312 -0.623h0.312l0.058 -0.396c0.103 -0.572 0.251 -1.118 0.409 -1.678 0.24 -0.868 0.391 -1.702 0.467 -2.599z" fill="#7430D3"/><path d="M15.802 17.145 16.045 17.291l-0.156 0.623 0.341 0.049c0.481 0.118 0.815 0.287 1.217 0.574v0.312l0.312 0.312c-0.292 0.759 -0.292 0.759 -0.467 0.935h0.779v-0.312h0.467l0.312 -0.779h1.246l-0.312 0.312h-0.467v0.312c-0.786 0.474 -1.419 0.804 -2.337 0.935l-0.224 0.243C16.513 21.03 16.513 21.03 15.938 21.059L15.422 21.03l-0.156 0.623h-0.467l-0.156 -0.779h-0.623v-0.312h0.623v-0.312h0.312c-0.015 -0.102 -0.03 -0.203 -0.045 -0.308 -0.105 -0.826 -0.125 -1.399 0.201 -2.184v-0.467c-0.868 0.144 -1.554 0.269 -2.181 0.935l-0.068 0.331L12.774 18.849c-0.428 0.166 -0.428 0.166 -0.935 0.312l-0.428 0.263L11.06 19.628l-0.312 -0.156c3.278 -3.101 3.278 -3.101 5.053 -2.327" fill="#4873F2"/><path d="M21.965 0.156c0.311 -0.058 0.311 -0.058 0.691 -0.057l0.423 0L23.523 0.107l0.429 -0.002c1.974 0.016 3.767 0.448 5.252 1.817 0.75 0.813 1.151 1.664 1.329 2.751 -0.058 0.467 -0.058 0.467 -0.156 0.779 -0.243 -0.263 -0.243 -0.263 -0.467 -0.623 0.049 -0.428 0.049 -0.428 0.156 -0.779h-0.467l-0.156 0.467c-0.304 -0.113 -0.304 -0.113 -0.623 -0.312 -0.095 -0.321 -0.095 -0.321 -0.117 -0.691l-0.027 -0.37c-0.01 -0.269 -0.012 -0.539 -0.012 -0.809l-0.448 -0.049C27.729 2.181 27.729 2.181 27.417 1.714V1.402l-0.438 -0.146L26.015 0.935V0.623l-0.409 0.078C24.312 0.886 22.938 0.868 21.653 0.623zm5.452 2.025h0.312v0.312h-0.312z" fill="#3BB5F2"/><path d="m1.246 3.116 0.156 0.467c-0.467 0.779 -0.467 0.779 -0.779 1.09 -0.011 0.439 0.001 0.875 0.01 1.314C0.623 6.387 0.623 6.387 0.467 6.698l0.312 0.156 -0.078 0.608C0.616 8.224 0.611 8.971 0.623 9.736c0.016 0.977 -0.032 1.912 -0.156 2.882h0.312l-0.04 0.279c-0.105 0.757 -0.105 0.757 -0.038 1.512 0.121 0.605 0.008 1.185 -0.078 1.791H0.312l-0.156 9.814H0q-0.022 -4.073 -0.032 -8.145 -0.004 -1.891 -0.015 -3.782 -0.009 -1.649 -0.012 -3.298c-0.001 -0.582 -0.003 -1.163 -0.007 -1.745 -0.005 -0.651 -0.005 -1.301 -0.005 -1.952l-0.007 -0.579C-0.072 5.414 0.005 4.371 0.623 3.427c0.333 -0.197 0.333 -0.197 0.623 -0.312" fill="#BE89FA"/><path d="M18.382 13.709h0.312v1.402h0.312l-0.156 1.09 0.312 0.156v0.779h0.312l0.312 0.312c0.257 0.11 0.517 0.215 0.779 0.312v-0.312l0.779 0.312 -0.467 0.156c-0.188 0.312 -0.188 0.312 -0.312 0.623h-0.467v0.312c-0.503 0.335 -0.667 0.343 -1.246 0.312l-0.312 0.623h-0.467v0.312c-0.37 0.097 -0.37 0.097 -0.779 0.156l-0.312 -0.312 0.467 -0.312 0.156 -0.467 -0.312 -0.312v-0.312c-0.506 -0.361 -0.944 -0.535 -1.558 -0.623l0.312 -0.467c0.424 0.158 0.772 0.306 1.139 0.575 0.456 0.223 0.585 0.213 1.068 0.139L18.849 18.07l-0.102 -0.519c-0.246 -1.292 -0.442 -2.521 -0.365 -3.843m0.935 3.739 0.156 0.312Zm0.623 0.312 -0.312 0.467h0.467z" fill="#3890EB"/><path d="M30.533 16.513h0.156q0.005 1.753 0.008 3.506 0.001 0.814 0.004 1.629c0.002 0.626 0.003 1.252 0.004 1.878l0.002 0.582c0 3.946 0 3.946 -1.468 5.432L28.819 29.91l-0.312 -0.156 0.399 -0.419c0.353 -0.413 0.353 -0.413 0.351 -0.964L29.131 28.04l0.467 -0.156v0.312c0.25 -0.158 0.25 -0.158 0.467 -0.467 0.197 -1.099 0.176 -2.197 0.171 -3.31l-0.001 -0.592q-0.001 -0.773 -0.004 -1.546 -0.002 -0.791 -0.003 -1.582 -0.003 -1.548 -0.008 -3.095l-0.258 0.359 -0.339 0.47 -0.335 0.467c-0.329 0.437 -0.672 0.799 -1.093 1.148l-0.36 0.304L27.573 20.563l-0.312 -0.156 0.312 -0.623h0.312l0.125 -0.287c0.195 -0.352 0.354 -0.499 0.673 -0.736 0.665 -0.541 1.116 -1.206 1.6 -1.907z" fill="#EE993A"/><path d="m13.397 22.744 0.623 0.156 -0.312 0.156 -0.156 0.467c-0.477 0.185 -0.477 0.185 -0.935 0.312l-0.156 0.779 -0.156 -0.312 -0.195 0.234C11.839 24.769 11.839 24.769 11.216 24.769c-1.065 0.405 -2.172 1.232 -2.804 2.181h-0.312v0.312h-0.467l-0.224 0.38C7.166 28.04 7.166 28.04 6.825 28.167L6.543 28.196l0.156 0.623h-1.09l-0.117 0.302C5.296 29.442 5.296 29.442 4.965 29.559L4.673 29.598v-0.312h0.312l0.312 -0.623h0.312v-0.312h0.312v-0.312h0.312v-0.312c0.23 -0.209 0.23 -0.209 0.565 -0.458 0.466 -0.351 0.928 -0.704 1.383 -1.069l0.287 -0.23a118.704 118.704 0 0 0 0.561 -0.452c0.548 -0.436 1.085 -0.761 1.721 -1.063q0.238 -0.229 0.467 -0.467a20.563 20.563 0 0 1 0.779 -0.467l0.399 -0.263C12.774 23.055 12.774 23.055 13.397 23.055z" fill="#EB2F4D"/><path d="M25.548 13.709h0.467l-0.156 0.623h-0.312l-0.117 0.292c-0.227 0.386 -0.409 0.479 -0.818 0.643v0.312h-0.312v0.312a34.894 34.894 0 0 1 -0.802 0.569c-0.317 0.218 -0.317 0.218 -0.649 0.58 -0.797 0.779 -1.704 1.43 -2.755 1.811v-0.312l0.467 -0.156a14.02 14.02 0 0 0 0.312 -0.623l0.312 -0.156c0.549 -0.501 0.549 -0.501 0.944 -1.12 0.191 -0.37 0.392 -0.434 0.769 -0.594l0.467 -0.312h0.467v-0.623l0.516 -0.107c0.592 -0.15 0.592 -0.15 0.866 -0.604L25.392 13.864z" fill="#37A5C4"/><path d="M30.221 3.739c0.685 0.685 0.496 1.675 0.497 2.58l0.006 0.503 0.001 0.48 0.002 0.441C30.688 8.101 30.688 8.101 30.377 8.412c-0.11 0.257 -0.215 0.517 -0.312 0.779h-0.779v0.623h-0.467v0.312h-0.467v0.312l-0.623 0.312 -0.156 -0.779 0.467 -0.312 -0.156 -0.623 0.467 -0.156v0.623h0.312l0.039 -0.273c0.149 -0.446 0.395 -0.662 0.74 -0.974l0.467 0.156 0.068 -0.38C30.065 7.633 30.065 7.633 30.221 7.477c0.042 -0.452 0.073 -0.9 0.097 -1.353l0.024 -0.379c0.039 -0.695 0.027 -1.32 -0.122 -2.006" fill="#3DBCD2"/><path d="m4.05 30.221 0.415 0.229c0.883 0.375 1.814 0.306 2.758 0.305q0.315 0.002 0.631 0.005c0.569 0.004 1.137 0.006 1.706 0.007 0.595 0.002 1.19 0.006 1.786 0.009 1.126 0.007 2.252 0.011 3.378 0.015 1.282 0.004 2.565 0.011 3.847 0.018q3.955 0.021 7.911 0.035v0.156q-4.241 0.011 -8.482 0.016 -1.969 0.002 -3.939 0.007 -1.717 0.005 -3.433 0.006 -0.909 0 -1.817 0.004 -0.856 0.003 -1.712 0.002c-0.309 0 -0.617 0.002 -0.926 0.004l-0.56 -0.001 -0.485 0.001c-0.503 -0.042 -0.92 -0.173 -1.39 -0.35l0.312 -0.156z" fill="#FE5257"/><path d="M10.437 13.241c0.312 0.312 0.312 0.312 0.357 0.854 -0.021 0.801 -0.227 1.536 -0.454 2.3l-0.127 0.436C9.777 18.27 9.296 19.734 8.101 20.719v-0.779l-0.312 -0.156 0.467 -0.312 0.312 0.156v-0.312l-0.312 -0.156 0.467 -0.312c0.186 -0.319 0.186 -0.319 0.312 -0.623h0.312l0.058 -0.396c0.103 -0.572 0.251 -1.118 0.409 -1.678 0.24 -0.868 0.391 -1.702 0.467 -2.599z" fill="#7A57DF"/><path d="m24.146 16.357 0.156 0.312 -0.312 -0.156zm-0.434 0.37L23.99 16.824c-0.467 0.312 -0.467 0.312 -0.935 0.312v0.312l-0.467 0.312c-0.156 0.303 -0.156 0.303 -0.263 0.643l-0.119 0.342L22.121 19.005h-0.467l0.156 -0.623c-0.667 0.473 -0.667 0.473 -0.935 1.246l-2.648 0.623c0.441 -0.441 0.527 -0.526 1.09 -0.623v-0.312a15.266 15.266 0 0 1 0.779 -0.467 55.457 55.457 0 0 0 1.515 -1.03l0.607 -0.421 0.309 -0.221c0.763 -0.523 0.763 -0.523 1.185 -0.451" fill="#EBBD47"/><path d="M0.156 26.171c0.759 0.428 0.759 0.428 0.935 0.779l0.312 0.156c0.175 0.321 0.175 0.321 0.312 0.623l-0.312 0.467v0.312h0.312v0.312l0.467 0.156c0.331 0.136 0.331 0.136 0.623 0.312l0.156 0.467 0.312 0.156 0.312 0.156 0.156 0.467c-1.354 -0.378 -2.304 -1.341 -3.047 -2.512C0.344 27.394 0.187 26.884 0.156 26.171" fill="#7C44CC"/><path d="M5.608 28.819h0.312v0.779l-0.779 0.312 0.156 0.623 0.575 -0.146c0.481 -0.121 0.963 -0.23 1.451 -0.321l-0.467 0.623 0.291 -0.034c0.896 -0.098 1.767 -0.136 2.668 -0.122v0.156c-0.904 0.206 -1.793 0.191 -2.716 0.195l-0.529 0.01c-0.915 0.004 -1.592 0.001 -2.363 -0.516 0.235 -0.658 0.674 -0.881 1.246 -1.246z" fill="#EB1949"/><path d="M11.09 22.442C11.372 22.588 11.372 22.588 11.683 23.055c0.399 0.114 0.399 0.114 0.779 0.156 -0.676 0.84 -1.482 1.085 -2.492 1.402 0.079 -0.338 0.156 -0.623 0.312 -0.935l-0.467 -0.156c0.204 -0.611 0.583 -1.1 1.276 -1.081" fill="#6A33CD"/><path d="m18.849 16.668 0.312 0.156v0.312h0.312l0.312 0.312c0.257 0.11 0.517 0.215 0.779 0.312v-0.312l0.779 0.312 -0.467 0.156c-0.188 0.312 -0.188 0.312 -0.312 0.623h-0.467v0.312c-0.467 0.312 -0.467 0.312 -0.866 0.282C18.849 19.005 18.849 19.005 18.538 18.538l0.312 -0.312c0.038 -0.38 0.038 -0.38 0.019 -0.798l-0.009 -0.43zm0.467 0.779 0.156 0.312Zm0.623 0.312 -0.312 0.467h0.467z" fill="#378EF2"/><path d="m7.199 0.141 0.457 0.001c0.479 0.001 0.959 0.003 1.438 0.005q0.489 0.001 0.978 0.002Q11.267 0.151 12.462 0.156v0.312C9.869 0.669 7.273 0.639 4.673 0.623V0.312C5.52 0.135 6.339 0.136 7.199 0.141" fill="#6175E8"/><path d="M16.824 20.407c0.487 -0.029 0.487 -0.029 0.935 0 -0.746 0.574 -1.462 1.052 -2.337 1.402l-0.156 0.312h-0.779v0.312c-0.467 0.312 -0.467 0.312 -1.09 0.312v0.312l-0.935 0.156 0.156 -0.779 1.714 -0.156 0.156 -0.779h0.623l0.312 -0.623 0.526 0.029L16.513 20.874z" fill="#5963C8"/><path d="m8.139 9.405 0.509 0.052L9.035 9.503v0.156l-2.181 0.156c0.164 0.821 0.234 0.907 0.889 1.346l0.289 0.183 0.291 0.192C8.559 11.69 8.797 11.843 9.035 11.995l-0.156 0.467c-1.052 0.019 -1.052 0.019 -1.402 -0.156l0.058 -0.341c-0.014 -0.491 -0.014 -0.491 -0.526 -0.808C6.543 10.749 6.543 10.749 6.484 10.155L6.543 9.658c0.554 -0.353 0.954 -0.323 1.597 -0.253" fill="#6D55ED"/><path d="m13.397 22.744 0.623 0.156 -0.312 0.156 -0.156 0.467c-0.477 0.185 -0.477 0.185 -0.935 0.312l-0.156 0.779 -0.156 -0.312 -0.195 0.234C11.839 24.769 11.839 24.769 11.216 24.769c-0.502 0.225 -0.944 0.474 -1.402 0.779 0.467 -0.935 0.467 -0.935 0.935 -1.09l0.214 -0.214c0.313 -0.313 0.649 -0.501 1.032 -0.72l0.399 -0.263C12.774 23.055 12.774 23.055 13.397 23.055z" fill="#EB444A"/><path d="M15.422 16.98v0.156l-0.347 0.08c-1.19 0.28 -1.19 0.28 -2.145 1.01l-0.068 0.331L12.774 18.849c-0.428 0.166 -0.428 0.166 -0.935 0.312l-0.428 0.263L11.06 19.628l-0.312 -0.156c2.945 -2.786 2.945 -2.786 4.673 -2.492" fill="#7670E6"/><path d="m21.497 0.467 -0.312 0.156v0.312c-0.404 0.15 -0.57 0.178 -0.975 0.008 -0.485 -0.186 -0.871 -0.213 -1.389 -0.228l-0.546 -0.018 -0.565 -0.015 -0.575 -0.018Q16.435 0.641 15.734 0.623V0.467c1.92 -0.305 3.878 -0.606 5.764 0" fill="#2083F3"/><path d="m9.814 21.186 0.156 1.09c-0.77 0.212 -1.542 0.156 -2.337 0.156l0.156 -0.312h0.467l0.029 -0.292C8.412 21.497 8.412 21.497 8.772 21.303 9.191 21.186 9.191 21.186 9.814 21.186" fill="#6D31E2"/><path d="m28.819 2.181 0.467 0.156 -0.156 1.246 1.09 0.156c0.254 0.642 0.353 1.045 0.156 1.714 -0.243 -0.263 -0.243 -0.263 -0.467 -0.623 0.049 -0.428 0.049 -0.428 0.156 -0.779h-0.467l-0.156 0.467c-0.304 -0.113 -0.304 -0.113 -0.623 -0.312 -0.1 -0.315 -0.1 -0.315 -0.126 -0.682l-0.032 -0.364c0.003 -0.354 0.058 -0.642 0.159 -0.98" fill="#1EB1F1"/><path d="M21.965 0.156a8.256 8.256 0 0 1 1.159 -0.049c0.111 0.002 0.223 0.003 0.338 0.005 1.959 0.05 1.959 0.05 2.71 0.355 0.201 0.324 0.201 0.324 0.312 0.623l-0.467 -0.156V0.623l-0.409 0.078C24.312 0.886 22.938 0.868 21.653 0.623z" fill="#41A4EF"/><path d="M30.377 8.256c0.312 0.312 0.312 0.312 0.349 0.651l-0.002 0.426v0.482l-0.005 0.522 -0.001 0.533c-0.002 0.564 -0.006 1.127 -0.01 1.691q-0.002 0.572 -0.004 1.144 -0.005 1.404 -0.015 2.809h-0.156l-0.156 -6.854 -0.467 -0.156c0.292 -1.071 0.292 -1.071 0.467 -1.246" fill="#EDE278"/><path d="m30.221 16.98 0.156 0.467c-0.156 0.28 -0.156 0.28 -0.399 0.584l-0.264 0.332L29.442 18.693l-0.232 0.296c-0.53 0.654 -1.09 1.109 -1.793 1.573v-0.623l0.467 -0.156a22.276 22.276 0 0 0 0.312 -0.623c0.236 -0.222 0.236 -0.222 0.506 -0.428 0.62 -0.507 1.065 -1.097 1.519 -1.753" fill="#F79D0F"/><path d="M30.377 10.905h0.156c0.031 0.789 0.054 1.579 0.069 2.368q0.009 0.402 0.026 0.804c0.063 1.587 0.071 2.72 -1.01 3.99A8.101 8.101 0 0 1 28.663 18.849l0.312 -0.935h0.312l0.156 -0.467 0.224 -0.214c0.612 -0.637 0.606 -1.428 0.619 -2.267l0.009 -0.353c0.009 -0.37 0.017 -0.74 0.024 -1.109q0.009 -0.378 0.018 -0.755 0.022 -0.922 0.04 -1.845" fill="#F6D13C"/><path d="M24.925 30.221h0.312l0.156 0.312h1.09l-0.156 0.312h-8.101l0.156 -0.312 0.312 0.156 0.156 -0.312 0.156 0.156c0.438 0.014 0.872 0.018 1.31 0.015l0.398 -0.001c0.421 -0.001 0.841 -0.003 1.262 -0.005q0.427 -0.001 0.854 -0.002 1.048 -0.003 2.097 -0.008z" fill="#F52D28"/><path d="M10.905 19.628c-0.039 0.526 -0.039 0.526 -0.156 1.09 -0.302 0.195 -0.302 0.195 -0.623 0.312l-0.312 0.467v-0.312l-1.246 0.156a26.327 26.327 0 0 1 1.344 -1.295l0.269 -0.242C10.437 19.628 10.437 19.628 10.905 19.628" fill="#6439E0"/><path d="M17.291 8.724h2.96l0.156 0.312 0.36 -0.078C21.186 8.879 21.186 8.879 21.653 8.879v0.312c-0.585 0.195 -1.133 0.184 -1.743 0.185l-0.345 0.006c-0.807 0.002 -1.498 -0.124 -2.274 -0.347z" fill="#358DEC"/><path d="m1.246 3.116 0.156 0.467c-0.467 0.779 -0.467 0.779 -0.779 1.09 -0.011 0.439 0.001 0.875 0.01 1.314C0.623 6.387 0.623 6.387 0.467 6.698l0.312 0.156 -0.156 0.623H0.312c-0.039 -0.47 -0.074 -0.941 -0.107 -1.412l-0.034 -0.4C0.112 4.78 0.188 4.207 0.623 3.427c0.341 -0.224 0.341 -0.224 0.623 -0.312" fill="#6747EC"/><path d="M16.668 25.236h1.09c-0.408 0.613 -0.701 0.595 -1.402 0.779l-0.545 0.243C15.167 26.523 14.561 26.638 13.864 26.638v-0.312c0.72 -0.346 1.21 -0.527 2.025 -0.467v-0.312l0.779 -0.156z" fill="#FA4436"/><path d="M27.261 20.407c0 0.467 0 0.467 -0.313 0.809l-0.417 0.369 -0.411 0.371c-0.399 0.307 -0.726 0.466 -1.196 0.632 -0.272 0.153 -0.544 0.307 -0.815 0.464 -0.398 0.23 -0.789 0.445 -1.21 0.627l-0.467 -0.156 0.519 -0.257c1.433 -0.725 2.634 -1.484 3.843 -2.547z" fill="#F88011"/><path d="m21.186 18.07 0.312 0.156a14.176 14.176 0 0 1 -0.623 0.623h-0.312v0.467h0.312v0.312l-2.648 0.623c0.441 -0.441 0.527 -0.526 1.09 -0.623v-0.312a15.266 15.266 0 0 1 0.779 -0.467c0.573 -0.353 0.573 -0.353 1.09 -0.779" fill="#EE9B41"/><path d="M7.166 27.261c-0.058 0.302 -0.058 0.302 -0.156 0.623l-0.312 0.156v0.779h-1.09l-0.117 0.302C5.296 29.442 5.296 29.442 4.965 29.559L4.673 29.598v-0.312h0.312l0.312 -0.623h0.312v-0.312h0.312v-0.312h0.312v-0.312c0.539 -0.467 0.539 -0.467 0.935 -0.467" fill="#D6266C"/><path d="M15.422 5.296c0.368 0.368 0.388 0.589 0.467 1.09h0.779v1.09h0.779l-0.156 0.935 -0.467 -0.156v-0.467h-0.623a204.382 204.382 0 0 1 -0.389 -0.983l-0.219 -0.553C15.422 5.764 15.422 5.764 15.422 5.296" fill="#2380F4"/><path d="m17.136 21.497 -0.312 0.779 -0.274 -0.005c-0.708 -0.008 -1.366 0.018 -2.063 0.161v-0.312h0.779l0.107 -0.292C15.578 21.497 15.578 21.497 15.938 21.283c0.511 -0.119 0.739 -0.022 1.198 0.214" fill="#FC742E"/><path d="m29.754 9.503 0.779 0.156v1.246h-0.156l-0.156 -0.935 -0.273 0.351C29.598 10.749 29.598 10.749 29.247 11.08c-0.326 0.282 -0.326 0.282 -0.273 0.759 -0.234 0.263 -0.234 0.263 -0.467 0.467l-0.312 -0.312 0.467 -1.09h0.312l0.127 -0.263c0.201 -0.391 0.423 -0.764 0.652 -1.139" fill="#E9E44B"/><path d="m5.764 25.392 0.156 0.623h0.623l-0.312 0.623h-0.312c-0.033 0.645 -0.033 0.645 0.156 1.246 -0.604 -0.273 -0.604 -0.273 -0.779 -0.623 -0.073 -1.125 -0.073 -1.125 0.234 -1.636z" fill="#7423D4"/><path d="m27.106 13.241 0.467 0.156 -0.156 0.351c-0.191 0.45 -0.191 0.45 -0.156 1.052l-0.38 -0.01c-0.389 -0.036 -0.389 -0.036 -0.555 0.165h-0.467c0.229 -0.857 0.229 -0.857 0.623 -1.227C26.794 13.553 26.794 13.553 27.106 13.553z" fill="#F8CF32"/><path d="M30.221 26.482h0.312c-0.044 1.383 -0.529 2.199 -1.46 3.203L28.819 29.91l-0.312 -0.156 0.399 -0.419c0.353 -0.413 0.353 -0.413 0.351 -0.964L29.131 28.04l0.467 -0.156v0.312c0.317 -0.22 0.452 -0.397 0.533 -0.776 0.037 -0.312 0.064 -0.625 0.09 -0.938" fill="#F8A770"/><path d="M17.447 18.693c0.288 0.053 0.288 0.053 0.633 0.146 0.171 0.045 0.171 0.045 0.346 0.092L18.693 19.005l-0.156 0.779h-0.467v0.312c-0.37 0.097 -0.37 0.097 -0.779 0.156l-0.312 -0.312 0.467 -0.312 0.156 -0.467 -0.312 -0.312z" fill="#4181F4"/><path d="M0.312 23.99h0.156l0.068 0.575c0.061 0.489 0.138 0.969 0.243 1.451l0.312 -0.623 0.058 0.38L1.246 26.171l0.312 0.156 -0.779 0.467v-0.312l-0.467 0.156c-0.139 -0.925 -0.151 -1.724 0 -2.648" fill="#702AD3"/><path d="m5.608 20.874 0.312 0.156 -0.156 0.312 0.623 0.312v0.623l-1.09 0.623 -0.156 -0.467h0.312l-0.156 -1.402z" fill="#7D2CE4"/><path d="M28.352 11.216h0.312c-0.263 0.701 -0.595 1.36 -0.935 2.025h-0.623v0.312c-0.273 0.201 -0.273 0.201 -0.623 0.409l-0.351 0.211L25.859 14.332c0.244 -0.518 0.501 -0.866 0.935 -1.246h0.312l0.312 -0.623h0.312l0.136 -0.273z" fill="#CBD55B"/><path d="M2.181 27.417h0.312c0.019 1.207 0.019 1.207 -0.156 1.558l0.312 0.156h-0.623l-0.312 -0.623H1.402l-0.156 -0.467 0.623 -0.467 0.312 0.156z" fill="#7226D6"/><path d="M14.955 19.94h0.312l-0.156 0.623h0.935c-0.196 0.391 -0.389 0.447 -0.779 0.623v0.467h-0.467l-0.156 -0.779h-0.623v-0.312h0.623v-0.312h0.312z" fill="#5164EB"/><path d="M24.925 0.156c1.256 0.145 2.356 0.39 3.427 1.09l0.156 0.312q-0.38 -0.072 -0.759 -0.146l-0.427 -0.082C26.95 1.246 26.95 1.246 26.638 1.09V0.779l-0.335 -0.057 -0.434 -0.079 -0.433 -0.077L25.08 0.467z" fill="#56B4EB"/><path d="m4.05 30.221 0.472 0.229c0.599 0.256 1.126 0.305 1.781 0.318l0.32 0.008c0.333 0.008 0.666 0.014 1 0.019q0.342 0.008 0.683 0.016 0.832 0.019 1.663 0.033v0.156q-1.106 0.012 -2.212 0.017 -0.376 0.002 -0.751 0.006c-0.361 0.004 -0.722 0.006 -1.084 0.007l-0.336 0.005c-0.676 0 -1.22 -0.099 -1.848 -0.347l0.312 -0.156z" fill="#FC4168"/><path d="M5.608 28.819h0.312v0.779l-0.779 0.312 0.156 0.623 -1.09 -0.156c0.235 -0.658 0.674 -0.881 1.246 -1.246z" fill="#FB204F"/><path d="m14.332 0.312 0.156 0.467c-1.62 0.016 -3.216 0.004 -4.829 -0.156V0.467c1.559 -0.097 3.11 -0.183 4.673 -0.156" fill="#205DF4"/><path d="M24.769 22.432c-0.421 0.233 -0.843 0.462 -1.266 0.691l-0.359 0.199c-0.655 0.353 -1.204 0.602 -1.958 0.668l0.312 -0.467c0.409 -0.029 0.409 -0.029 0.779 0v-0.312c1.906 -0.974 1.906 -0.974 2.492 -0.779" fill="#FE8A2D"/><path d="M22.588 15.889h0.623v0.467h-0.312l-0.156 0.623h-0.467v0.312h-0.467v0.312l-0.467 -0.156 0.292 -0.273c0.305 -0.323 0.458 -0.577 0.643 -0.974z" fill="#30A1E4"/><path d="m22.121 23.678 0.312 0.156 -0.935 0.935h-0.312v-0.312l-0.285 0.108 -0.377 0.136 -0.372 0.137c-0.397 0.094 -0.61 0.063 -0.991 -0.069l0.489 -0.159 0.64 -0.211 0.322 -0.105c0.433 -0.143 0.848 -0.285 1.253 -0.495z" fill="#F65921"/><path d="M6.231 8.724h1.402l0.156 0.312h1.09l0.156 0.312c-0.192 0.014 -0.192 0.014 -0.387 0.029l-0.509 0.04c-0.166 0.012 -0.333 0.025 -0.504 0.038 -0.382 0.04 -0.725 0.099 -1.093 0.205z" fill="#5D4DFA"/><path d="M15.266 21.809v0.312h-0.779v0.312c-0.467 0.312 -0.467 0.312 -1.09 0.312v0.312l-0.935 0.156 0.156 -0.779 1.714 -0.156v-0.312c0.323 -0.086 0.599 -0.156 0.935 -0.156" fill="#794BAE"/><path d="m6.231 22.432 0.156 0.467 -0.837 0.456c-0.28 0.153 -0.28 0.153 -0.41 0.478h-0.623c0.117 -0.458 0.117 -0.458 0.312 -0.935 0.302 -0.117 0.302 -0.117 0.623 -0.156 0.467 -0.312 0.467 -0.312 0.779 -0.312" fill="#974FDF"/><path d="m25.859 12.307 0.935 0.312c0.049 0.36 0.049 0.36 0 0.779 -0.389 0.282 -0.389 0.282 -0.779 0.467l-0.467 -0.312 0.779 -0.312 -0.234 -0.204C25.859 12.774 25.859 12.774 25.859 12.307m-0.623 1.402 0.312 0.156h-0.467z" fill="#34AFC3"/><path d="m8.256 21.342 0.312 0.156c-0.126 0.302 -0.126 0.302 -0.312 0.623l-0.467 0.156 -0.312 0.467c-0.487 0.107 -0.487 0.107 -0.935 0.156l-0.156 -0.312 0.369 -0.233 0.478 -0.302 0.477 -0.301c0.366 -0.219 0.366 -0.219 0.546 -0.41" fill="#8D58D6"/><path d="M4.673 28.819v0.312l0.312 0.156h-0.312l-0.049 0.273c-0.122 0.4 -0.31 0.652 -0.575 0.974l-0.467 -0.156 0.623 -0.779 -0.623 -0.156c0.74 -0.623 0.74 -0.623 1.09 -0.623" fill="#8522AE"/><path d="M0.156 26.171c0.759 0.428 0.759 0.428 0.935 0.779 0.011 0.24 0.013 0.48 0.01 0.72l-0.004 0.386L1.09 28.352c-0.496 -0.458 -0.701 -0.923 -0.935 -1.558z" fill="#945ED7"/><path d="M20.251 24.146v0.312c-0.412 0.227 -0.607 0.312 -1.09 0.312v0.312l-1.402 0.156v-0.312c1.735 -0.779 1.735 -0.779 2.492 -0.779" fill="#FD6232"/><path d="m22.744 16.824 0.312 0.156a242.392 242.392 0 0 1 -1.042 0.759l-0.296 0.217c-0.524 0.379 -1.003 0.686 -1.623 0.893v-0.312l0.467 -0.156 0.127 -0.312 0.185 -0.312c0.487 -0.117 0.487 -0.117 0.935 -0.156v-0.312h0.467v-0.312z" fill="#5997A4"/><path d="m28.196 8.879 0.156 0.623h0.312l0.156 0.623h-0.467v0.312l-0.623 0.312 -0.156 -0.779 0.467 -0.312 -0.156 -0.623z" fill="#23BAD8"/><path d="M19.94 12.93c-0.029 0.282 -0.029 0.282 -0.156 0.623 -0.399 0.273 -0.399 0.273 -0.779 0.467l-0.467 -0.623c0.407 -0.542 0.753 -0.511 1.402 -0.467" fill="#268FF4"/><path d="M10.749 22.432c0.321 0.068 0.321 0.068 0.623 0.156l-0.156 1.09 -0.935 -0.467c0.292 -0.604 0.292 -0.604 0.467 -0.779" fill="#6836E0"/><path d="M22.162 17.966 22.432 18.07l-0.312 0.935h-0.467l0.156 -0.623c-0.549 0.397 -0.549 0.397 -0.935 0.935h-0.312c0 -0.467 0 -0.467 0.251 -0.723l0.333 -0.251 0.329 -0.255c0.333 -0.173 0.333 -0.173 0.686 -0.122" fill="#F9AB32"/><path d="m24.925 15.111 0.156 0.467 -0.292 0.117c-0.355 0.164 -0.355 0.164 -0.458 0.506 -0.185 0.312 -0.185 0.312 -0.75 0.506L23.055 16.824c0.72 -0.759 0.72 -0.759 1.246 -0.935v-0.312h0.312v-0.312z" fill="#D1C35F"/><path d="m9.97 24.769 0.312 0.156c-1.064 1.294 -1.064 1.294 -1.558 1.558l-0.623 -0.156z" fill="#DB3962"/><path d="M8.724 12.151h0.467l0.156 0.935 0.779 0.156c-0.263 0.243 -0.263 0.243 -0.623 0.467 -0.428 -0.049 -0.428 -0.049 -0.779 -0.156l0.088 -0.438c0.106 -0.499 0.106 -0.499 -0.088 -0.964" fill="#5E48F2"/><path d="M12.93 5.141c0.263 0.224 0.263 0.224 0.467 0.623 -0.101 0.49 -0.275 0.941 -0.467 1.402 -0.312 -0.312 -0.312 -0.312 -0.353 -0.638l0.002 -0.375 -0.002 -0.375C12.618 5.452 12.618 5.452 12.93 5.141" fill="#5177EF"/><path d="m2.025 29.131 0.779 0.156 0.156 0.467 0.312 0.156 0.312 0.156 0.156 0.467c-0.698 -0.195 -1.191 -0.427 -1.714 -0.935z" fill="#884EC9"/><path d="m13.397 22.744 0.623 0.156 -0.312 0.156 -0.156 0.467h-1.09v0.312l-0.623 -0.156c0.857 -0.623 0.857 -0.623 1.558 -0.623z" fill="#DF5653"/><path d="m10.437 19.628 0.312 0.156c-1.064 1.294 -1.064 1.294 -1.558 1.558 -0.33 -0.068 -0.33 -0.068 -0.623 -0.156l0.369 -0.301 0.478 -0.39 0.477 -0.389c0.28 -0.23 0.28 -0.23 0.546 -0.478" fill="#8E6CDC"/><path d="m19.784 18.849 0.312 0.156 -0.312 0.312h-0.467v0.312l-1.558 0.779v-0.312h0.312v-0.312h0.467l0.312 -0.779c0.188 0.005 0.188 0.005 0.38 0.01 0.389 0.036 0.389 0.036 0.555 -0.166" fill="#557CB7"/><path d="M30.221 16.201h0.156c0.07 0.55 0.017 0.754 -0.296 1.224l-0.386 0.45 -0.383 0.455C28.975 18.693 28.975 18.693 28.663 18.849l0.312 -0.935h0.312l0.156 -0.467 0.224 -0.214c0.301 -0.313 0.412 -0.626 0.555 -1.032" fill="#FEC626"/><path d="M10.437 13.241c0.312 0.312 0.312 0.312 0.341 0.906 -0.012 0.492 -0.065 0.952 -0.185 1.431 -0.372 -0.695 -0.518 -1.042 -0.321 -1.83z" fill="#7A6AE6"/><path d="M22.432 9.191v1.246l-0.136 -0.302c-0.148 -0.345 -0.148 -0.345 -0.487 -0.477a18.849 18.849 0 0 0 -0.798 -0.088l-0.43 -0.04L20.251 9.503v-0.156c0.742 -0.148 1.428 -0.169 2.181 -0.156" fill="#65B3EC"/><path d="m20.563 17.447 0.779 0.312 -0.467 0.156 -0.146 0.312c-0.166 0.312 -0.166 0.312 -0.497 0.428L19.94 18.693c0 -0.467 0 -0.467 0.156 -0.935h0.467z" fill="#3698EC"/><path d="m8.13 9.415 0.513 0.048L9.035 9.503v0.156l-2.181 0.156v0.779l-0.312 -0.312c0.058 -0.409 0.058 -0.409 0.156 -0.779 0.534 -0.178 0.874 -0.142 1.431 -0.088" fill="#8977EB"/><path d="M24.925 30.221h0.312l0.156 0.312h1.09l-0.156 0.312h-2.648v-0.156l1.246 -0.156z" fill="#F6481D"/><path d="m25.08 22.121 0.312 0.156c-0.768 0.588 -1.556 1.123 -2.492 1.402l-0.467 -0.156c0.434 -0.239 0.869 -0.475 1.305 -0.711l0.375 -0.207 0.359 -0.193 0.331 -0.18z" fill="#F56D15"/><path d="M28.508 18.849v0.935c-0.238 0.216 -0.238 0.216 -0.545 0.419l-0.307 0.206L27.417 20.563v-0.623l0.467 -0.156c0.17 -0.301 0.17 -0.301 0.312 -0.623z" fill="#FCA31D"/><path d="m12.462 23.523 0.312 0.156 -0.312 0.156zm-0.38 0.302L12.462 23.834v0.779l-0.156 -0.312 -0.214 0.234C11.839 24.769 11.839 24.769 11.528 24.769a15.578 15.578 0 0 1 0 -0.779c0.156 -0.156 0.156 -0.156 0.555 -0.165" fill="#FB483A"/><path d="M18.226 20.251v0.312l0.312 0.156c-0.618 0.281 -1.197 0.388 -1.869 0.467 0.412 -0.455 0.918 -0.935 1.558 -0.935" fill="#E28C55"/><path d="m9.191 12.151 1.246 0.935c-0.577 0.144 -0.722 0.169 -1.246 0z" fill="#7A6AE6"/><path d="m15.578 4.673 0.623 0.312 -0.088 0.263c-0.08 0.422 -0.016 0.725 0.088 1.139h-0.312a40.347 40.347 0 0 1 -0.243 -0.594l-0.137 -0.334C15.422 5.141 15.422 5.141 15.578 4.673" fill="#2378ED"/><path d="m17.915 21.03 -0.224 0.37c-0.141 0.236 -0.277 0.475 -0.399 0.72h-0.312v-0.623l-0.312 -0.312c0.72 -0.331 0.72 -0.331 1.246 -0.156" fill="#F98133"/><path d="M19.317 20.251c-0.156 0.467 -0.156 0.467 -0.535 0.74L18.382 21.186l-0.312 -0.156 0.312 -0.312 -0.156 -0.467c0.415 -0.208 0.649 -0.105 1.09 0" fill="#FA9131"/><path d="m21.186 18.07 0.312 0.156a14.176 14.176 0 0 1 -0.623 0.623h-0.312v0.312c-0.896 0.467 -0.896 0.467 -1.246 0.467v-0.312a15.266 15.266 0 0 1 0.779 -0.467c0.573 -0.353 0.573 -0.353 1.09 -0.779" fill="#CFAA60"/><path d="m13.709 17.447 0.312 0.156c-0.204 0.458 -0.204 0.458 -0.467 0.935l-0.467 0.156 -0.312 -0.156c0.217 -0.525 0.464 -0.777 0.935 -1.09" fill="#5462F6"/><path d="M16.045 17.447c0.622 0.213 1.059 0.507 1.558 0.935 -0.653 -0.093 -1.248 -0.245 -1.869 -0.467z" fill="#6A90E9"/><path d="m5.296 27.729 0.935 0.156 -0.312 0.156v0.312h-0.312v0.312l-0.623 0.312z" fill="#7A1FBF"/><path d="m16.668 21.342 -0.156 0.312h-0.623v0.312h-0.467v0.312l-0.935 0.156v-0.312h0.779l0.107 -0.292c0.304 -0.493 0.749 -0.76 1.295 -0.487" fill="#D67458"/><path d="M15.422 16.98v0.156a48.447 48.447 0 0 1 -0.662 0.166l-0.372 0.093c-0.384 0.055 -0.626 0.017 -0.991 -0.103 0.744 -0.454 1.176 -0.498 2.025 -0.312" fill="#8B9DE7"/><path d="M4.673 0.623h2.025l-0.467 0.156v0.312l-0.273 -0.088C5.576 0.928 5.352 0.973 4.985 1.09z" fill="#4B54FA"/><path d="M15.422 5.296c0.368 0.368 0.388 0.589 0.467 1.09h0.312c0.175 0.876 0.175 0.876 0 1.402a204.382 204.382 0 0 1 -0.389 -0.983l-0.219 -0.553C15.422 5.764 15.422 5.764 15.422 5.296" fill="#8CBFF6"/><path d="m14.955 3.739 0.467 0.312c0.107 0.565 0.107 0.565 0.156 1.09l-0.312 0.156c-0.196 -0.453 -0.312 -0.747 -0.312 -1.246l-0.467 -0.156z" fill="#6FA1ED"/><path d="M8.101 19.784c0.188 0.564 0.085 0.723 -0.156 1.246l-0.779 -0.156v-0.312l0.292 -0.039c0.36 -0.088 0.36 -0.088 0.526 -0.438z" fill="#763CE1"/><path d="M8.101 19.472c0.409 0.058 0.409 0.058 0.779 0.156 -0.201 0.449 -0.414 0.759 -0.779 1.09v-0.779l-0.312 -0.156z" fill="#8254DE"/><path d="M6.543 10.437c0.667 0.317 1.264 0.672 1.869 1.09l-0.467 0.156c-0.352 -0.178 -0.352 -0.178 -0.73 -0.438l-0.382 -0.256L6.543 10.749z" fill="#735BDE"/><path d="M14.799 2.96c0.156 0.467 0.156 0.467 0.156 0.935h-1.09z" fill="#266BE9"/><path d="m4.05 30.221 1.714 0.623v0.156c-0.751 0.03 -1.323 -0.038 -2.025 -0.312l0.312 -0.156z" fill="#ED6488"/><path d="m14.176 22.432 0.935 0.156c-0.175 0.234 -0.175 0.234 -0.467 0.467 -0.496 0.029 -0.496 0.029 -0.935 0l0.312 -0.156z" fill="#F86038"/><path d="M17.291 18.382h1.402l0.156 0.779q-0.346 -0.105 -0.691 -0.214l-0.389 -0.12C17.447 18.693 17.447 18.693 17.291 18.382" fill="#327AE1"/><path d="M13.397 4.518v1.246l-0.467 -0.467 -0.312 0.156 0.156 -0.779c0.467 -0.156 0.467 -0.156 0.623 -0.156" fill="#3863F5"/><path d="m13.553 3.894 0.623 0.156 -0.623 1.558h-0.156c-0.022 -1.157 -0.022 -1.157 0.156 -1.714" fill="#678AEA"/><path d="m6.231 21.653 0.156 0.623 -1.09 0.623 -0.156 -0.467h0.312l0.156 -0.312h0.467z" fill="#772BDA"/><path d="m20.095 11.839 0.312 0.156 -0.779 0.935 -0.623 -0.156z" fill="#6BABEE"/><path d="M27.602 12.044 27.884 12.151a24.769 24.769 0 0 1 -0.779 0.935h-0.312c0 -0.623 0 -0.623 0.195 -0.905C27.261 11.995 27.261 11.995 27.602 12.044" fill="#3EB0B1"/><path d="m12.151 7.789 0.156 0.467h-0.312v0.312c-0.292 0.166 -0.292 0.166 -0.623 0.312l-0.312 -0.156v-0.467h0.623c0.273 -0.221 0.273 -0.221 0.467 -0.467" fill="#3D5FF7"/><path d="M29.91 3.739h0.312c0.254 0.642 0.353 1.045 0.156 1.714 -0.405 -0.422 -0.467 -0.606 -0.496 -1.207z" fill="#27ACE3"/><path d="m6.854 30.065 0.467 0.156c-0.276 0.35 -0.403 0.46 -0.854 0.513l-0.422 -0.017 -0.425 -0.013L5.296 30.688c0.46 -0.307 0.717 -0.372 1.246 -0.467z" fill="#F61E4E"/><path d="M7.166 27.261c-0.01 0.282 -0.01 0.282 -0.156 0.623 -0.555 0.273 -0.555 0.273 -1.09 0.467v-0.312h0.312v-0.312c0.539 -0.467 0.539 -0.467 0.935 -0.467" fill="#D22C68"/><path d="M11.216 19.317h0.312l-0.156 0.935h-0.467l-0.156 -0.312c0.214 -0.312 0.214 -0.312 0.467 -0.623" fill="#6243EF"/><path d="m25.859 12.307 0.935 0.312v0.623l-0.779 -0.156z" fill="#2BB3D1"/><path d="M29.286 9.191h0.623c-0.204 0.613 -0.455 0.97 -0.935 1.402z" fill="#55BCA1"/><path d="m4.518 29.754 0.312 0.312h0.467v0.467l-1.09 -0.156z" fill="#EF1F56"/><path d="M7.477 11.528h0.467l0.312 0.779 -0.467 0.156 -0.312 -0.156z" fill="#6246F8"/><path d="M20.407 11.839h0.623l-0.156 0.467 -0.779 0.156z" fill="#2192F2"/><path d="m1.246 3.116 0.156 0.467c-0.302 0.497 -0.302 0.497 -0.623 0.935 -0.212 -0.424 -0.134 -0.643 0 -1.09z" fill="#614BF7"/><path d="M0.623 3.427h0.156l-0.156 1.246H0.312l-0.156 0.312c0.079 -0.579 0.174 -1.049 0.467 -1.558" fill="#937FEA"/><path d="m1.246 2.492 0.156 0.312 0.312 0.156c-0.333 0.333 -0.488 0.378 -0.935 0.467 0.292 -0.759 0.292 -0.759 0.467 -0.935" fill="#7E74E8"/><path d="M6.075 28.196h0.467l0.156 0.623h-0.623l-0.156 -0.467z" fill="#F4284F"/><path d="m0.935 26.95 0.467 0.156c0.107 0.321 0.107 0.321 0.156 0.623l-0.467 0.156c-0.156 -0.156 -0.156 -0.156 -0.165 -0.555z" fill="#7324E6"/><path d="m25.548 21.342 0.467 0.156c-0.896 0.779 -0.896 0.779 -1.246 0.779 0.177 -0.53 0.307 -0.657 0.779 -0.935" fill="#FF9A28"/><path d="m20.719 17.759 0.623 0.312c-0.394 0.436 -0.655 0.694 -1.246 0.779v-0.312l0.467 -0.156c0.114 -0.314 0.114 -0.314 0.156 -0.623" fill="#4B8EB5"/><path d="M10.126 14.955h0.312c0.034 0.601 -0.062 1.011 -0.312 1.558h-0.156z" fill="#5A3EDE"/><path d="m29.91 9.503 0.623 0.156v1.246h-0.156l-0.156 -0.935 -0.312 0.156z" fill="#F8E659"/><path d="M17.291 8.724h1.09v0.467l-1.09 -0.156z" fill="#4F90E6"/></svg>