<svg version="1.1" xmlns="http://www.w3.org/2000/svg" width="159.256" height="38" viewBox="0 0 159.256 38"><path d="m8.945 -0.025 0.626 -0.001q1.025 -0.001 2.049 0l1.433 -0.001q1.504 0 3.008 0.001 1.914 0.001 3.827 -0.001 1.482 -0.001 2.964 0 0.705 0 1.409 0c2.149 -0.002 4.296 0.001 6.444 0.103l0.438 0.019c2.016 0.112 3.527 0.957 4.929 2.373 1.594 1.848 1.851 4.085 1.835 6.444l0.004 0.752c0.004 0.673 0.002 1.345 0 2.018 -0.002 0.709 0 1.417 0.001 2.126q0.002 1.784 -0.004 3.568c-0.004 1.369 -0.003 2.738 0.002 4.107q0.005 1.773 0.002 3.546c-0.001 0.703 -0.001 1.406 0.001 2.109 0.003 0.784 -0.001 1.569 -0.005 2.353l0.005 0.694c-0.023 2.265 -0.562 4.277 -2.204 5.904 -2.177 1.801 -4.234 1.937 -6.961 1.943l-0.711 0.004c-0.773 0.004 -1.547 0.006 -2.32 0.008l-0.803 0.002q-1.888 0.006 -3.777 0.008 -2.169 0.003 -4.338 0.015 -1.684 0.008 -3.368 0.009c-0.668 0 -1.337 0.002 -2.005 0.007 -0.747 0.005 -1.494 0.005 -2.241 0.003l-0.658 0.007c-2.424 -0.016 -4.646 -0.668 -6.419 -2.366C0.156 33.627 -0.059 31.286 -0.053 28.506l-0.003 -0.707q-0.003 -0.95 -0.002 -1.9 0 -0.797 -0.002 -1.594a1445.143 1445.143 0 0 1 -0.001 -3.765c0.001 -1.289 -0.001 -2.578 -0.005 -3.866q-0.005 -1.669 -0.004 -3.337c0 -0.662 0 -1.324 -0.003 -1.985 -0.003 -0.739 -0.001 -1.477 0.001 -2.216l-0.004 -0.652c0.016 -2.439 0.509 -4.403 2.17 -6.222C4.057 0.356 6.316 -0.03 8.945 -0.025M17.377 4.583c-0.468 0.863 -0.846 1.729 -1.179 2.651 -1.134 3.139 -1.134 3.139 -2.036 3.663 -1.565 0.567 -3.367 0.575 -5.015 0.703 -0.379 0.03 -0.379 0.03 -0.745 0.239 -0.103 0.438 -0.103 0.438 0 0.955a9.739 9.739 0 0 0 1.229 0.931q0.368 0.249 0.735 0.5l0.366 0.245c0.465 0.317 0.912 0.653 1.357 0.998l0.403 0.31c0.464 0.405 0.49 0.631 0.551 1.253 -0.061 4.201 -2.544 7.827 -5.406 10.658 2.15 -0.766 3.983 -2.519 5.723 -3.952a130.04 130.04 0 0 1 2.273 -1.825l0.341 -0.27c0.878 -0.689 1.353 -0.901 2.457 -0.889 0.81 0.103 1.424 0.493 2.107 0.92 0.138 0.082 0.276 0.164 0.418 0.248A71.799 71.799 0 0 1 21.96 22.533c0.693 -0.356 0.693 -0.356 1.146 -0.955 -0.08 -0.557 -0.171 -1.106 -0.274 -1.659 -0.495 -2.651 -0.495 -2.651 -0.086 -3.617 0.448 -0.563 0.965 -0.975 1.542 -1.396l0.334 -0.251A154.864 154.864 0 0 1 25.588 13.94q0.448 -0.334 0.895 -0.668l0.348 -0.257C27.144 12.781 27.144 12.781 27.497 12.412c-0.032 -0.398 -0.032 -0.398 -0.191 -0.764 -0.435 -0.218 -0.738 -0.237 -1.222 -0.273 -4.85 -0.388 -4.85 -0.388 -5.559 -1.207 -0.282 -0.514 -0.472 -1.022 -0.665 -1.575q-0.255 -0.707 -0.513 -1.412a59.196 59.196 0 0 1 -0.347 -0.989L18.837 5.729l-0.142 -0.418C18.525 4.898 18.525 4.898 17.95 4.583z" fill="#4C64F5"/><path d="M37.618 9.548h0.191q0.027 4.347 0.04 8.695 0.005 2.019 0.018 4.038c0.008 1.3 0.013 2.6 0.015 3.9q0.002 0.742 0.008 1.484c0.006 0.696 0.006 1.391 0.006 2.087l0.008 0.614C37.892 32.555 37.288 34.526 35.708 36.09c-2.18 1.803 -4.237 1.938 -6.967 1.94l-0.713 0.003q-0.962 0.003 -1.925 0.005 -0.603 0.001 -1.206 0.002 -1.891 0.004 -3.782 0.005 -2.174 0.001 -4.348 0.01 -1.687 0.006 -3.374 0.006 -1.005 0 -2.009 0.005c-0.748 0.004 -1.496 0.003 -2.244 0.002l-0.663 0.005C7.097 38.066 5.896 37.86 4.583 37.427c0.277 -0.58 0.549 -0.974 1.015 -1.42l0.364 -0.353L6.301 35.327l0.442 -0.454C10.775 30.935 10.775 30.935 11.839 30.935v-0.382c1.033 -0.764 1.033 -0.764 1.528 -0.764v-0.382c1.152 -0.87 2.53 -1.473 3.824 -2.104 0.972 -0.475 1.918 -0.991 2.86 -1.524l0.445 -0.251c1.98 -1.122 3.889 -2.27 5.702 -3.649l0.318 -0.241c0.299 -0.227 0.596 -0.456 0.893 -0.686C27.879 20.623 27.879 20.623 28.261 20.623v-0.382c0.356 -0.31 0.356 -0.31 0.824 -0.656 0.635 -0.472 0.635 -0.472 1.214 -1.009C30.553 18.332 30.553 18.332 30.935 18.332l0.143 -0.334c0.274 -0.493 0.579 -0.823 1.003 -1.193h0.382l0.145 -0.332c0.27 -0.492 0.587 -0.828 0.977 -1.232 0.803 -0.875 1.501 -1.798 2.184 -2.769l0.291 -0.412A28.261 28.261 0 0 0 37.618 9.548" fill="#FC5627"/><path d="M37.618 9.548h0.191v22.533h-0.382c-0.229 -2.26 -0.177 -4.488 -0.107 -6.755l0.03 -1.095q0.037 -1.326 0.077 -2.653c-0.725 0.242 -0.906 0.558 -1.372 1.158 -0.761 0.954 -1.566 1.818 -2.447 2.661l-0.382 0.382 -0.477 0.131c-0.625 0.234 -1.001 0.473 -1.531 0.866 -1.017 0.723 -2.069 1.286 -3.195 1.819l-0.582 0.278c-1.256 0.582 -2.402 0.975 -3.771 1.193 -0.738 0.137 -1.378 0.407 -2.057 0.721 -0.479 0.169 -0.868 0.173 -1.372 0.147l-0.191 0.382h-0.573c-0.962 0.264 -1.843 0.695 -2.745 1.114C16.231 32.653 16.231 32.653 15.563 32.868c-0.484 0.129 -0.484 0.129 -0.764 0.466 -0.427 0.409 -0.857 0.395 -1.432 0.465 -0.255 0.061 -0.51 0.123 -0.764 0.191l0.191 0.573 -0.446 0.195 -0.58 0.258 -0.577 0.255C10.678 35.492 10.678 35.492 10.312 35.899h-0.764l-0.382 0.764h-0.382c-0.221 -0.663 -0.165 -1.032 -0.06 -1.719l0.086 -0.609c0.192 -0.627 0.364 -0.794 0.929 -1.11 0.525 -0.131 0.525 -0.131 0.955 -0.191l0.084 -0.358C10.884 32.271 10.884 32.271 11.075 31.889h0.573c0.363 -0.369 0.669 -0.768 0.99 -1.175 0.375 -0.382 0.588 -0.472 1.111 -0.544l0.191 0.382 0.215 -0.322c0.443 -0.546 0.965 -0.947 1.504 -1.396l0.298 -0.441C16.231 28.07 16.231 28.07 16.744 28.023L17.186 28.07l0.05 -0.351c0.184 -0.54 0.374 -0.625 0.869 -0.902l0.519 -0.295q0.775 -0.422 1.551 -0.842c2.132 -1.154 4.123 -2.361 6.059 -3.827l0.32 -0.242a125.075 125.075 0 0 0 0.873 -0.672C27.879 20.623 27.879 20.623 28.261 20.623v-0.382c0.356 -0.31 0.356 -0.31 0.824 -0.656 0.635 -0.472 0.635 -0.472 1.214 -1.009C30.553 18.332 30.553 18.332 30.935 18.332l0.143 -0.334c0.274 -0.493 0.579 -0.823 1.003 -1.193h0.382l0.145 -0.332c0.27 -0.492 0.587 -0.828 0.977 -1.232 0.803 -0.875 1.501 -1.798 2.184 -2.769l0.291 -0.412A28.261 28.261 0 0 0 37.618 9.548" fill="#FD8F2F"/><path d="m96.05 15.276 0.191 -1.146h2.673c0.017 1.859 0.031 3.718 0.04 5.578q0.006 1.295 0.018 2.59 0.012 1.252 0.015 2.503 0.002 0.476 0.008 0.952c0.027 2.199 -0.076 4.152 -1.652 5.843 -1.712 1.481 -3.685 1.79 -5.882 1.668 -0.894 -0.093 -1.677 -0.408 -2.476 -0.803l-0.632 -0.31c-0.965 -0.853 -1.663 -1.955 -1.826 -3.246L86.502 28.261c0.462 -0.031 0.922 -0.054 1.384 -0.072l0.395 -0.029c0.384 -0.011 0.384 -0.011 1.085 0.101 0.45 0.55 0.45 0.55 0.764 1.146 0.586 0.657 0.959 0.922 1.854 1 1.199 0.029 1.997 0.045 2.92 -0.809 0.827 -0.916 0.978 -1.591 1.062 -2.805l0.048 -0.683L96.05 25.588l-0.287 0.23c-1.506 1.174 -2.75 1.712 -4.678 1.488 -1.8 -0.377 -3.214 -1.371 -4.285 -2.867 -1.046 -1.903 -1.085 -4.203 -0.536 -6.268 0.642 -1.745 1.616 -3.02 3.293 -3.85 2.341 -0.955 4.54 -0.613 6.492 0.955m-5.687 2.027c-0.959 1.095 -1.36 2.05 -1.379 3.51 0.113 0.973 0.319 1.91 0.955 2.673 0.957 0.747 1.843 1.231 3.086 1.103 1.29 -0.222 2.032 -0.701 2.798 -1.784 0.617 -1.266 0.604 -2.731 0.191 -4.058 -0.697 -1.226 -1.259 -1.837 -2.602 -2.242 -1.122 -0.229 -2.199 0.025 -3.049 0.797" fill="#171717"/><path d="M61.01 14.465c0.544 0.49 0.87 0.947 1.241 1.575l0.287 -0.314c1.295 -1.364 2.119 -1.809 3.997 -1.87 1.151 0.029 2.075 0.085 2.972 0.847 1.431 1.511 1.584 2.943 1.565 4.957l-0.002 0.663c-0.002 0.696 -0.007 1.393 -0.012 2.089q-0.003 0.71 -0.005 1.42 -0.007 1.737 -0.019 3.474h-2.864l-0.011 -0.747c-0.015 -0.92 -0.032 -1.839 -0.049 -2.759q-0.011 -0.596 -0.02 -1.191c-0.009 -0.573 -0.02 -1.145 -0.031 -1.718l-0.007 -0.533c-0.024 -1.051 -0.136 -1.976 -0.454 -2.982 -0.723 -0.575 -1.777 -0.581 -2.673 -0.573 -0.736 0.227 -1.032 0.402 -1.457 1.042 -0.354 0.915 -0.353 1.737 -0.36 2.71l-0.01 0.586c-0.01 0.615 -0.017 1.229 -0.023 1.844q-0.01 0.627 -0.02 1.254c-0.016 1.022 -0.029 2.044 -0.04 3.067h-3.055l-0.008 -0.788c-0.011 -0.967 -0.026 -1.935 -0.042 -2.902a262.562 262.562 0 0 1 -0.016 -1.255c-0.006 -0.602 -0.016 -1.204 -0.027 -1.806l-0.004 -0.564c-0.022 -1.009 -0.091 -1.749 -0.667 -2.615 -0.673 -0.497 -1.199 -0.618 -2.017 -0.573 -0.862 0.135 -1.278 0.431 -1.802 1.146 -0.438 1.013 -0.447 1.969 -0.461 3.054l-0.011 0.547c-0.011 0.574 -0.02 1.148 -0.029 1.722q-0.011 0.585 -0.022 1.171 -0.027 1.431 -0.049 2.863h-2.864l-0.191 -12.985 3.055 -0.191c0.191 0.382 0.191 0.382 0.191 1.146l0.525 -0.454c1.631 -1.349 3.626 -1.29 5.49 -0.358" fill="#181818"/><path d="M19.668 0q1.818 -0.007 3.635 -0.011 0.616 -0.002 1.232 -0.004c2.051 -0.008 4.1 -0.008 6.149 0.09l0.442 0.019c2.025 0.112 3.538 0.95 4.948 2.374 1.547 1.793 1.941 4.016 1.833 6.325 -0.144 1.118 -0.555 1.793 -1.243 2.664l-0.356 0.508C35.407 13.248 34.419 14.454 33.417 15.658l-0.274 0.346c-0.509 0.64 -1.07 1.153 -1.696 1.672 -0.274 0.233 -0.533 0.484 -0.787 0.739 -0.42 0.42 -0.847 0.821 -1.289 1.217l-0.39 0.35C28.643 20.241 28.643 20.241 28.261 20.241v0.382c-2.57 2.155 -5.629 3.946 -8.584 5.513 -0.378 0.185 -0.378 0.185 -0.582 0.407 -0.382 0.008 -0.764 0.008 -1.146 0v-0.382h-0.764l-0.191 0.573c-0.185 -0.596 -0.189 -1.054 -0.107 -1.671l0.059 -0.462L16.995 24.251l-0.573 -0.382c-0.131 -0.692 -0.131 -0.692 -0.191 -1.337l-0.346 0.191c-0.537 0.246 -0.977 0.191 -1.564 0.191 0.571 -0.628 1.188 -1.166 1.862 -1.683l0.451 -0.35c0.778 -0.365 1.425 -0.4 2.27 -0.259 0.586 0.226 1.103 0.527 1.635 0.859 0.138 0.082 0.276 0.164 0.418 0.248A71.799 71.799 0 0 1 21.96 22.342l0.955 -0.573 -0.125 -0.747 -0.161 -0.984 -0.083 -0.49c-0.381 -2.351 -0.381 -2.351 0.029 -3.259 0.364 -0.471 0.728 -0.804 1.199 -1.167l0.507 -0.393a118.201 118.201 0 0 1 2.214 -1.616c0.439 -0.308 0.439 -0.308 0.812 -0.7v-0.573c-0.435 -0.218 -0.738 -0.237 -1.222 -0.273l-0.513 -0.041 -0.544 -0.044c-3.819 -0.34 -3.819 -0.34 -4.495 -1.109 -0.339 -0.516 -0.527 -1.014 -0.731 -1.596l-0.243 -0.669q-0.249 -0.698 -0.492 -1.398l-0.244 -0.666 -0.216 -0.613c-0.234 -0.514 -0.234 -0.514 -0.783 -0.628L17.377 4.774l-0.252 0.671C15.221 10.462 15.221 10.462 14.131 11.075a14.894 14.894 0 0 1 -1.408 0.31l-0.403 0.072C11.019 11.679 9.719 11.779 8.402 11.839l-0.191 0.573 -0.191 -0.573c0.795 -0.578 1.48 -0.659 2.435 -0.68C12.705 11.073 12.705 11.073 14.703 10.121c0.299 -0.515 0.299 -0.515 0.504 -1.122l0.249 -0.665L15.706 7.638l0.258 -0.695C16.254 6.159 16.54 5.375 16.804 4.583l0.382 -0.191v-0.764c0.573 -0.191 0.573 -0.191 0.991 -0.012L18.523 3.819v0.382l0.955 0.191v0.573h0.382l-0.049 0.378c-0.109 0.937 -0.172 1.748 0.049 2.678h0.382l0.382 -0.382h0.573l0.191 1.719 0.573 0.191 -0.191 0.764 1.528 0.382 0.167 -0.358C23.678 9.93 23.678 9.93 24.06 9.548l0.382 0.573c0.358 0.422 0.358 0.422 0.764 0.764h0.573l0.382 0.191 0.191 -0.382c0.573 0 0.573 0 1.146 0.191h0.573c0.363 1.032 -0.052 2.057 -0.382 3.055 -0.224 0.434 -0.456 0.764 -0.764 1.146l-0.764 -0.382 -0.322 0.37C25.355 15.505 25.076 15.588 24.442 15.658l-0.191 0.955 -0.955 0.191c-0.305 1.493 -0.043 2.907 0.191 4.392l0.162 -0.368c0.298 -0.537 0.602 -0.596 1.175 -0.778l0.573 -0.191v0.382l0.406 -0.191c0.599 -0.208 1.066 -0.22 1.695 -0.191v-1.528l0.382 0.191c0.119 0.489 0.119 0.489 0.191 0.955h0.573l0.143 -0.561C29.025 18.332 29.025 18.332 29.395 18.165c0.322 -0.019 0.644 -0.024 0.967 -0.024v-1.337h0.573v-1.146h-0.382v-0.382l1.719 -0.191 -0.191 -0.955c0.573 -0.382 0.573 -0.382 1.146 -0.382l0.191 -1.719 0.382 0.382 0.072 -0.656L33.99 11.075c0.475 -0.238 0.651 -0.148 1.146 0v-1.337h-0.382v-0.382c1.265 -0.239 1.265 -0.239 1.91 0.191v-0.382h0.573c0.015 -0.278 0.027 -0.557 0.036 -0.835l0.02 -0.47L37.236 7.447l-0.573 -0.382h0.764l-0.382 -0.191c-0.414 -0.609 -0.445 -1.216 -0.518 -1.927 -0.064 -0.43 -0.206 -0.76 -0.436 -1.128l0.191 -0.191 -1.146 -0.191 -0.191 -0.573h-1.337l-0.191 -1.146 -0.358 0.203L32.653 2.1l-0.382 -0.191V1.528l-1.146 0.191 -0.573 -0.955 -0.382 0.573 -0.955 -0.191v0.382l-1.146 0.191 -0.191 -0.382 -0.382 0.382 -0.191 -0.382 0.191 -0.573a772.984 772.984 0 0 0 -2.385 -0.011q-0.405 -0.002 -0.81 -0.004c-0.39 -0.002 -0.779 -0.003 -1.169 -0.004l-0.709 -0.003c-0.619 0.021 -1.193 0.099 -1.802 0.213 -0.298 0.02 -0.597 0.033 -0.895 0.036l-0.432 0.008C18.904 0.955 18.904 0.955 18.332 0.573l0.561 -0.072L19.477 0.382z" fill="#4874EB"/><path d="M130.445 14.464 130.804 14.703l0.401 0.245c1.423 0.955 2.328 2.327 2.755 3.983 0.388 2.327 0.136 4.297 -1.243 6.234 -1.067 1.283 -2.347 2.214 -4.013 2.523 -2.311 0.168 -4.16 -0.028 -5.991 -1.552 -1.525 -1.474 -2.209 -3.303 -2.279 -5.394 0.047 -2.011 0.77 -3.605 2.125 -5.08 1.971 -1.871 5.419 -2.585 7.887 -1.199m-6.205 3.653c-0.741 1.425 -0.796 2.663 -0.501 4.225 0.211 0.557 0.457 1.013 0.764 1.528h0.382v0.382c1.046 0.617 2.06 0.89 3.267 0.7 1.13 -0.34 1.801 -1.087 2.461 -2.037 0.548 -1.049 0.523 -2.282 0.382 -3.437 -0.306 -0.961 -0.708 -1.811 -1.552 -2.399 -1.952 -0.976 -3.823 -0.633 -5.204 1.038" fill="#171717"/><path d="M157.156 15.085v0.382h0.382q0.186 0.364 0.37 0.728l0.208 0.409c0.322 0.677 0.4 1.199 0.398 1.94v0.602l-0.003 0.649 -0.001 0.665c-0.001 0.702 -0.003 1.405 -0.006 2.107q-0.002 0.714 -0.003 1.427 -0.003 1.751 -0.009 3.502l-2.864 -0.191 -0.191 -0.955 -0.398 0.244 -0.521 0.317 -0.517 0.316c-1.113 0.633 -2.282 0.585 -3.529 0.46 -1.258 -0.393 -2.137 -1.009 -2.864 -2.1 -0.559 -1.186 -0.578 -2.445 -0.179 -3.688C148.517 20.391 149.809 19.848 151.618 19.477c0.743 -0.092 1.484 -0.13 2.232 -0.157A8.86 8.86 0 0 0 155.437 19.095c-0.027 -1.118 -0.027 -1.118 -0.644 -1.993 -0.851 -0.507 -1.629 -0.591 -2.602 -0.489 -0.712 0.26 -1.053 0.433 -1.474 1.068C150.281 18.141 150.281 18.141 149.622 18.234l-0.725 -0.033 -0.731 -0.026L147.608 18.141c0.022 -1.21 0.289 -1.83 1.126 -2.706C151.178 13.312 154.528 13.384 157.156 15.085m-6.588 7.221c-0.381 0.556 -0.491 0.886 -0.477 1.563 0.378 0.665 0.789 1.091 1.528 1.337 1.252 0.148 2.035 -0.023 3.055 -0.764 0.76 -0.7 0.867 -1.304 0.94 -2.294Q155.628 21.768 155.628 21.387c-2.67 -0.127 -2.67 -0.127 -5.06 0.919" fill="#181818"/><path d="M82.412 14.742c0.911 0.678 1.485 1.546 1.798 2.635 0.087 0.767 0.093 1.531 0.098 2.303l0.01 0.662c0.01 0.695 0.017 1.389 0.023 2.084q0.01 0.708 0.02 1.417 0.024 1.732 0.04 3.464c-0.583 0.291 -1.1 0.16 -1.742 0.108l-0.741 -0.059L81.347 27.306l-0.191 -1.146 -0.382 0.442c-0.925 0.907 -1.968 1.121 -3.222 1.17 -1.291 -0.039 -2.44 -0.3 -3.439 -1.155 -0.937 -1.021 -1.269 -2.077 -1.226 -3.454 0.125 -0.954 0.47 -1.651 1.188 -2.297 1.919 -1.379 4.556 -1.866 6.886 -1.487L81.347 19.477c-0.149 -1.314 -0.149 -1.314 -0.835 -2.399C79.63 16.596 78.919 16.543 77.909 16.613c-0.704 0.262 -1.056 0.438 -1.475 1.068C76 18.141 76 18.141 75.341 18.234l-0.725 -0.033 -0.731 -0.026L73.327 18.141c0.096 -1.205 0.385 -1.965 1.291 -2.788 2.301 -1.835 5.225 -2.013 7.795 -0.611m-6.138 7.648c-0.358 0.686 -0.399 1.099 -0.275 1.862 0.661 0.661 1.199 0.984 2.124 1.015 0.961 -0.016 1.691 -0.238 2.459 -0.824 0.639 -0.695 0.806 -1.347 0.812 -2.279 -0.012 -0.259 -0.027 -0.517 -0.048 -0.776 -2.718 -0.161 -2.718 -0.161 -5.072 1.003" fill="#181818"/><path d="M8.161 -0.022h0.373q0.604 0 1.209 0.003l0.843 0.001q1.105 0.001 2.209 0.005 1.129 0.003 2.258 0.004Q17.265 -0.006 19.477 0v0.573l-0.514 0q-2.41 -0.001 -4.82 0.016c-0.826 0.006 -1.652 0.009 -2.477 0.008 -0.799 -0.001 -1.597 0.003 -2.396 0.011q-0.454 0.003 -0.909 0C6.416 0.597 4.927 0.833 3.246 1.91l-0.359 0.226C2.028 2.759 1.604 3.655 1.146 4.583l-0.206 0.363C0.557 5.817 0.549 6.75 0.548 7.689l-0.002 0.705 0.001 0.752 -0.001 0.777q0 0.811 0.001 1.622 0.001 1.041 -0.001 2.083 -0.001 0.8 0 1.602 0 0.571 -0.001 1.143l0.002 0.695 0 0.615C0.521 18.132 0.521 18.132 0.764 18.332c0.024 0.668 0.024 0.668 0 1.337l-0.191 0.191a33.417 33.417 0 0 0 -0.024 1.48l-0.002 0.415c0.001 0.57 0.015 1.108 0.129 1.668 0.107 0.543 0.058 0.997 -0.007 1.546A20.05 20.05 0 0 0 0.573 25.97l0.191 0.191c0.014 0.346 0.016 0.692 0.012 1.038l-0.005 0.572L0.764 28.261v0.382c-0.092 0.711 -0.188 1.409 -0.382 2.1l0.358 -0.119L1.146 30.553c0.382 0.382 0.382 0.382 0.394 0.99L1.528 32.271l0.108 0.728C1.719 33.608 1.719 33.608 1.528 33.99l1.146 -0.191v-0.382l0.74 0.06 0.416 0.034C4.201 33.608 4.201 33.608 4.583 34.181l-0.764 1.146 0.573 0.191 0.191 -0.382h0.382v-0.764c0.547 0.109 0.737 0.164 1.146 0.573v-0.764h-0.382l0.191 -1.146 1.146 -0.382 0.191 -0.955h0.955v0.382h0.382l0.227 -0.657C9.166 30.744 9.166 30.744 9.643 30.553c0.477 0 0.477 0 1.05 0.191a16.995 16.995 0 0 0 0.955 -0.382h0.382v-0.43c0 -1.289 0 -1.289 0.239 -1.623C12.603 28.07 12.603 28.07 13.367 28.07l0.573 -0.191 0.251 -0.561C14.513 26.734 14.513 26.734 15.121 26.471L15.658 26.352v-0.764h-0.573v-1.337l-0.573 0.191h-0.573l-0.573 0.191 -0.191 0.955 -0.358 0.048c-0.441 0.108 -0.441 0.108 -0.644 0.537L12.03 26.543a16.231 16.231 0 0 1 -1.337 -0.382v1.146l-1.528 0.382 0.108 0.441C9.357 28.643 9.357 28.643 9.166 29.216l-0.454 0.072c-0.528 0.079 -0.528 0.079 -0.883 0.501l-0.382 -0.382h-0.656C6.111 29.407 6.111 29.407 5.538 29.025l0.191 -0.764 -0.573 -0.382 0.191 -0.382 0.573 0.191 0.028 -0.453 0.043 -0.586c0.013 -0.193 0.027 -0.385 0.04 -0.584 0.026 -0.158 0.052 -0.316 0.079 -0.478l0.382 -0.191 0.191 -0.573c0.585 -0.322 0.585 -0.322 1.146 -0.573l0.191 0.191a12.985 12.985 0 0 0 0.871 -0.084l0.478 -0.059L9.739 24.251l0.191 -0.573h-0.382v-0.573l0.764 -0.191v-0.955c0.445 -0.23 0.859 -0.413 1.337 -0.573 0.6 -1.404 1.428 -3.45 0.955 -4.965 -0.417 -0.577 -0.945 -0.936 -1.528 -1.337a372.17 372.17 0 0 1 -1.045 -0.745 56.904 56.904 0 0 0 -0.721 -0.504c-0.551 -0.382 -0.912 -0.669 -1.289 -1.234 1.172 0.415 2.072 1.167 3.055 1.91l0.505 0.378C12.743 15.773 12.743 15.773 13.176 16.422c0.31 2.685 -1.107 6.209 -2.678 8.32C9.776 25.63 9.021 26.497 8.211 27.306c1.933 -1.156 3.687 -2.512 5.4 -3.969C14.282 22.792 14.625 22.724 15.467 22.724a17.759 17.759 0 0 0 0.764 -0.191l0.143 0.644c0.164 0.701 0.164 0.701 0.644 0.967L17.377 24.251h-0.382v2.291l0.573 -0.573c0.572 0.191 0.754 0.335 1.146 0.764l-0.553 0.294 -1.14 0.607a145.316 145.316 0 0 0 -2.876 1.576C13.749 29.407 13.749 29.407 13.367 29.407v0.382c-1.033 0.764 -1.033 0.764 -1.528 0.764v0.382c-0.289 0.231 -0.59 0.447 -0.895 0.656a36.472 36.472 0 0 0 -2.518 1.957l-0.309 0.261C7.482 34.352 6.886 34.921 6.301 35.518l-1.719 1.719c-1.596 -0.444 -2.81 -1.564 -3.628 -2.996 -0.918 -1.865 -0.983 -3.606 -0.986 -5.647l-0.003 -0.706q-0.003 -0.955 -0.005 -1.909l-0.002 -1.196q-0.004 -1.876 -0.005 -3.752 -0.001 -2.157 -0.01 -4.313 -0.006 -1.673 -0.006 -3.346 0 -0.997 -0.005 -1.993c-0.004 -0.743 -0.003 -1.485 -0.002 -2.228l-0.005 -0.656c0.013 -2.443 0.504 -4.409 2.168 -6.231C3.791 0.614 5.83 -0.026 8.161 -0.022" fill="#7A2EE4"/><path d="M116.399 14.31C117.702 15.073 118.397 16.328 118.774 17.759c0.052 0.734 0.044 1.465 0.037 2.2l-0.002 0.637c-0.002 0.669 -0.007 1.339 -0.012 2.008q-0.003 0.682 -0.005 1.364A1016.26 1016.26 0 0 1 118.774 27.306h-2.864l-0.008 -0.709c-0.011 -0.874 -0.026 -1.749 -0.042 -2.623a217.497 217.497 0 0 1 -0.016 -1.132c-0.006 -0.545 -0.017 -1.089 -0.027 -1.634l-0.004 -0.505c-0.029 -1.229 -0.141 -2.611 -1.049 -3.518 -0.788 -0.394 -1.417 -0.441 -2.291 -0.382 -0.621 0.27 -0.621 0.27 -1.146 0.573h-0.382c-0.456 1.295 -0.652 2.426 -0.622 3.795l0.004 0.516c0.004 0.536 0.013 1.073 0.022 1.609q0.01 0.813 0.017 1.625 0.005 0.503 0.013 1.006c0.014 1.146 0.014 1.146 -0.198 1.57l-2.864 -0.191V14.322l2.864 -0.191c0.191 0.764 0.191 0.764 0.191 1.337l0.191 -0.382h0.382v-0.382c1.626 -1.062 3.664 -1.174 5.454 -0.394" fill="#181818"/><path d="m134.05 14.131 3.246 0.191c1.156 2.967 2.22 5.961 3.246 8.975 0.31 -0.466 0.482 -0.793 0.665 -1.306l0.158 -0.442 0.168 -0.475 0.175 -0.492q0.277 -0.778 0.553 -1.557 0.276 -0.776 0.553 -1.552 0.172 -0.483 0.343 -0.966 0.219 -0.615 0.441 -1.229l0.205 -0.572C143.98 14.322 143.98 14.322 144.362 14.131c0.453 -0.014 0.907 -0.016 1.361 -0.012l0.741 0.005L147.035 14.131c0.191 0.382 0.191 0.382 0.021 0.942q-0.135 0.363 -0.274 0.725l-0.149 0.398c-0.163 0.434 -0.328 0.868 -0.493 1.301l-0.338 0.898a857.576 857.576 0 0 1 -0.703 1.862c-0.346 0.913 -0.689 1.827 -1.031 2.742l-0.319 0.852 -0.154 0.412c-0.38 1.015 -0.762 2.029 -1.143 3.044h-3.437a390.693 390.693 0 0 1 -3.469 -8.661q-0.195 -0.505 -0.391 -1.01a429.457 429.457 0 0 1 -0.552 -1.429l-0.17 -0.435C134.214 15.198 134.05 14.751 134.05 14.131" fill="#181818"/><path d="M98.532 14.703q0.027 2.677 0.04 5.354 0.006 1.243 0.018 2.486 0.012 1.202 0.015 2.403 0.002 0.457 0.008 0.913c0.027 2.044 -0.031 3.839 -1.465 5.433 -1.619 1.479 -3.394 1.656 -5.496 1.578 -1.273 -0.091 -2.465 -0.529 -3.431 -1.364 -0.718 -0.885 -1.277 -1.695 -1.337 -2.864 0.37 -0.026 0.74 -0.044 1.11 -0.06l0.624 -0.034c0.557 0.093 0.557 0.093 0.918 0.551C89.749 29.598 89.749 29.598 89.749 29.98c1.401 0.727 2.692 1.081 4.261 0.639 0.96 -0.424 1.593 -1.025 2.04 -1.976 0.355 -1.14 0.426 -2.251 0.382 -3.437 -0.5 0 -0.861 0.06 -1.337 0.191 -0.153 -0.628 -0.209 -0.899 0 -1.528l0.358 -0.322c0.945 -1.029 1.074 -2.213 1.035 -3.557 -0.095 -0.868 -0.298 -1.712 -0.935 -2.345C95.286 17.377 95.286 17.377 95.286 16.995l-0.454 -0.179C94.331 16.613 94.331 16.613 93.95 16.422c-0.119 -0.394 -0.119 -0.394 -0.191 -0.764h0.573l0.191 -0.764c0.733 0.105 1.024 0.435 1.528 0.955l0.573 0.191v-1.528c0.752 -0.251 1.17 -0.046 1.91 0.191" fill="#181818"/><path d="M46.02 9.166h3.055q0.044 3.506 0.085 7.011 0.019 1.628 0.039 3.255 0.02 1.57 0.037 3.139 0.007 0.6 0.015 1.2 0.011 0.838 0.019 1.675l0.008 0.506c0.003 0.388 -0.003 0.775 -0.012 1.163l-0.191 0.191h-3.246z" fill="#181818"/><path d="M19.668 0q1.818 -0.007 3.635 -0.011 0.616 -0.002 1.232 -0.004c2.051 -0.008 4.1 -0.008 6.149 0.09l0.442 0.019c2.025 0.112 3.538 0.95 4.948 2.374 1.547 1.793 1.941 4.016 1.833 6.325 -0.144 1.118 -0.555 1.793 -1.243 2.664l-0.356 0.508C35.407 13.248 34.419 14.454 33.417 15.658l-0.274 0.346c-0.509 0.64 -1.07 1.153 -1.696 1.672 -0.274 0.233 -0.533 0.484 -0.787 0.739 -0.42 0.42 -0.847 0.821 -1.289 1.217l-0.39 0.35C28.643 20.241 28.643 20.241 28.261 20.241v0.382c-0.439 0.371 -0.439 0.371 -1.014 0.788l-0.571 0.419C26.161 22.151 26.161 22.151 25.588 22.151l0.573 -1.146 0.191 0.382 0.382 -0.191 0.191 -0.573c0.423 -0.304 0.874 -0.52 1.337 -0.764v-0.382h0.382l0.143 -0.561C29.025 18.332 29.025 18.332 29.395 18.165c0.322 -0.019 0.644 -0.024 0.967 -0.024v-1.337h0.573v-1.146h-0.382v-0.382l1.719 -0.191 -0.191 -0.955c0.573 -0.382 0.573 -0.382 1.146 -0.382l0.191 -1.719 0.382 0.382 0.072 -0.656L33.99 11.075c0.475 -0.238 0.651 -0.148 1.146 0v-1.337h-0.382v-0.382c1.265 -0.239 1.265 -0.239 1.91 0.191v-0.382h0.573c0.015 -0.278 0.027 -0.557 0.036 -0.835l0.02 -0.47L37.236 7.447l-0.573 -0.382h0.764l-0.382 -0.191c-0.414 -0.609 -0.445 -1.216 -0.518 -1.927 -0.064 -0.43 -0.206 -0.76 -0.436 -1.128l0.191 -0.191 -1.146 -0.191 -0.191 -0.573h-1.337l-0.191 -1.146 -0.358 0.203L32.653 2.1l-0.382 -0.191V1.528l-1.146 0.191 -0.573 -0.955 -0.382 0.573 -0.955 -0.191v0.382l-1.146 0.191 -0.191 -0.382 -0.382 0.382 -0.191 -0.382 0.191 -0.573a772.984 772.984 0 0 0 -2.385 -0.011q-0.405 -0.002 -0.81 -0.004c-0.39 -0.002 -0.779 -0.003 -1.169 -0.004l-0.709 -0.003c-0.619 0.021 -1.193 0.099 -1.802 0.213 -0.298 0.02 -0.597 0.033 -0.895 0.036l-0.432 0.008C18.904 0.955 18.904 0.955 18.332 0.573l0.561 -0.072L19.477 0.382z" fill="#28B8D2"/><path d="M61.01 14.465c0.544 0.49 0.87 0.947 1.241 1.575l0.287 -0.314c1.295 -1.364 2.119 -1.809 3.997 -1.87 1.151 0.029 2.075 0.085 2.972 0.847 1.431 1.511 1.584 2.943 1.565 4.957l-0.002 0.663c-0.002 0.696 -0.007 1.393 -0.012 2.089q-0.003 0.71 -0.005 1.42 -0.007 1.737 -0.019 3.474h-2.864l-0.011 -0.747c-0.015 -0.92 -0.032 -1.839 -0.049 -2.759q-0.011 -0.596 -0.02 -1.191c-0.009 -0.573 -0.02 -1.145 -0.031 -1.718l-0.007 -0.533c-0.024 -1.051 -0.136 -1.976 -0.454 -2.982 -0.723 -0.575 -1.777 -0.581 -2.673 -0.573 -0.736 0.227 -1.032 0.402 -1.457 1.042 -0.354 0.915 -0.353 1.737 -0.36 2.71l-0.01 0.586c-0.01 0.615 -0.017 1.229 -0.023 1.844q-0.01 0.627 -0.02 1.254c-0.016 1.022 -0.029 2.044 -0.04 3.067h-3.055l-0.008 -0.788c-0.011 -0.967 -0.026 -1.935 -0.042 -2.902a262.562 262.562 0 0 1 -0.016 -1.255c-0.006 -0.602 -0.016 -1.204 -0.027 -1.806l-0.004 -0.564c-0.022 -1.009 -0.091 -1.749 -0.667 -2.615 -0.673 -0.497 -1.199 -0.618 -2.017 -0.573 -0.862 0.135 -1.278 0.431 -1.802 1.146 -0.438 1.013 -0.447 1.969 -0.461 3.054l-0.011 0.547c-0.011 0.574 -0.02 1.148 -0.029 1.722q-0.011 0.585 -0.022 1.171 -0.027 1.431 -0.049 2.863h-2.864l-0.191 -12.985 3.055 -0.191c0.191 0.382 0.191 0.382 0.191 1.146l0.525 -0.454c1.631 -1.349 3.626 -1.29 5.49 -0.358M57.859 14.322l-0.597 0.024c-0.903 0.204 -1.294 0.584 -1.943 1.218C54.995 15.849 54.995 15.849 54.613 15.849l-0.191 -1.337h-2.1v12.412h2.1l0.008 -0.674c0.011 -0.832 0.026 -1.663 0.042 -2.495q0.01 -0.538 0.016 -1.076c0.006 -0.518 0.017 -1.036 0.027 -1.554l0.004 -0.479c0.034 -1.362 0.257 -2.586 1.144 -3.651 0.78 -0.624 1.412 -0.638 2.387 -0.573 0.654 0.177 1.145 0.315 1.561 0.875 0.565 1.079 0.654 2.007 0.655 3.213l0.01 0.559c0.009 0.584 0.013 1.167 0.017 1.751q0.008 0.597 0.017 1.193c0.014 0.971 0.023 1.941 0.031 2.912h2.291l0.008 -0.753c0.011 -0.925 0.026 -1.849 0.042 -2.774q0.01 -0.6 0.016 -1.199c0.006 -0.575 0.016 -1.151 0.027 -1.726l0.004 -0.539c0.027 -1.225 0.218 -2.068 1.073 -2.998 0.75 -0.44 1.402 -0.55 2.268 -0.513 0.992 0.293 1.554 0.645 2.1 1.528 0.258 0.915 0.234 1.859 0.251 2.802l0.012 0.535q0.019 0.843 0.035 1.687l0.025 1.146q0.031 1.402 0.059 2.804h2.1c0.136 -2.452 0.227 -4.896 0.155 -7.352l-0.011 -0.589c-0.058 -1.517 -0.396 -2.707 -1.374 -3.886 -0.977 -0.786 -2.03 -1.017 -3.28 -0.933C64.85 14.341 63.949 14.738 63.015 15.658l-0.304 0.419L62.442 16.422h-0.382c-0.248 -0.314 -0.248 -0.314 -0.525 -0.728 -0.605 -0.828 -1.137 -1.244 -2.165 -1.454 -0.776 -0.132 -0.776 -0.132 -1.511 0.081" fill="#050505"/><path d="M101.588 14.131h2.864v13.176h-2.864z" fill="#191919"/><path d="M17.568 3.437c0.501 0.179 0.501 0.179 0.955 0.382v0.382l0.955 0.191v0.573h0.382l-0.049 0.378c-0.109 0.937 -0.172 1.748 0.049 2.678h0.382l0.382 -0.382h0.573l0.191 1.719 0.573 0.191 -0.191 0.764 1.528 0.382 0.167 -0.358C23.678 9.93 23.678 9.93 24.06 9.548l0.382 0.573c0.358 0.422 0.358 0.422 0.764 0.764h0.573l0.382 0.191 0.191 -0.382c0.573 0 0.573 0 1.146 0.191h0.573c0.363 1.032 -0.052 2.057 -0.382 3.055 -0.224 0.434 -0.456 0.764 -0.764 1.146l-0.764 -0.382 -0.322 0.37C25.355 15.505 25.076 15.588 24.442 15.658l-0.191 0.955 -0.955 0.191c-0.142 0.852 -0.205 1.599 -0.107 2.459 0.243 2.185 0.243 2.185 0.107 2.888 -0.513 0.525 -0.513 0.525 -1.146 0.764 -0.953 -0.276 -1.781 -0.865 -2.607 -1.402 -0.605 -0.366 -0.994 -0.508 -1.706 -0.505 -0.72 0.208 -1.161 0.48 -1.75 0.94l-0.534 0.411L15.085 22.724l-0.573 0.382v-0.573a13.94 13.94 0 0 1 1.229 -0.99l0.343 -0.268c0.784 -0.569 1.412 -0.793 2.385 -0.737 0.779 0.154 1.402 0.529 2.07 0.945l0.418 0.248A71.799 71.799 0 0 1 21.96 22.342l0.955 -0.573 -0.125 -0.747 -0.161 -0.984 -0.083 -0.49c-0.381 -2.351 -0.381 -2.351 0.029 -3.259 0.364 -0.471 0.728 -0.804 1.199 -1.167l0.507 -0.393a118.201 118.201 0 0 1 2.214 -1.616c0.439 -0.308 0.439 -0.308 0.812 -0.7v-0.573c-0.435 -0.218 -0.738 -0.237 -1.222 -0.273l-0.513 -0.041 -0.544 -0.044c-3.819 -0.34 -3.819 -0.34 -4.495 -1.109 -0.339 -0.516 -0.527 -1.014 -0.731 -1.596l-0.243 -0.669q-0.249 -0.698 -0.492 -1.398l-0.244 -0.666 -0.216 -0.613c-0.234 -0.514 -0.234 -0.514 -0.783 -0.628L17.377 4.774l-0.252 0.671C15.221 10.462 15.221 10.462 14.131 11.075a14.894 14.894 0 0 1 -1.408 0.31l-0.403 0.072C11.019 11.679 9.719 11.779 8.402 11.839l-0.191 0.573 -0.191 -0.573c0.795 -0.578 1.48 -0.659 2.435 -0.68C12.705 11.073 12.705 11.073 14.703 10.121c0.299 -0.515 0.299 -0.515 0.504 -1.122l0.249 -0.665L15.706 7.638l0.258 -0.695C16.254 6.159 16.54 5.375 16.804 4.583l0.382 -0.191v-0.764z" fill="#2453CE"/><path d="m96.05 15.276 0.191 -1.146 0.955 0.191 -0.573 0.191v1.528c-0.601 -0.069 -0.805 -0.228 -1.265 -0.644 -0.868 -0.75 -1.908 -1.058 -3.048 -1.086 -1.727 0.127 -3.255 0.705 -4.495 1.945 -1.146 1.757 -1.496 3.671 -1.235 5.752 0.346 1.614 0.989 3.015 2.393 3.951 1.398 0.768 2.81 1.029 4.361 0.644 1.198 -0.394 2.008 -0.899 2.908 -1.778l0.382 0.191c0.058 1.787 0.002 3.409 -1.193 4.832 -0.878 0.848 -1.724 1.13 -2.937 1.171 -1.083 -0.043 -1.767 -0.319 -2.602 -1.014C89.558 29.598 89.558 29.598 89.176 28.643l-2.1 0.191c0.369 1.283 0.702 2.396 1.938 3.097 1.785 0.83 3.918 1.05 5.847 0.598 1.319 -0.54 2.551 -1.452 3.139 -2.776 0.528 -1.407 0.437 -2.868 0.417 -4.347a432.703 432.703 0 0 1 -0.003 -0.929c-0.003 -0.809 -0.01 -1.619 -0.019 -2.428 -0.008 -0.828 -0.011 -1.657 -0.015 -2.485A987.616 987.616 0 0 0 98.342 14.703l-0.955 -0.191v-0.191l1.528 -0.191q0.027 2.789 0.04 5.578 0.006 1.295 0.018 2.59 0.012 1.252 0.015 2.503 0.002 0.476 0.008 0.952c0.027 2.199 -0.076 4.152 -1.652 5.843 -1.712 1.481 -3.685 1.79 -5.882 1.668 -0.894 -0.093 -1.677 -0.408 -2.476 -0.803l-0.632 -0.31c-0.965 -0.853 -1.663 -1.955 -1.826 -3.246L86.502 28.261c0.462 -0.031 0.922 -0.054 1.384 -0.072l0.395 -0.029c0.384 -0.011 0.384 -0.011 1.085 0.101 0.45 0.55 0.45 0.55 0.764 1.146 0.586 0.657 0.959 0.922 1.854 1 1.199 0.029 1.997 0.045 2.92 -0.809 0.827 -0.916 0.978 -1.591 1.062 -2.805l0.048 -0.683L96.05 25.588l-0.287 0.23c-1.506 1.174 -2.75 1.712 -4.678 1.488 -1.8 -0.377 -3.214 -1.371 -4.285 -2.867 -1.046 -1.903 -1.085 -4.203 -0.536 -6.268 0.642 -1.745 1.616 -3.02 3.293 -3.85 2.341 -0.955 4.54 -0.613 6.492 0.955" fill="#030303"/><path d="M107.698 14.513h2.1l0.036 0.585c0.118 0.88 0.565 1.404 1.11 2.088l-0.37 0.513c-0.667 1.071 -0.609 2.079 -0.597 3.303l0.002 0.496q0.004 0.78 0.01 1.56 0.007 1.031 0.012 2.062l0.005 0.482c0.002 0.378 -0.007 0.755 -0.017 1.133l-0.191 0.191h-2.1z" fill="#181818"/><path d="M8.161 -0.022h0.373q0.604 0 1.209 0.003l0.843 0.001q1.105 0.001 2.209 0.005 1.129 0.003 2.258 0.004Q17.265 -0.006 19.477 0v0.573l-0.514 0q-2.41 -0.001 -4.82 0.016c-0.826 0.006 -1.652 0.009 -2.477 0.008 -0.799 -0.001 -1.597 0.003 -2.396 0.011q-0.454 0.003 -0.909 0C6.416 0.597 4.927 0.833 3.246 1.91l-0.359 0.226C2.028 2.759 1.604 3.655 1.146 4.583l-0.206 0.363C0.557 5.817 0.549 6.75 0.548 7.689l-0.002 0.705 0.001 0.752 -0.001 0.777q0 0.811 0.001 1.622 0.001 1.041 -0.001 2.083 -0.001 0.8 0 1.602 0 0.571 -0.001 1.143l0.002 0.695 0 0.615C0.521 18.132 0.521 18.132 0.764 18.332c0.024 0.668 0.024 0.668 0 1.337l-0.191 0.191a33.417 33.417 0 0 0 -0.024 1.48l-0.002 0.415c0.001 0.57 0.015 1.108 0.129 1.668 0.107 0.543 0.058 0.997 -0.007 1.546A20.05 20.05 0 0 0 0.573 25.97l0.191 0.191c0.014 0.346 0.016 0.692 0.012 1.038l-0.005 0.572L0.764 28.261v0.382c-0.092 0.711 -0.188 1.409 -0.382 2.1l0.358 -0.119L1.146 30.553c0.382 0.382 0.382 0.382 0.394 0.99L1.528 32.271l0.108 0.728C1.719 33.608 1.719 33.608 1.528 33.99l1.146 -0.191v-0.382l0.74 0.06 0.416 0.034C4.201 33.608 4.201 33.608 4.583 34.181a23.869 23.869 0 0 1 -0.764 1.146h-0.382v-0.382l-0.955 -0.191v0.382c-0.344 -0.029 -0.344 -0.029 -0.764 -0.191 -0.815 -1.193 -1.229 -2.394 -1.337 -3.819l-0.382 -0.191q-0.02 -4.684 -0.03 -9.367c-0.003 -1.45 -0.007 -2.9 -0.014 -4.35q-0.009 -1.897 -0.011 -3.794c-0.001 -0.669 -0.002 -1.338 -0.007 -2.006A341.617 341.617 0 0 1 -0.065 9.17l-0.006 -0.662c0.009 -2.45 0.497 -4.418 2.166 -6.246C3.791 0.614 5.83 -0.026 8.161 -0.022" fill="#6B20E1"/><path d="M17.186 27.497v0.573l-0.501 0.108c-0.738 0.315 -1.024 0.648 -1.512 1.264 -0.378 0.472 -0.799 0.881 -1.233 1.302l-0.382 -0.382c-0.854 0.484 -1.366 0.903 -1.91 1.719l-0.573 -0.191 -0.131 0.549C10.693 33.035 10.693 33.035 10.228 33.274L9.739 33.417c-0.644 0.332 -0.644 0.332 -0.712 1.046a41.055 41.055 0 0 0 -0.087 0.792l-0.047 0.409c-0.038 0.333 -0.073 0.666 -0.108 1l0.382 0.191h-0.573v0.573q0.8 -0.04 1.599 -0.083l0.459 -0.023c0.811 -0.025 0.811 -0.025 1.569 -0.276 0.306 0.044 0.612 0.089 0.918 0.138 0.861 0.109 1.73 0.099 2.596 0.113l0.624 0.012q0.98 0.018 1.961 0.035l1.334 0.025q1.63 0.031 3.261 0.059v0.382l0.382 0.191q-3.195 0.02 -6.389 0.03 -1.484 0.004 -2.967 0.014 -1.433 0.009 -2.868 0.011 -0.545 0.002 -1.09 0.006c-3.654 0.03 -3.654 0.03 -5.399 -0.633 0.277 -0.58 0.549 -0.974 1.015 -1.42l0.364 -0.353L6.301 35.327l0.442 -0.454C10.775 30.935 10.775 30.935 11.839 30.935v-0.382c1.033 -0.764 1.033 -0.764 1.528 -0.764v-0.382c2.662 -1.91 2.662 -1.91 3.819 -1.91" fill="#F61342"/><path d="M116.399 14.31C117.702 15.073 118.397 16.328 118.774 17.759c0.052 0.734 0.044 1.465 0.037 2.2l-0.002 0.637c-0.002 0.669 -0.007 1.339 -0.012 2.008q-0.003 0.682 -0.005 1.364A1016.26 1016.26 0 0 1 118.774 27.306h-2.864l-0.008 -0.709c-0.011 -0.874 -0.026 -1.749 -0.042 -2.623a217.497 217.497 0 0 1 -0.016 -1.132c-0.006 -0.545 -0.017 -1.089 -0.027 -1.634l-0.004 -0.505c-0.029 -1.229 -0.141 -2.611 -1.049 -3.518 -0.788 -0.394 -1.417 -0.441 -2.291 -0.382 -0.621 0.27 -0.621 0.27 -1.146 0.573h-0.382c-0.456 1.295 -0.652 2.426 -0.622 3.795l0.004 0.516c0.004 0.536 0.013 1.073 0.022 1.609q0.01 0.813 0.017 1.625 0.005 0.503 0.013 1.006c0.014 1.146 0.014 1.146 -0.198 1.57l-2.864 -0.191V14.322l2.864 -0.191c0.191 0.764 0.191 0.764 0.191 1.337l0.191 -0.382h0.382v-0.382c1.626 -1.062 3.664 -1.174 5.454 -0.394m-5.393 0.891 -0.228 0.302L110.372 16.04l-0.382 -0.191a20.814 20.814 0 0 1 -0.191 -1.337h-2.1v12.412h2.1c0.307 -0.615 0.206 -1.285 0.196 -1.96l-0.007 -0.97a462.11 462.11 0 0 0 -0.016 -1.528c-0.006 -0.492 -0.009 -0.984 -0.012 -1.476l-0.008 -0.456c-0.005 -1.138 0.083 -2.31 0.85 -3.217 0.591 -0.578 0.859 -0.76 1.671 -0.895 2.004 0.032 2.004 0.032 2.864 0.573 0.215 0.418 0.215 0.418 0.382 0.955l0.196 0.589c0.24 0.846 0.252 1.674 0.264 2.549l0.011 0.508c0.011 0.531 0.02 1.062 0.029 1.593l0.022 1.086q0.027 1.325 0.049 2.65h2.1q0.028 -1.906 0.042 -3.811 0.006 -0.647 0.016 -1.295c0.009 -0.623 0.014 -1.246 0.017 -1.868l0.012 -0.578c0.001 -1.412 -0.208 -2.809 -1.184 -3.895 -1.037 -0.954 -1.969 -1.211 -3.377 -1.215l-0.739 -0.01c-0.889 0.087 -1.521 0.327 -2.171 0.949" fill="#050505"/><path d="M157.156 15.085v0.382h0.382q0.186 0.364 0.37 0.728l0.208 0.409c0.322 0.677 0.4 1.199 0.398 1.94v0.602l-0.003 0.649 -0.001 0.665c-0.001 0.702 -0.003 1.405 -0.006 2.107q-0.002 0.714 -0.003 1.427 -0.003 1.751 -0.009 3.502l-2.864 -0.191 -0.191 -0.955 -0.398 0.244 -0.521 0.317 -0.517 0.316c-1.113 0.633 -2.282 0.585 -3.529 0.46 -1.258 -0.393 -2.137 -1.009 -2.864 -2.1 -0.559 -1.186 -0.578 -2.445 -0.179 -3.688C148.517 20.391 149.809 19.848 151.618 19.477c0.743 -0.092 1.484 -0.13 2.232 -0.157A8.86 8.86 0 0 0 155.437 19.095c-0.027 -1.118 -0.027 -1.118 -0.644 -1.993 -0.851 -0.507 -1.629 -0.591 -2.602 -0.489 -0.712 0.26 -1.053 0.433 -1.474 1.068C150.281 18.141 150.281 18.141 149.622 18.234l-0.725 -0.033 -0.731 -0.026L147.608 18.141c0.022 -1.21 0.289 -1.83 1.126 -2.706C151.178 13.312 154.528 13.384 157.156 15.085m-8.402 0.764c-0.431 0.62 -0.764 1.133 -0.764 1.91 1.416 0.157 1.416 0.157 2.626 -0.441L151.045 16.804c0.922 -0.495 1.63 -0.701 2.673 -0.573 0.916 0.285 1.413 0.571 1.91 1.408 0.181 0.657 0.255 1.161 0.191 1.838 -0.3 0.3 -0.604 0.222 -1.02 0.231l-0.52 0.017q-0.538 0.015 -1.077 0.025c-1.82 0.062 -3.592 0.441 -5.021 1.636 -0.741 0.972 -0.697 2.073 -0.573 3.246 0.332 1.036 1.023 1.691 1.91 2.291 1.172 0.58 2.591 0.575 3.856 0.286 0.81 -0.319 1.426 -0.857 2.064 -1.432l0.191 0.382 0.382 -0.191v0.955h2.1q0.028 -1.906 0.042 -3.811 0.006 -0.647 0.016 -1.295c0.009 -0.623 0.014 -1.246 0.017 -1.868l0.012 -0.578c0 -1.371 -0.203 -2.742 -1.106 -3.832 -1.132 -1.015 -2.347 -1.323 -3.814 -1.302l-0.431 0.003c-1.555 0.044 -2.982 0.465 -4.092 1.608" fill="#040404"/><path d="M82.412 14.742c0.911 0.678 1.485 1.546 1.798 2.635 0.087 0.767 0.093 1.531 0.098 2.303l0.01 0.662c0.01 0.695 0.017 1.389 0.023 2.084q0.01 0.708 0.02 1.417 0.024 1.732 0.04 3.464c-0.583 0.291 -1.1 0.16 -1.742 0.108l-0.741 -0.059L81.347 27.306l0.191 -1.719h0.191v1.337l2.1 -0.191q-0.013 -1.957 -0.04 -3.914 -0.008 -0.665 -0.012 -1.33c-0.004 -0.639 -0.013 -1.278 -0.023 -1.917l-0.001 -0.596c-0.029 -1.438 -0.284 -2.532 -1.321 -3.569 -1.158 -0.727 -2.087 -0.997 -3.437 -0.978l-0.43 0.002c-1.17 0.031 -2.097 0.307 -3.138 0.845l-0.573 0.191v0.382h-0.382l-0.167 0.418L73.708 17.759c1.428 0.005 1.428 0.005 2.638 -0.644L76.764 16.613c0.864 -0.557 1.659 -0.747 2.673 -0.573 0.82 0.299 1.526 0.668 2.1 1.337 0.25 0.749 0.229 1.31 0.191 2.1 -0.463 0.463 -0.582 0.429 -1.216 0.434l-0.509 0.01 -0.542 0.009c-1.839 0.061 -3.587 0.204 -5.108 1.349 -0.83 0.896 -0.922 1.685 -0.896 2.876 0.122 0.967 0.581 1.578 1.278 2.256 1.307 0.84 2.735 0.901 4.238 0.609 0.953 -0.277 1.423 -0.59 1.992 -1.432h0.382c-0.175 0.764 -0.483 1.073 -1.122 1.48 -1.329 0.798 -2.882 0.843 -4.377 0.497 -1.365 -0.484 -2.162 -1.225 -2.784 -2.526 -0.251 -1.254 -0.278 -2.351 0.368 -3.489 0.945 -1.208 2.432 -1.809 3.905 -2.072 2.731 -0.327 2.731 -0.327 4.01 0 -0.149 -1.314 -0.149 -1.314 -0.835 -2.399C79.63 16.596 78.919 16.543 77.909 16.613c-0.704 0.262 -1.056 0.438 -1.475 1.068C76 18.141 76 18.141 75.341 18.234l-0.725 -0.033 -0.731 -0.026L73.327 18.141c0.096 -1.205 0.385 -1.965 1.291 -2.788 2.301 -1.835 5.225 -2.013 7.795 -0.611" fill="#040404"/><path d="M151.045 20.432v0.382l0.573 0.191 0.191 0.191q0.383 -0.092 0.764 -0.191a12.221 12.221 0 0 1 0.785 -0.019l0.436 0.002 0.45 0.005 0.459 0.003q0.559 0.004 1.117 0.009c0.376 0.752 0.147 1.679 0 2.482 -0.428 0.841 -0.937 1.382 -1.719 1.91 -0.549 0.175 -1.048 0.217 -1.623 0.215l-0.436 0.002c-0.419 -0.025 -0.785 -0.101 -1.188 -0.216 -0.281 0.747 -0.281 0.747 -0.382 1.528l-0.573 0.191c-1.049 -0.57 -1.907 -1.33 -2.291 -2.482 -0.108 -1.113 -0.163 -2.194 0.483 -3.149 0.85 -0.872 1.753 -1.391 2.954 -1.052m-0.477 1.874c-0.381 0.556 -0.491 0.886 -0.477 1.563 0.378 0.665 0.789 1.091 1.528 1.337 1.252 0.148 2.035 -0.023 3.055 -0.764 0.76 -0.7 0.867 -1.304 0.94 -2.294Q155.628 21.768 155.628 21.387c-2.67 -0.127 -2.67 -0.127 -5.06 0.919" fill="#171717"/><path d="m134.05 14.131 3.246 0.191c1.156 2.967 2.22 5.961 3.246 8.975 0.31 -0.466 0.482 -0.793 0.665 -1.306l0.158 -0.442 0.168 -0.475 0.175 -0.492q0.277 -0.778 0.553 -1.557 0.276 -0.776 0.553 -1.552 0.172 -0.483 0.343 -0.966 0.219 -0.615 0.441 -1.229l0.205 -0.572C143.98 14.322 143.98 14.322 144.362 14.131c0.453 -0.014 0.907 -0.016 1.361 -0.012l0.741 0.005L147.035 14.131c0.191 0.382 0.191 0.382 0.021 0.942q-0.135 0.363 -0.274 0.725l-0.149 0.398c-0.163 0.434 -0.328 0.868 -0.493 1.301l-0.338 0.898a857.576 857.576 0 0 1 -0.703 1.862c-0.346 0.913 -0.689 1.827 -1.031 2.742l-0.319 0.852 -0.154 0.412c-0.38 1.015 -0.762 2.029 -1.143 3.044h-3.437a390.693 390.693 0 0 1 -3.469 -8.661q-0.195 -0.505 -0.391 -1.01a429.457 429.457 0 0 1 -0.552 -1.429l-0.17 -0.435C134.214 15.198 134.05 14.751 134.05 14.131m0.573 0.382c0.149 0.895 0.313 1.539 0.637 2.365l0.136 0.35c0.147 0.377 0.296 0.753 0.444 1.129q0.154 0.392 0.307 0.785 0.398 1.016 0.798 2.03 0.391 0.993 0.779 1.986 0.739 1.884 1.481 3.768h2.864c1.2 -2.591 2.156 -5.279 3.082 -7.977 0.42 -1.222 0.864 -2.428 1.345 -3.627 0.177 -0.41 0.177 -0.41 0.155 -0.808h-2.291c-0.735 1.712 -1.387 3.44 -2.006 5.196a303.236 303.236 0 0 1 -0.473 1.324l-0.3 0.849 -0.143 0.397c-0.223 0.64 -0.325 1.093 -0.325 1.781 -0.356 -0.045 -0.356 -0.045 -0.764 -0.191 -0.235 -0.354 -0.235 -0.354 -0.418 -0.8l-0.187 -0.438C139.588 22.151 139.588 22.151 139.509 21.628c-0.149 -0.822 -0.436 -1.563 -0.733 -2.341l-0.362 -0.964 -0.181 -0.481a131.759 131.759 0 0 1 -0.734 -2.028L137.105 14.703z" fill="#040404"/><path d="M19.668 0q1.818 -0.007 3.635 -0.011 0.616 -0.002 1.232 -0.004c2.051 -0.008 4.1 -0.008 6.149 0.09l0.442 0.019c2.008 0.111 3.596 0.938 4.954 2.407C37.565 4.307 37.706 5.702 37.618 8.02l-0.955 -0.955h0.764l-0.382 -0.191c-0.414 -0.609 -0.445 -1.216 -0.518 -1.927 -0.064 -0.43 -0.206 -0.76 -0.436 -1.128l0.191 -0.191 -1.146 -0.191 -0.191 -0.573h-1.337l-0.191 -1.146 -0.358 0.203L32.653 2.1l-0.382 -0.191V1.528l-1.146 0.191 -0.573 -0.955 -0.382 0.573 -0.955 -0.191v0.382l-1.146 0.191 -0.191 -0.382 -0.382 0.382 -0.191 -0.382 0.191 -0.573a772.984 772.984 0 0 0 -2.385 -0.011q-0.405 -0.002 -0.81 -0.004c-0.39 -0.002 -0.779 -0.003 -1.169 -0.004l-0.709 -0.003c-0.619 0.021 -1.193 0.099 -1.802 0.213 -0.298 0.02 -0.597 0.033 -0.895 0.036l-0.432 0.008C18.904 0.955 18.904 0.955 18.332 0.573l0.561 -0.072L19.477 0.382z" fill="#1BAAF9"/><path d="M13.212 29.097 13.749 29.216l-0.382 0.191v0.382c-1.033 0.764 -1.033 0.764 -1.528 0.764v0.382c-0.289 0.231 -0.59 0.447 -0.895 0.657a36.472 36.472 0 0 0 -2.518 1.957l-0.309 0.261C7.482 34.352 6.886 34.921 6.301 35.518l-1.719 1.719c-1.596 -0.444 -2.81 -1.564 -3.628 -2.996C0.4 33.11 0.14 32.208 0.191 30.935l0.382 0.191 0.06 0.657c0.085 0.905 0.452 1.589 0.884 2.379C1.719 34.563 1.719 34.563 1.719 34.945l0.764 0.191v-0.382h1.146l-0.191 0.573 0.955 0.191 0.191 -0.382h0.382v-0.764c0.547 0.109 0.737 0.164 1.146 0.573v-0.764h-0.382l0.191 -1.146 1.146 -0.382 0.191 -0.955h0.955v0.382h0.382l0.227 -0.656C9.166 30.744 9.166 30.744 9.643 30.553c0.477 0 0.477 0 1.05 0.191a16.995 16.995 0 0 0 0.955 -0.382h0.382l-0.036 -0.454L12.03 29.407c0.573 -0.382 0.573 -0.382 1.182 -0.31" fill="#7323CE"/><path d="m15.085 22.533 0.573 0.191 0.573 -0.191 0.143 0.644c0.164 0.701 0.164 0.701 0.644 0.967L17.377 24.251h-0.382v2.291l0.573 -0.573c0.572 0.191 0.754 0.335 1.146 0.764l-0.566 0.301 -0.365 0.194a249.577 249.577 0 0 1 -0.792 0.419A32.462 32.462 0 0 0 14.93 28.834c-0.882 0.503 -1.719 0.475 -2.709 0.382l-0.191 -0.573c0.239 -0.286 0.239 -0.286 0.573 -0.573h0.764l0.573 -0.191 0.251 -0.561C14.513 26.734 14.513 26.734 15.121 26.471L15.658 26.352v-0.764h-0.573v-1.337l-0.573 0.191h-0.573l-0.573 0.191 -0.191 0.955 -0.358 0.048c-0.441 0.108 -0.441 0.108 -0.644 0.537L12.03 26.543c-0.547 -0.109 -0.737 -0.164 -1.146 -0.573l0.531 -0.412 0.71 -0.554 0.37 -0.288c0.799 -0.627 1.563 -1.276 2.294 -1.982z" fill="#5857ED"/><path d="M46.02 9.166h3.055q0.044 3.506 0.085 7.011 0.019 1.628 0.039 3.255 0.02 1.57 0.037 3.139 0.007 0.6 0.015 1.2 0.011 0.838 0.019 1.675l0.008 0.506c0.003 0.388 -0.003 0.775 -0.012 1.163l-0.191 0.191h-3.246zm0.382 0.382v17.377h2.291V9.548z" fill="#020202"/><path d="M130.445 14.464 130.804 14.703l0.401 0.245c1.423 0.955 2.328 2.327 2.755 3.983 0.388 2.327 0.136 4.297 -1.243 6.234 -1.067 1.283 -2.347 2.214 -4.013 2.523 -2.311 0.168 -4.16 -0.028 -5.991 -1.552 -1.525 -1.474 -2.209 -3.303 -2.279 -5.394 0.047 -2.011 0.77 -3.605 2.125 -5.08 1.971 -1.871 5.419 -2.585 7.887 -1.199M123.548 15.276l-0.43 0.295L122.784 15.849v0.382h-0.382c-1.301 1.725 -1.711 3.407 -1.528 5.538 0.317 1.932 1.073 3.4 2.662 4.571 1.581 1.088 3.308 1.123 5.168 0.967 1.723 -0.407 3.141 -1.355 4.082 -2.852 1.021 -1.873 1.211 -3.927 0.668 -6.003 -0.588 -1.68 -1.819 -2.937 -3.354 -3.807 -2.022 -0.839 -4.785 -0.65 -6.552 0.632" fill="#030303"/><path d="m18.523 20.814 -0.191 0.955 0.43 0.036c0.682 0.201 0.892 0.537 1.289 1.11l-0.382 0.191 -0.179 0.477L19.286 24.06l-0.573 0.191 0.573 0.191 0.191 1.337h0.382l-0.191 -0.764h0.382v0.382l0.955 -0.191c-0.487 0.568 -1.051 0.826 -1.719 1.146l-0.191 0.191c-0.382 0.008 -0.764 0.008 -1.146 0v-0.382h-0.764l-0.191 0.573c-0.185 -0.596 -0.189 -1.054 -0.107 -1.671l0.059 -0.462L16.995 24.251l-0.573 -0.382c-0.131 -0.692 -0.131 -0.692 -0.191 -1.337l-0.764 0.382 -0.191 -0.573q0.465 -0.328 0.931 -0.656l0.524 -0.369C17.39 20.866 17.73 20.793 18.523 20.814" fill="#4E66F2"/><path d="M101.588 14.131h2.864v13.176h-2.864zm0.382 0.573v12.221h2.1V14.703z" fill="#040404"/><path d="M37.618 9.548h0.191v2.673h-1.146l0.108 0.525c0.075 0.56 0.073 0.862 -0.108 1.384h-0.573l-0.191 -0.382h-0.382l-0.191 1.146h-0.382l-0.191 0.382h-0.382l-0.573 0.191v0.382l-0.454 0.358c-0.475 0.385 -0.665 0.613 -0.883 1.17h-0.573l-0.048 0.322c-0.189 0.582 -0.496 0.948 -0.907 1.396h-0.382v0.764c-0.483 0.466 -0.889 0.614 -1.528 0.764 -0.683 0.285 -1.075 0.481 -1.528 1.074 -0.382 0.454 -0.382 0.454 -1.003 0.609L25.97 22.342c0.604 -0.622 1.208 -1.207 1.91 -1.719h0.382v-0.382c0.356 -0.31 0.356 -0.31 0.824 -0.656 0.635 -0.472 0.635 -0.472 1.214 -1.009C30.553 18.332 30.553 18.332 30.935 18.332l0.143 -0.334c0.274 -0.493 0.579 -0.823 1.003 -1.193h0.382l0.145 -0.332c0.27 -0.492 0.587 -0.828 0.977 -1.232 0.803 -0.875 1.501 -1.798 2.184 -2.769l0.291 -0.412A28.261 28.261 0 0 0 37.618 9.548" fill="#E9DE45"/><path d="M103.688 8.593c0.603 0.26 0.881 0.449 1.217 1.015 0.148 0.636 0.115 1.032 -0.072 1.659 -0.518 0.619 -0.87 0.93 -1.683 1.003 -0.684 -0.053 -1.018 -0.215 -1.564 -0.621 -0.329 -0.658 -0.287 -1.381 -0.191 -2.1 0.656 -0.874 1.221 -1.039 2.291 -0.955" fill="#191919"/><path d="m9.799 -0.037 0.84 0.002q1.098 0.003 2.195 0.01c0.749 0.004 1.498 0.006 2.247 0.008C16.547 -0.015 18.012 -0.008 19.477 0v0.573l-0.514 0q-2.41 -0.001 -4.82 0.016c-0.826 0.006 -1.652 0.009 -2.477 0.008 -0.799 -0.001 -1.597 0.003 -2.396 0.011q-0.454 0.003 -0.909 0C6.416 0.597 4.927 0.833 3.246 1.91l-0.359 0.226C2.028 2.759 1.604 3.655 1.146 4.583l-0.21 0.396C0.706 5.471 0.646 5.957 0.573 6.492H0.191c0.103 -1.861 0.856 -3.345 2.221 -4.617C4.674 0.136 7.058 -0.058 9.799 -0.037" fill="#0B3EEB"/><path d="m8.02 0.573 -0.191 0.573c-1.106 0.382 -1.106 0.382 -1.719 0.382l-0.191 0.764 -0.382 -1.146 -0.263 0.382L4.965 1.91h-0.382l0.191 0.573c-0.179 0.418 -0.179 0.418 -0.382 0.764v-0.382l-1.146 -0.191 -0.06 0.418C3.039 3.696 2.865 4.091 2.482 4.583c-0.489 0.119 -0.489 0.119 -0.955 0.191l-0.382 0.573h0.382l-0.107 0.334c-0.12 0.427 -0.12 0.427 0.048 0.812L1.528 6.874c-0.346 0.394 -0.346 0.394 -0.764 0.764l-0.382 0.573c-0.088 -2.113 0.368 -4.021 1.806 -5.644C3.941 0.928 5.669 0.478 8.02 0.573" fill="#5B52FC"/><path d="M8.02 12.603c1.172 0.415 2.072 1.167 3.055 1.91l0.505 0.378C12.743 15.773 12.743 15.773 13.176 16.422c0.31 2.685 -1.107 6.209 -2.678 8.32C9.776 25.63 9.021 26.497 8.211 27.306c2.126 -1.272 4.024 -2.804 5.92 -4.392l0.382 0.191c-1.884 2.016 -4.158 3.523 -6.492 4.965l-0.531 0.335C7.065 28.643 7.065 28.643 6.683 28.643v-0.382l-0.382 -0.191 0.26 -0.177c2.835 -2.016 4.538 -4.399 5.564 -7.7l0.148 -0.472C12.58 18.652 12.803 17.532 12.603 16.422c-0.429 -0.573 -0.94 -0.933 -1.528 -1.337q-0.523 -0.372 -1.045 -0.745a56.904 56.904 0 0 0 -0.721 -0.504c-0.551 -0.382 -0.912 -0.669 -1.289 -1.234" fill="#4D17B5"/><path d="M128.764 16.363c1.198 0.547 2.039 1.474 2.515 2.713 0.388 1.608 0.152 3.176 -0.667 4.603 -0.686 0.96 -1.531 1.452 -2.673 1.719 -1.293 0.136 -2.279 -0.232 -3.294 -1.026 -0.97 -0.926 -1.326 -1.861 -1.48 -3.175 -0.022 -1.43 0.267 -2.718 1.276 -3.773 1.3 -1.155 2.592 -1.573 4.323 -1.061m-4.525 1.754c-0.741 1.425 -0.796 2.663 -0.501 4.225 0.211 0.557 0.457 1.013 0.764 1.528h0.382v0.382c1.046 0.617 2.06 0.89 3.267 0.7 1.13 -0.34 1.801 -1.087 2.461 -2.037 0.548 -1.049 0.523 -2.282 0.382 -3.437 -0.306 -0.961 -0.708 -1.811 -1.552 -2.399 -1.952 -0.976 -3.823 -0.633 -5.204 1.038" fill="#040404"/><path d="M17.186 27.497v0.573l-0.501 0.108c-0.738 0.315 -1.024 0.648 -1.512 1.264 -0.378 0.472 -0.799 0.881 -1.233 1.302l-0.382 -0.382c-0.854 0.484 -1.366 0.903 -1.91 1.719l-0.573 -0.191 -0.131 0.549C10.693 33.035 10.693 33.035 10.228 33.274L9.739 33.417c-0.62 0.329 -0.62 0.329 -0.764 0.955h-0.764a13.176 13.176 0 0 0 -0.764 0.191l0.191 0.573 -0.427 0.143c-0.578 0.261 -0.901 0.547 -1.34 1.003l-0.397 0.406c-0.331 0.34 -0.331 0.34 -0.51 0.74h-0.382c0.26 -0.586 0.553 -0.977 1.015 -1.42l0.364 -0.353L6.301 35.327l0.442 -0.454C10.775 30.935 10.775 30.935 11.839 30.935v-0.382c1.033 -0.764 1.033 -0.764 1.528 -0.764v-0.382c2.662 -1.91 2.662 -1.91 3.819 -1.91" fill="#EB384F"/><path d="M94.654 16.518c0.898 0.569 1.571 1.566 1.901 2.57 0.267 1.534 0.129 2.876 -0.696 4.209 -0.717 0.868 -1.446 1.446 -2.587 1.589 -1.202 0.05 -2.177 -0.071 -3.142 -0.825 -1.005 -1.032 -1.454 -2.069 -1.587 -3.509 0.115 -1.331 0.496 -2.474 1.423 -3.459 1.469 -1.194 2.993 -1.264 4.687 -0.575m-4.291 0.786c-0.959 1.095 -1.36 2.05 -1.378 3.51 0.113 0.973 0.319 1.91 0.955 2.673 0.957 0.747 1.843 1.231 3.086 1.103 1.29 -0.222 2.032 -0.701 2.798 -1.784 0.617 -1.266 0.604 -2.731 0.191 -4.058 -0.697 -1.226 -1.259 -1.837 -2.602 -2.242 -1.122 -0.229 -2.199 0.025 -3.049 0.797" fill="#040404"/><path d="M27.497 18.332c0.382 0.191 0.382 0.191 0.585 0.752L28.261 19.668l0.191 0.382c-0.504 0.27 -0.968 0.453 -1.528 0.573l-0.191 0.764h-0.573l-0.191 0.561c-0.382 0.585 -0.382 0.585 -0.76 0.703 -0.382 0.044 -0.766 0.06 -1.15 0.072l0.191 0.382c-0.37 -0.095 -0.37 -0.095 -0.764 -0.382 -0.182 -0.513 -0.236 -0.985 -0.191 -1.528 0.443 -0.63 1.041 -0.98 1.719 -1.337h0.382v0.382l0.406 -0.191c0.599 -0.208 1.066 -0.22 1.695 -0.191v-1.528" fill="#3694F5"/><path d="M37.427 20.05h0.382v12.03h-0.382c-0.229 -2.26 -0.177 -4.488 -0.107 -6.755l0.03 -1.095q0.037 -1.326 0.077 -2.653c-0.725 0.242 -0.906 0.558 -1.372 1.158 -0.761 0.954 -1.566 1.818 -2.447 2.661l-0.382 0.382 -0.573 -0.191q0.304 -0.311 0.609 -0.621l0.342 -0.349C33.99 24.251 33.99 24.251 34.452 23.901c0.58 -0.487 1.021 -1.04 1.472 -1.643l0.248 -0.324c0.366 -0.482 0.701 -0.961 1.003 -1.485z" fill="#EE891E"/><path d="M26.925 12.794v0.573c-0.315 0.301 -0.315 0.301 -0.752 0.621l-0.472 0.353L25.206 14.703a131.759 131.759 0 0 0 -0.931 0.704l-0.416 0.312c-0.511 0.44 -0.897 0.807 -1.014 1.488 0.016 0.699 0.057 1.272 0.26 1.947 0.272 1.002 0.362 1.967 0.191 2.996 -0.513 0.549 -0.513 0.549 -1.146 0.764 -0.952 -0.279 -1.78 -0.865 -2.607 -1.402 -0.605 -0.366 -0.994 -0.508 -1.706 -0.505 -0.72 0.208 -1.161 0.48 -1.75 0.94l-0.534 0.411L15.085 22.724l-0.573 0.382v-0.573a13.94 13.94 0 0 1 1.229 -0.99l0.343 -0.268c0.784 -0.569 1.412 -0.793 2.385 -0.737 0.779 0.154 1.402 0.529 2.07 0.945l0.418 0.248A71.799 71.799 0 0 1 21.96 22.342l0.955 -0.573 -0.125 -0.747 -0.161 -0.984 -0.083 -0.49c-0.381 -2.351 -0.381 -2.351 0.029 -3.259 0.364 -0.471 0.728 -0.804 1.199 -1.167l0.506 -0.391A145.889 145.889 0 0 1 26.925 12.794" fill="#2378D3"/><path d="m0.191 30.935 0.382 0.191 0.06 0.657c0.085 0.905 0.452 1.589 0.884 2.379C1.719 34.563 1.719 34.563 1.719 34.945l0.764 0.191v-0.382h1.146l-0.191 0.573 0.955 0.191 0.191 -0.382h0.382v-0.764c0.358 0.048 0.358 0.048 0.764 0.191 0.239 0.394 0.239 0.394 0.382 0.764 -0.692 0.573 -0.692 0.573 -1.337 0.573l0.191 0.955 -0.764 0.382c-1.844 -1.104 -3.303 -2.473 -3.933 -4.583 -0.115 -0.573 -0.088 -1.137 -0.077 -1.719" fill="#7124D0"/><path d="m25.397 10.693 0.764 0.382 0.191 -0.382c0.573 0 0.573 0 1.146 0.191h0.573c0.363 1.032 -0.052 2.057 -0.382 3.055 -0.224 0.434 -0.456 0.764 -0.764 1.146l-0.764 -0.382 -0.322 0.37C25.355 15.505 25.076 15.588 24.442 15.658l-0.191 0.955 -0.955 0.191 -0.191 2.482c-0.447 -0.894 -0.582 -1.501 -0.382 -2.482 0.661 -1.239 1.952 -2.013 3.093 -2.769 0.612 -0.412 1.055 -0.718 1.298 -1.432h0.573v-1.146l-2.482 -0.191z" fill="#239FF9"/><path d="M15.658 25.97h0.382v0.764h0.382v0.573l0.573 -0.382c0.513 -0.024 0.513 -0.024 0.955 0 -0.516 0.621 -1.196 0.913 -1.91 1.253 -0.66 0.319 -1.298 0.63 -1.91 1.038 -0.474 0.037 -0.474 0.037 -0.99 0.024l-0.521 -0.011L12.221 29.216l-0.191 -0.573c0.239 -0.286 0.239 -0.286 0.573 -0.573h0.764l0.573 -0.191 0.251 -0.561C14.513 26.734 14.513 26.734 15.121 26.471L15.658 26.352z" fill="#643DE1"/><path d="M155.819 21.005c0.376 0.752 0.147 1.679 0 2.482 -0.428 0.841 -0.937 1.382 -1.719 1.91 -0.925 0.287 -1.947 0.38 -2.871 0.054 -0.741 -0.39 -1.222 -0.797 -1.521 -1.581 0 -0.844 0.259 -1.418 0.838 -2.039 1.441 -1.186 3.526 -0.88 5.272 -0.826m-5.251 1.301c-0.381 0.556 -0.491 0.886 -0.477 1.563 0.378 0.665 0.789 1.091 1.528 1.337 1.252 0.148 2.035 -0.023 3.055 -0.764 0.76 -0.7 0.867 -1.304 0.94 -2.294Q155.628 21.768 155.628 21.387c-2.67 -0.127 -2.67 -0.127 -5.06 0.919" fill="#040404"/><path d="M37.236 32.08h0.382c-0.151 1.811 -0.98 3.149 -2.291 4.392 -1.393 1.065 -2.655 1.406 -4.392 1.337 0.441 -0.441 0.56 -0.434 1.158 -0.477L32.844 37.236l0.191 -0.382 1.146 -0.191 0.191 -0.382h0.382l0.06 -0.334c0.15 -0.493 0.397 -0.784 0.704 -1.193l0.072 -0.382c0.18 -0.576 0.602 -0.792 1.074 -1.146l0.191 -0.382z" fill="#FA7215"/><path d="M19.668 0h8.975v0.382c-1.75 0.43 -3.468 0.412 -5.26 0.385 -0.949 -0.013 -1.826 0.001 -2.76 0.188 -0.298 0.02 -0.597 0.033 -0.895 0.036l-0.432 0.008C18.904 0.955 18.904 0.955 18.332 0.573l0.561 -0.072L19.477 0.382z" fill="#0F65F4"/><path d="M81.347 21.005v0.191l-0.469 0.015c-2.43 0.108 -2.43 0.108 -4.452 1.306 -0.364 0.615 -0.347 1.037 -0.235 1.734 0.608 0.608 1.14 0.814 1.981 0.859 0.925 -0.048 1.673 -0.293 2.411 -0.859 0.746 -0.851 0.878 -1.764 0.955 -2.864h0.191c0.066 1.1 0.07 1.921 -0.573 2.864 -1.066 1.02 -1.922 1.43 -3.383 1.399 -0.73 -0.104 -1.174 -0.398 -1.773 -0.826 -0.473 -0.709 -0.505 -1.278 -0.382 -2.1 0.448 -0.896 1.166 -1.243 2.072 -1.582 1.202 -0.273 2.432 -0.191 3.656 -0.137" fill="#030303"/><path d="m20.432 25.588 0.382 0.191c-0.181 0.739 -0.344 0.931 -1.004 1.341q-0.367 0.176 -0.738 0.342l-0.381 0.18c-0.309 0.146 -0.62 0.287 -0.932 0.429l0.382 0.573 -0.382 0.382c-0.123 0.395 -0.123 0.395 -0.191 0.764l-0.573 -0.191 -0.191 -0.382a14.894 14.894 0 0 0 -0.955 -0.382l0.382 -0.764h0.955l0.04 -0.345c0.211 -0.583 0.512 -0.704 1.046 -1.003 0.172 -0.097 0.344 -0.194 0.521 -0.294L19.286 26.161l0.368 -0.207c0.301 -0.163 0.301 -0.163 0.778 -0.365" fill="#FC5735"/><path d="m33.799 15.085 0.191 0.382 -0.441 0.418c-0.523 0.505 -0.523 0.505 -0.824 1.074L32.462 17.377h-0.573l-0.048 0.322c-0.189 0.582 -0.496 0.948 -0.907 1.396h-0.382v0.764c-0.483 0.466 -0.889 0.614 -1.528 0.764 -0.683 0.285 -1.075 0.481 -1.528 1.074 -0.382 0.454 -0.382 0.454 -1.003 0.609L25.97 22.342c0.604 -0.622 1.208 -1.207 1.91 -1.719h0.382v-0.382c0.356 -0.31 0.356 -0.31 0.824 -0.656 0.635 -0.472 0.635 -0.472 1.214 -1.009C30.553 18.332 30.553 18.332 30.935 18.332l0.143 -0.334c0.274 -0.493 0.579 -0.823 1.003 -1.193h0.382l0.131 -0.322c0.319 -0.562 0.738 -0.954 1.205 -1.396" fill="#E6C34D"/><path d="M10.502 26.352c0.191 0.573 0.191 0.573 0.191 0.955l-1.528 0.382 0.108 0.442C9.357 28.643 9.357 28.643 9.166 29.216l-0.454 0.072c-0.528 0.079 -0.528 0.079 -0.883 0.501l-0.382 -0.382h-0.656C6.111 29.407 6.111 29.407 5.538 29.025l0.382 -0.764h0.764v0.382q0.794 -0.465 1.587 -0.931l0.454 -0.266 0.438 -0.257 0.403 -0.236c0.318 -0.191 0.628 -0.395 0.936 -0.601" fill="#772BDF"/><path d="M34.181 0.955c0.501 0.43 0.501 0.43 0.764 0.764 -0.735 -0.141 -1.563 -0.418 -2.1 -0.955a27.688 27.688 0 0 0 -1.158 -0.107l-0.639 -0.049L30.553 0.573l-0.382 0.764 -0.955 -0.191v0.382l-1.146 0.191 -0.191 -0.382 -0.382 0.382 -0.191 -0.382 0.191 -0.573 -0.764 -0.191c2.284 -0.599 5.361 -0.94 7.447 0.382" fill="#1B9BFA"/><path d="m22.915 30.553 -1.146 0.191 -0.191 0.573c-0.316 0.161 -0.316 0.161 -0.724 0.286l-0.45 0.143 -0.474 0.143c-1.072 0.333 -2.101 0.689 -3.127 1.146 -0.265 0.106 -0.532 0.21 -0.8 0.31l-0.366 0.139C15.267 33.611 14.894 33.709 14.513 33.799v-0.382h0.382l0.191 -0.573c0.377 -0.14 0.76 -0.265 1.146 -0.382 0.586 -0.285 1.161 -0.586 1.737 -0.89 0.519 -0.24 0.948 -0.357 1.509 -0.447 0.752 -0.173 1.476 -0.421 2.208 -0.664 0.492 -0.105 0.76 -0.072 1.229 0.091" fill="#F73E35"/><path d="m23.296 21.96 0.382 0.764c0.223 0.009 0.223 0.009 0.549 -0.107C24.633 22.533 24.633 22.533 25.206 22.724c-2.165 1.719 -2.165 1.719 -3.437 1.719v-0.382l-0.382 -0.191h0.382l-0.191 -0.191 -0.191 -0.573c-0.385 -0.14 -0.385 -0.14 -0.764 -0.191l0.191 -0.573 0.597 0.239c0.752 0.227 0.752 0.227 1.396 -0.215z" fill="#4282F8"/><path d="M4.965 37.045h0.764v0.382h1.146v-0.382l0.573 0.191c0.334 0.018 0.669 0.025 1.003 0.025l0.59 0.001 0.615 -0.002 0.617 0.002 0.589 -0.001 0.54 -0.001c0.443 0.004 0.443 0.004 0.819 -0.216 0.306 0.044 0.612 0.089 0.918 0.138 0.861 0.109 1.73 0.099 2.596 0.113l0.624 0.012q0.98 0.019 1.961 0.035l1.334 0.025q1.63 0.031 3.261 0.059v0.191q-3.341 0.051 -6.683 0.095 -1.552 0.02 -3.103 0.044 -1.497 0.023 -2.994 0.041 -0.571 0.007 -1.143 0.017c-0.533 0.009 -1.066 0.015 -1.599 0.021l-0.479 0.01c-0.741 0.005 -1.324 0.009 -1.949 -0.417z" fill="#FB1A3F"/><path d="M37.427 11.839c0.382 0.382 0.382 0.382 0.425 1.144q0 0.494 -0.006 0.988l-0.002 0.525a340.281 340.281 0 0 1 -0.012 1.663q-0.003 0.563 -0.005 1.126 -0.007 1.382 -0.019 2.764h-0.382c-0.045 0.135 -0.09 0.269 -0.136 0.408 -0.292 0.648 -0.672 1.114 -1.129 1.657l-0.473 0.565L35.327 23.105l-0.191 -0.382 0.191 -0.382h0.382l-0.191 -0.573 0.549 -0.406c0.599 -0.493 0.789 -0.936 0.979 -1.695l0.191 -0.191c0.031 -0.564 0.05 -1.125 0.06 -1.69l0.012 -0.513q0.019 -0.814 0.035 -1.628l0.025 -1.101q0.031 -1.353 0.059 -2.706" fill="#F3CE32"/><path d="m30.362 16.804 1.528 0.191c-0.829 1.343 -2.101 2.737 -3.628 3.246v0.382c-0.439 0.371 -0.439 0.371 -1.014 0.788l-0.571 0.419C26.161 22.151 26.161 22.151 25.588 22.151l0.573 -1.146 0.191 0.382 0.382 -0.191 0.191 -0.573c0.423 -0.304 0.874 -0.52 1.337 -0.764v-0.382h0.382l0.143 -0.561C29.025 18.332 29.025 18.332 29.395 18.165c0.322 -0.019 0.644 -0.024 0.967 -0.024z" fill="#389EC4"/><path d="M37.618 6.301h0.191c0.128 2.043 0.174 3.487 -1.146 5.156l-0.396 0.562C35.198 13.535 35.198 13.535 34.563 14.131v-1.146h0.573l-0.036 -0.704c0.001 -0.744 0.114 -1.196 0.609 -1.778 0.394 -0.167 0.394 -0.167 0.764 -0.191l0.382 0.191 0.084 -0.37C37.045 9.739 37.045 9.739 37.236 9.548c0.076 -0.545 0.144 -1.088 0.203 -1.635l0.053 -0.467q0.064 -0.572 0.126 -1.145" fill="#2BB0BD"/><path d="M37.236 8.784c0.222 0.544 0.204 0.733 -0.024 1.289L36.854 10.502h-0.955c-0.419 0.538 -0.64 1.05 -0.764 1.719l-1.337 0.382c0.112 -1.175 0.112 -1.175 0.191 -1.528 0.475 -0.238 0.651 -0.148 1.146 0v-1.337h-0.382v-0.382c1.265 -0.239 1.265 -0.239 1.91 0.191v-0.382h0.573z" fill="#23B9DD"/><path d="M8.975 0v0.382l-0.671 0.043C6.402 0.575 4.882 0.852 3.246 1.91l-0.36 0.227C2.028 2.759 1.603 3.656 1.146 4.583l-0.21 0.396C0.706 5.471 0.646 5.957 0.573 6.492H0.191c0.103 -1.861 0.856 -3.345 2.221 -4.617C4.428 0.325 6.5 -0.083 8.975 0" fill="#2D2FCD"/><path d="m15.085 24.251 0.644 0.286c0.626 0.311 0.626 0.311 1.074 0.286 0.104 0.584 0.191 1.124 0.191 1.719l0.573 -0.573c0.572 0.191 0.754 0.335 1.146 0.764l-1.528 0.382 -0.433 0.108L16.422 27.306v-0.573h-0.382v-0.764h-0.382v-0.382h-0.573z" fill="#5B51EA"/><path d="M10.693 14.894c0.91 0.268 1.593 0.724 2.1 1.528 0.43 1.593 -0.384 3.485 -0.955 4.965l-0.382 0.382h-0.573v-0.382l0.382 -0.191 0.191 -0.573h-0.382v-0.382c0.477 -0.31 0.477 -0.31 0.955 -0.573l-0.191 -0.955 0.382 -0.191c0.089 -0.362 0.089 -0.362 0.119 -0.776L12.412 16.995l-0.37 -0.167C11.648 16.613 11.648 16.613 11.457 16.231l-0.382 0.382c-0.191 -0.907 -0.191 -0.907 -0.191 -1.337z" fill="#624AFB"/><path d="M103.688 8.593c0.603 0.26 0.881 0.449 1.217 1.015 0.148 0.636 0.115 1.032 -0.072 1.659 -0.518 0.619 -0.87 0.93 -1.683 1.003 -0.684 -0.053 -1.018 -0.215 -1.564 -0.621 -0.329 -0.658 -0.287 -1.381 -0.191 -2.1 0.656 -0.874 1.221 -1.039 2.291 -0.955m-1.91 0.955c-0.228 0.699 -0.253 1.012 0.06 1.683 0.287 0.435 0.287 0.435 0.704 0.609 0.886 0.084 0.886 0.084 1.695 -0.215 0.308 -0.514 0.382 -0.905 0.406 -1.504 -0.331 -0.712 -0.331 -0.712 -0.955 -1.146 -0.829 -0.072 -1.336 -0.064 -1.91 0.573" fill="#050505"/><path d="m8.02 0.573 -0.191 0.573c-1.106 0.382 -1.106 0.382 -1.719 0.382l-0.191 0.764 -0.382 -1.146 -0.263 0.382L4.965 1.91h-0.382l-0.191 0.573c-0.37 -0.155 -0.37 -0.155 -0.764 -0.382l-0.191 -0.573c1.558 -0.874 2.807 -1.082 4.583 -0.955" fill="#4E53FC"/><path d="M35.136 1.719c1.028 0.741 1.561 1.533 2.1 2.673l0.216 0.444c0.212 0.654 0.202 1.221 0.189 1.907l-0.011 0.726L37.618 8.02l-0.955 -0.955h0.764l-0.382 -0.191c-0.414 -0.61 -0.446 -1.217 -0.518 -1.93 -0.065 -0.429 -0.227 -0.749 -0.436 -1.126v-0.573a34.563 34.563 0 0 0 -0.764 -0.764v-0.382l-0.382 -0.191z" fill="#1DA3DA"/><path d="m32.653 13.749 0.382 0.191v0.382l0.382 0.191h-0.382l0.024 0.549C33.035 15.658 33.035 15.658 32.653 16.04h-0.573v0.382h-0.382l0.191 0.573 -0.955 -0.191v-1.146h-0.382v-0.382l1.719 -0.191 -0.191 -0.955z" fill="#28B5DA"/><path d="M68.171 19.859h0.191l0.191 7.065h2.1v-4.583h0.191l0.191 4.965h-2.864z" fill="#0A0A0A"/><path d="M8.02 12.603c1.172 0.415 2.072 1.167 3.055 1.91l0.505 0.378C12.743 15.773 12.743 15.773 13.176 16.422c0.122 1.343 -0.212 2.531 -0.573 3.819h-0.382l0.084 -0.351C12.714 18.165 12.714 18.165 12.603 16.422c-0.411 -0.581 -0.946 -0.936 -1.528 -1.337q-0.523 -0.372 -1.045 -0.745a56.904 56.904 0 0 0 -0.721 -0.504c-0.551 -0.382 -0.912 -0.669 -1.289 -1.234" fill="#3C27C0"/><path d="M10.693 21.578c0.501 0.072 0.501 0.072 0.955 0.191 -0.272 1.059 -0.779 2.062 -1.528 2.864 -0.516 0.146 -0.516 0.146 -0.955 0.191l-0.191 -0.382 0.37 -0.06L9.739 24.251l0.191 -0.573h-0.382v-0.573l0.764 -0.191 -0.024 -0.454C10.312 21.96 10.312 21.96 10.693 21.578" fill="#733AEE"/><path d="M27.497 18.332c0.382 0.191 0.382 0.191 0.585 0.752L28.261 19.668l0.191 0.382c-0.504 0.27 -0.968 0.453 -1.528 0.573l-0.191 0.764h-0.573l-0.382 0.382 -0.382 -0.573c0.167 -0.609 0.167 -0.609 0.382 -1.146 1.289 -0.191 1.289 -0.191 1.719 -0.191v-1.528" fill="#30A2ED"/><path d="M17.186 27.497v0.573l-0.501 0.108c-0.738 0.315 -1.024 0.648 -1.512 1.264 -0.378 0.472 -0.799 0.881 -1.233 1.302l-0.764 -0.382c0.041 -0.441 0.041 -0.441 0.191 -0.955 0.383 -0.317 0.383 -0.317 0.871 -0.585 0.171 -0.095 0.343 -0.191 0.52 -0.289L15.276 28.261l0.453 -0.243C16.733 27.497 16.733 27.497 17.186 27.497" fill="#ED4946"/><path d="m27.116 22.342 -0.573 0.191 -0.191 0.382c-0.178 0.235 -0.361 0.465 -0.549 0.692l-0.297 0.365C25.206 24.251 25.206 24.251 24.633 24.251v-0.382l-1.146 0.573 -0.382 -0.382a159.065 159.065 0 0 1 1.182 -0.847l0.334 -0.244c0.866 -0.612 1.46 -0.972 2.494 -0.628" fill="#F2A63A"/><path d="m16.231 21.578 0.382 0.191c0.533 0.211 0.533 0.211 0.955 0.191l-0.107 0.406c-0.094 0.614 -0.019 1.09 0.107 1.695h-0.955c-0.382 -1.098 -0.382 -1.098 -0.382 -1.528l-0.764 0.382 -0.191 -0.573z" fill="#555FF9"/><path d="m0.191 30.935 0.382 0.191 0.06 0.657c0.085 0.905 0.452 1.589 0.884 2.379C1.719 34.563 1.719 34.563 1.719 34.945h0.382c0.31 0.263 0.31 0.263 0.573 0.573v0.382c0.685 0.356 1.39 0.654 2.1 0.955l-0.191 0.382c-1.596 -0.444 -2.81 -1.564 -3.628 -2.996C0.4 33.11 0.14 32.208 0.191 30.935" fill="#581DA5"/><path d="M37.618 9.548h0.191v2.673h-0.573c-0.586 0.031 -0.586 0.031 -1.146 0.191 -0.274 0.373 -0.274 0.373 -0.382 0.764 0 -0.726 0.234 -0.998 0.633 -1.599 0.351 -0.535 0.699 -1.066 1.023 -1.619z" fill="#DEE36E"/><path d="M8.975 0h3.628v0.382h1.528v0.191H6.683V0.382h2.291z" fill="#1B3EED"/><path d="M15.658 25.97h0.382v0.764h0.382v0.573l0.573 -0.382c0.513 -0.024 0.513 -0.024 0.955 0 -0.515 0.636 -1.155 0.868 -1.91 1.146h-0.764l-0.191 -1.528 0.573 -0.191z" fill="#5E45D7"/><path d="M18.451 20.454c1.067 0.397 2.005 1.052 2.936 1.696l-0.191 0.382 -0.538 -0.341q-0.357 -0.218 -0.715 -0.435l-0.353 -0.226c-0.641 -0.383 -0.992 -0.526 -1.756 -0.525 -0.716 0.209 -1.16 0.483 -1.746 0.941l-0.534 0.411L15.085 22.724l-0.573 0.382v-0.573c2.489 -2.248 2.489 -2.248 3.938 -2.078" fill="#2C52C9"/><path d="M20.432 7.638h0.764l0.191 1.719 0.573 0.191 -0.382 0.955c-0.648 -0.264 -0.902 -0.505 -1.205 -1.134l-0.201 -0.399c-0.172 -0.534 0.018 -0.847 0.26 -1.332" fill="#2384FD"/><path d="m0.955 30.553 0.573 0.382a18.523 18.523 0 0 1 0 1.337l0.119 0.728L1.719 33.608l-0.382 0.382c-0.728 -1.079 -0.903 -1.953 -0.955 -3.246z" fill="#7628E1"/><path d="M37.045 20.814h0.382v0.764l-0.573 0.191a18.714 18.714 0 0 0 -0.8 0.967c-0.761 0.954 -1.566 1.818 -2.447 2.661l-0.382 0.382 -0.573 -0.191q0.304 -0.311 0.609 -0.621l0.342 -0.349C33.99 24.251 33.99 24.251 34.45 23.904c0.599 -0.505 1.033 -1.067 1.497 -1.694 0.902 -1.2 0.902 -1.2 1.098 -1.396" fill="#F58A0C"/><path d="m13.558 23.869 0.573 0.382 -0.37 0.131c-0.446 0.222 -0.446 0.222 -0.537 0.752L13.176 25.588l-0.358 0.048c-0.441 0.108 -0.441 0.108 -0.644 0.537L12.03 26.543c-0.547 -0.109 -0.737 -0.164 -1.146 -0.573z" fill="#6941F1"/><path d="M2.1 29.98c0.573 0 0.573 0 0.955 0.191 0.027 1.419 0.027 1.419 -0.191 2.1h-0.382l-0.191 0.382 -0.573 -0.382 0.084 -0.394c0.12 -0.63 0.211 -1.262 0.298 -1.898" fill="#7A29DE"/><path d="m32.271 25.779 0.382 0.191q-0.501 0.412 -1.003 0.824c-0.186 0.153 -0.372 0.306 -0.564 0.463L30.553 27.688l-0.374 0.311c-0.513 0.344 -1.041 0.545 -1.619 0.763 -0.213 0.081 -0.425 0.162 -0.644 0.246A9.739 9.739 0 0 1 26.352 29.407c0.506 -0.396 1.005 -0.717 1.578 -1.006l0.468 -0.24q0.479 -0.243 0.959 -0.485c1.054 -0.542 1.99 -1.155 2.914 -1.897" fill="#F56C13"/><path d="M46.02 9.166h2.864v0.191l-0.495 0.028 -0.639 0.043c-0.211 0.013 -0.421 0.027 -0.638 0.04L46.593 9.548c-0.328 0.656 -0.238 1.409 -0.251 2.132l-0.012 0.525a715.888 715.888 0 0 0 -0.035 1.663l-0.025 1.126Q46.239 16.376 46.211 17.759h-0.191z" fill="#090909"/><path d="M17.568 3.437c0.501 0.179 0.501 0.179 0.955 0.382v0.382l0.955 0.191v0.573h0.382l-0.382 1.528c-0.418 -0.627 -0.572 -1.185 -0.764 -1.91l-1.337 -0.191 -0.191 -0.764z" fill="#2478FD"/><path d="M0.764 4.965h0.382v0.382h0.382l-0.107 0.334c-0.12 0.427 -0.12 0.427 0.048 0.812L1.528 6.874c-0.346 0.394 -0.346 0.394 -0.764 0.764l-0.382 0.573c-0.048 -1.159 0.058 -2.131 0.382 -3.246" fill="#6849FC"/><path d="M15.849 4.583h0.573v0.382l0.382 0.191 -0.955 2.673 -0.573 -0.191 0.382 -0.955 -0.382 -0.191 0.191 -0.764h0.382l-0.107 -0.465L15.658 4.774z" fill="#3768FD"/><path d="m20.432 25.588 0.382 0.191c-0.172 0.638 -0.311 0.905 -0.859 1.289 -0.856 0.306 -1.675 0.378 -2.578 0.43 0.476 -0.539 1.003 -0.834 1.635 -1.17l0.561 -0.3c0.285 -0.149 0.571 -0.296 0.859 -0.44" fill="#E46F4B"/><path d="m33.226 16.04 0.382 0.191c-0.072 0.466 -0.072 0.466 -0.191 0.955l-0.382 0.191v0.764c-0.191 0.191 -0.191 0.191 -0.776 0.203L31.698 18.332l0.191 -0.955h0.573l0.167 -0.454C32.844 16.422 32.844 16.422 33.226 16.04" fill="#F9CE32"/><path d="M15.085 22.533c0.573 0.382 0.573 0.382 0.728 0.859L15.849 23.869l-0.382 0.382 -0.191 -0.382 -0.573 0.573 -0.955 -0.382c0.285 -0.725 0.717 -1.071 1.337 -1.528" fill="#614DF0"/><path d="m33.799 15.085 0.191 0.382 -0.441 0.418c-0.523 0.505 -0.523 0.505 -0.824 1.074L32.462 17.377h-0.573l-0.072 0.358C31.698 18.141 31.698 18.141 31.317 18.523h-0.573v0.382l-0.955 0.382a20.05 20.05 0 0 1 0.764 -0.955h0.382l0.143 -0.334c0.274 -0.493 0.579 -0.823 1.003 -1.193h0.382l0.131 -0.322c0.319 -0.562 0.738 -0.954 1.205 -1.396" fill="#C7D86D"/><path d="M7.638 10.693c0.517 0.049 1.026 0.108 1.54 0.179l0.439 0.058q0.538 0.072 1.077 0.145l0.191 -0.382 1.528 0.191c-0.549 0.549 -1.125 0.455 -1.862 0.477 -0.98 0.031 -1.794 0.116 -2.721 0.477l-0.382 -0.955z" fill="#5752FD"/><path d="M18.523 21.005c0.881 0.252 1.547 0.614 2.291 1.146l-0.573 0.955 -0.382 -0.191v-0.382l-0.573 -0.191 -0.382 -0.382 -0.573 -0.191zm1.146 2.1 0.382 0.191Z" fill="#4475F8"/><path d="m30.362 16.804 1.528 0.191c-1.099 1.618 -1.099 1.618 -1.719 1.91 -0.716 -0.06 -0.716 -0.06 -1.337 -0.191l0.573 -0.573 0.573 0.191 0.382 -0.191z" fill="#2FA7C9"/><path d="m24.06 15.276 0.382 0.382c-0.072 0.501 -0.072 0.501 -0.191 0.955l-0.955 0.191 -0.191 2.482c-0.441 -0.883 -0.599 -1.513 -0.382 -2.482 0.383 -0.579 0.831 -1.054 1.337 -1.528" fill="#2A95FC"/><path d="m8.402 33.608 -0.191 0.764 -0.764 0.191 0.191 0.573 -0.427 0.143c-0.578 0.261 -0.901 0.547 -1.34 1.003l-0.397 0.406c-0.331 0.34 -0.331 0.34 -0.51 0.74h-0.382c0.26 -0.586 0.553 -0.977 1.015 -1.42 0.118 -0.115 0.237 -0.23 0.359 -0.349L6.301 35.327l0.513 -0.513L7.256 34.372l0.418 -0.441C8.02 33.608 8.02 33.608 8.402 33.608" fill="#D22871"/><path d="m14.131 22.915 0.382 0.191c-0.811 0.868 -1.669 1.631 -2.602 2.363l-0.318 0.255c-0.608 0.468 -1.085 0.742 -1.854 0.819 0.608 -0.642 1.277 -1.176 1.981 -1.707A56.904 56.904 0 0 0 14.131 22.915" fill="#4419B0"/><path d="M8.402 33.99h0.573l-0.191 2.1 -0.573 0.191v-0.382l-0.955 0.191c0.191 -0.573 0.191 -0.573 0.477 -0.847 0.335 -0.349 0.384 -0.596 0.477 -1.062z" fill="#FC2544"/><path d="m10.121 32.271 0.573 0.382v0.382l-0.441 0.167C9.71 33.41 9.71 33.41 9.166 33.799l-0.191 0.573h-0.382c-0.143 -0.43 -0.143 -0.43 -0.191 -0.955 0.463 -0.623 0.967 -0.953 1.719 -1.146" fill="#F02F4B"/><path d="M5.92 28.261h0.764l0.191 0.382c0.528 -0.1 1.017 -0.212 1.528 -0.382 -0.064 0.481 -0.11 0.701 -0.501 1.003 -0.619 0.195 -1.145 0.19 -1.79 0.143l-0.573 -0.382z" fill="#7924D7"/><path d="M28.834 0.191c4.261 -0.167 4.261 -0.167 5.848 1.193L34.945 1.719c-0.735 -0.141 -1.563 -0.418 -2.1 -0.955a16.422 16.422 0 0 0 -0.896 -0.102l-0.547 -0.05 -0.575 -0.05 -0.577 -0.053Q29.542 0.444 28.834 0.382z" fill="#1E8ED4"/><path d="m23.105 37.236 8.211 0.191v0.191h-7.829l-0.191 0.382 -0.382 -0.191z" fill="#FE3225"/><path d="M35.518 36.281c-1.556 1.1 -2.664 1.604 -4.583 1.528 0.441 -0.441 0.56 -0.434 1.158 -0.477L32.844 37.236l0.191 -0.382 1.146 -0.191 0.191 -0.382c0.573 -0.191 0.573 -0.191 1.146 0" fill="#E6501A"/><path d="M7.638 12.221h0.764v0.764a11.075 11.075 0 0 0 1.146 0.907l0.331 0.238A73.899 73.899 0 0 0 10.693 14.703c-0.738 0 -1.243 -0.271 -1.91 -0.573v-0.382h-0.764c-0.337 -0.59 -0.382 -0.808 -0.382 -1.528" fill="#6243F8"/><path d="M25.045 -0.043c0.166 0.002 0.332 0.004 0.503 0.006l0.545 0.004 0.57 0.01 0.574 0.005Q27.94 -0.012 28.643 0v0.382c-1.57 0.356 -2.828 0.4 -4.392 0 0.382 -0.382 0.382 -0.382 0.793 -0.425" fill="#0666EF"/><path d="M17.377 32.462c-0.573 0.661 -1.015 0.896 -1.862 1.098l-0.57 0.14L14.513 33.799v-0.382h0.382l0.191 -0.573c0.694 -0.527 1.461 -0.41 2.291 -0.382" fill="#F7333B"/><path d="M23.869 22.533h1.337c-0.622 0.672 -1.315 1.247 -2.1 1.719h-0.382l-0.191 -0.764 1.528 -0.573z" fill="#4181C2"/><path d="M36.281 34.372h0.573c-0.293 0.66 -0.649 1.193 -1.146 1.719 -0.525 0.155 -0.525 0.155 -0.955 0.191 0.067 -0.622 0.195 -0.767 0.68 -1.193L35.899 34.754l0.382 0.191z" fill="#F26619"/><path d="M37.236 19.477h0.191c-0.07 1.175 -0.396 1.731 -1.158 2.566l-0.273 0.313A62.824 62.824 0 0 1 35.327 23.105l-0.191 -0.382 0.191 -0.382h0.382l-0.191 -0.573 0.549 -0.406c0.599 -0.493 0.789 -0.936 0.979 -1.695z" fill="#FEC92B"/><path d="m25.397 10.693 0.764 0.382 0.191 -0.382c0.573 0 0.573 0 1.146 0.191h0.573c0.197 0.532 0.2 0.739 0.012 1.289L27.879 12.603h-0.191v-1.146l-2.482 -0.191z" fill="#1A95F6"/><path d="M23.105 24.251v0.382h-0.573c-0.032 0.461 -0.032 0.461 0 0.955l0.382 0.382h-1.146l-0.191 -0.382c-0.387 -0.125 -0.387 -0.125 -0.764 -0.191a187.899 187.899 0 0 1 0.931 -0.573l0.524 -0.322C22.724 24.251 22.724 24.251 23.105 24.251" fill="#E48E50"/><path d="M25.397 19.859v0.382h0.382l-0.191 0.955 -0.764 0.191v-0.382h-0.382l-0.191 -0.573c0.716 -0.573 0.716 -0.573 1.146 -0.573" fill="#319BF7"/><path d="m9.93 31.507 0.764 0.191q-0.423 0.335 -0.847 0.668l-0.477 0.376C8.975 33.035 8.975 33.035 8.784 33.035v-1.337l1.146 0.191z" fill="#7620BD"/><path d="M25.588 0.382v0.382h-3.628V0.382c1.257 -0.171 2.372 -0.182 3.628 0" fill="#1587F6"/><path d="m13.94 33.417 0.382 0.191c-0.864 0.895 -1.408 1.384 -2.673 1.528 0.312 -0.326 0.548 -0.56 0.955 -0.764v-0.382a25.97 25.97 0 0 1 1.337 -0.573" fill="#F72C44"/><path d="M0.191 26.352h0.191l0.035 0.426 0.048 0.565 0.047 0.557c0.049 0.547 0.049 0.547 0.174 1.048C0.809 29.677 0.585 30.23 0.382 30.935H0.191z" fill="#6817D3"/><path d="M33.799 14.703c0 0.71 -0.17 0.841 -0.632 1.361l-0.356 0.407C32.462 16.804 32.462 16.804 31.889 16.995l-0.191 -0.573h0.382v-0.382l0.37 -0.274C32.898 15.484 32.898 15.484 33.035 14.894h0.573z" fill="#35A7B1"/><path d="M4.965 37.045h0.764v0.382h1.146v-0.382c0.573 0.191 0.573 0.191 1.146 0.573 -0.888 0.296 -1.898 0.348 -2.769 0l-0.286 -0.191z" fill="#E31A47"/><path d="m28.261 20.241 0.382 0.191a86.12 86.12 0 0 1 -0.621 0.74l-0.349 0.416c-0.368 0.373 -0.637 0.582 -1.131 0.753l-0.573 -0.191q0.464 -0.383 0.931 -0.764l0.524 -0.43C27.879 20.623 27.879 20.623 28.261 20.623z" fill="#D3BC5F"/><path d="M36.09 12.412h0.573c0.161 0.645 0.212 1.084 0 1.719h-0.573c-0.215 -0.537 -0.215 -0.537 -0.382 -1.146z" fill="#F9E039"/><path d="M0.573 8.211h0.382c0.262 0.863 0.11 1.452 -0.191 2.291l-0.382 0.382q-0.008 -0.615 -0.012 -1.229l-0.007 -0.692C0.382 8.402 0.382 8.402 0.573 8.211" fill="#6F42FE"/><path d="M12.03 19.668c0.182 0.414 0.218 0.68 0.076 1.112 -0.145 0.333 -0.301 0.661 -0.458 0.988h-0.764v-0.382l0.382 -0.191 0.191 -0.573h-0.382v-0.382c0.477 -0.31 0.477 -0.31 0.955 -0.573" fill="#6D44F9"/><path d="m18.546 -0.012 0.527 0.005L19.477 0v0.573H17.186V0.191c0.482 -0.241 0.823 -0.21 1.361 -0.203" fill="#084DEE"/><path d="M17.26 20.859 17.568 21.005l-0.329 0.217A80.774 80.774 0 0 0 14.513 23.105v-0.573a12.603 12.603 0 0 1 1.098 -0.907l0.312 -0.245c0.771 -0.577 0.771 -0.577 1.338 -0.521" fill="#3838BF"/><path d="m12.03 25.015 0.382 0.573c-0.167 0.513 -0.167 0.513 -0.382 0.955 -0.547 -0.109 -0.737 -0.164 -1.146 -0.573z" fill="#6E35E5"/><path d="m23.296 21.96 0.573 1.146 -1.146 0.382 -0.191 -0.573 -0.382 -0.191z" fill="#3888F7"/><path d="M23.869 9.548c0.373 0.373 0.544 0.674 0.764 1.146 -0.191 0.191 -0.191 0.191 -0.585 0.21l-0.477 -0.007 -0.478 -0.005L22.724 10.884l0.573 -0.191c0.223 -0.366 0.223 -0.366 0.382 -0.764z" fill="#218CFC"/><path d="M10.884 35.136h0.764v0.382l-0.31 0.143c-0.561 0.295 -1.076 0.645 -1.599 1.003l-0.382 -0.382c0.266 -0.532 0.604 -0.552 1.146 -0.764z" fill="#F12248"/><path d="m0.191 30.935 0.382 0.191c0.044 0.368 0.088 0.736 0.124 1.106 0.103 0.646 0.358 1.171 0.64 1.759H0.764c-0.402 -1.056 -0.645 -1.923 -0.573 -3.055" fill="#5A1FB5"/><path d="M17.186 27.497v0.573l-0.549 0.155c-0.645 0.179 -0.645 0.179 -0.979 0.8 -0.597 0.036 -0.597 0.036 -1.146 0 0.635 -0.741 1.652 -1.528 2.673 -1.528" fill="#D45662"/><path d="M23.105 20.241h0.191c0.067 0.649 0.103 1.263 0 1.91 -0.573 0.501 -0.573 0.501 -1.146 0.764l-0.764 -0.382 0.191 -0.382 0.573 0.191c0.437 -0.16 0.437 -0.16 0.764 -0.573 0.124 -0.516 0.156 -0.994 0.191 -1.528" fill="#1E6ADB"/><path d="m12.985 29.789 0.382 0.191c-0.973 1.31 -0.973 1.31 -1.695 1.42L11.266 31.317l0.191 -0.382h0.382v-0.382a23.869 23.869 0 0 1 1.146 -0.764" fill="#E44256"/><path d="M26.925 20.623h0.955c-0.605 0.623 -1.222 1.188 -1.91 1.719l-0.382 -0.191 0.573 -1.146 0.191 0.382 0.382 -0.191z" fill="#3F8EBC"/><path d="m22.915 30.553 -1.146 0.191 -0.191 0.573c-0.562 0.225 -0.745 0.197 -1.337 0v-0.382q0.453 -0.152 0.907 -0.298l0.51 -0.168c0.507 -0.11 0.773 -0.086 1.256 0.084" fill="#FB5235"/><path d="m21.196 25.397 0.573 0.191 -0.382 0.764h-0.382l0.191 0.573 -0.573 0.191c-0.036 -0.644 -0.036 -0.644 0 -1.337z" fill="#FA7F31"/><path d="M19.668 25.015h0.382v0.382l0.955 -0.191c-0.487 0.568 -1.038 0.848 -1.719 1.146h-0.573v-0.382h0.382v-0.382l0.764 0.191z" fill="#4F5FC4"/><path d="m13.749 9.548 1.146 0.382c-0.483 0.534 -0.803 0.851 -1.528 0.955 0.167 -0.907 0.167 -0.907 0.382 -1.337" fill="#4261FD"/><path d="M36.663 4.392c0.676 0.705 0.686 1.355 0.764 2.291l-0.382 0.191c-0.458 -0.732 -0.504 -1.446 -0.573 -2.291z" fill="#1EB5F1"/><path d="M37.236 32.08h0.382c-0.097 0.825 -0.229 1.534 -0.573 2.291h-0.191c-0.187 -1.156 -0.187 -1.156 -0.191 -1.528l0.382 -0.382z" fill="#E67423"/><path d="m12.412 28.07 0.955 0.191 0.191 0.764 -1.337 0.191 -0.191 -0.573z" fill="#6830DA"/><path d="m20.814 25.779 -0.382 0.955 -1.337 -0.191c0.425 -0.637 0.946 -1.15 1.719 -0.764" fill="#DB7857"/><path d="M15.085 22.533c0.573 0.382 0.573 0.382 0.728 0.859L15.849 23.869l-0.382 0.382 -0.382 -0.955 -0.573 0.191c0.358 -0.74 0.358 -0.74 0.573 -0.955" fill="#5E54F7"/><path d="M35.136 1.719c0.911 0.683 1.392 1.277 1.91 2.291h-0.573c-0.382 -0.51 -0.7 -1.015 -0.979 -1.587 -0.146 -0.358 -0.146 -0.358 -0.549 -0.513z" fill="#2096D7"/><path d="M17.568 25.97c0.572 0.191 0.754 0.335 1.146 0.764 -0.565 0.282 -1.096 0.202 -1.719 0.191 0.072 -0.37 0.072 -0.37 0.191 -0.764z" fill="#5855DA"/><path d="M37.045 20.814h0.382v0.764l-0.573 0.191a26.925 26.925 0 0 0 -0.955 0.955c0.097 -0.84 0.589 -1.312 1.146 -1.91" fill="#F5A010"/><path d="M31.317 17.568h0.573c-0.143 0.37 -0.143 0.37 -0.382 0.764 -0.406 0.143 -0.406 0.143 -0.764 0.191v0.382l-0.955 0.382a20.05 20.05 0 0 1 0.764 -0.955h0.382z" fill="#D4CE61"/><path d="M7.638 10.693q0.575 0.082 1.146 0.191l0.191 0.573 -1.146 0.382 -0.382 -0.955z" fill="#5E45F9"/><path d="M0.955 3.819c0.164 0.458 0.234 0.671 0.024 1.122L0.764 5.347a21.387 21.387 0 0 0 -0.191 1.146H0.191c0.089 -1.034 0.237 -1.758 0.764 -2.673" fill="#4933C9"/><path d="m25.206 21.387 0.764 0.382 -0.382 0.764c-0.414 -0.097 -0.764 -0.191 -1.146 -0.382l0.191 -0.382 0.382 0.191z" fill="#3495E5"/><path d="M36.854 11.457h0.382l0.191 0.573c-0.505 0.279 -0.744 0.382 -1.337 0.382l-0.382 0.764c0 -0.573 0 -0.573 0.466 -1.074L36.663 11.648z" fill="#E6EA5F"/><path d="m18.332 4.774 0.573 0.191c0.223 0.478 0.223 0.478 0.418 1.062l0.199 0.585L19.668 7.065l-0.382 0.382z" fill="#1D5DCF"/><path d="M19.286 31.507c-0.516 0.516 -1.036 0.708 -1.719 0.955 -0.425 -0.08 -0.425 -0.08 -0.764 -0.191 0.269 -0.166 0.54 -0.328 0.812 -0.489l0.456 -0.275c0.509 -0.215 0.707 -0.193 1.214 0.001" fill="#FE4B3F"/><path d="M33.799 23.105h1.337c-0.277 0.731 -0.655 0.978 -1.337 1.337l-0.191 -0.382h0.573z" fill="#FDB828"/><path d="m27.306 21.769 0.382 0.382c-0.036 0.382 -0.036 0.382 -0.191 0.764 -0.573 0.382 -0.573 0.382 -1.146 0.382 0.103 -0.725 0.42 -1.045 0.955 -1.528" fill="#FCAC34"/><path d="m15.085 27.688 0.191 0.382 0.573 0.191a153.718 153.718 0 0 1 -0.835 0.477l-0.47 0.268C14.131 29.216 14.131 29.216 13.749 29.216v-0.382h0.573l-0.191 -0.573 0.764 0.191z" fill="#6635BF"/><path d="M133.859 19.668h0.191q0.015 0.65 0.024 1.301l0.013 0.732C134.05 22.342 134.05 22.342 133.668 22.915c-0.255 -0.721 -0.138 -1.31 -0.012 -2.053l0.113 -0.677z" fill="#080808"/><path d="M27.497 18.332c0.382 0.191 0.382 0.191 0.585 0.752L28.261 19.668l0.191 0.382c-0.37 0.108 -0.37 0.108 -0.764 0.191 -0.191 -0.191 -0.191 -0.191 -0.203 -0.74L27.497 18.904z" fill="#2AA5EA"/><path d="m12.221 30.362 -0.382 0.191v0.382l-1.146 0.573v-0.764c0.616 -0.411 0.818 -0.42 1.528 -0.382" fill="#7621B7"/><path d="M37.618 9.548c0.293 0.586 0.105 1.088 0 1.719h-0.764c0.202 -0.65 0.384 -1.148 0.764 -1.719" fill="#D4EE81"/><path d="m29.98 20.241 0.191 0.573 0.382 0.191v0.382l-1.146 0.191c0.143 -0.907 0.143 -0.907 0.573 -1.337" fill="#FDB72F"/><path d="m5.92 35.327 0.382 0.191 -1.337 1.146 -0.191 -0.764h0.382l0.191 -0.382h0.382z" fill="#761AB6"/><path d="M35.708 11.457h0.573l-0.191 0.764 -0.764 0.191c0 -0.573 0 -0.573 0.382 -0.955" fill="#2BB5C5"/><path d="M18.904 27.116v0.382c-0.43 0.215 -0.43 0.215 -0.955 0.382 -0.441 -0.167 -0.441 -0.167 -0.764 -0.382 1.074 -0.382 1.074 -0.382 1.719 -0.382" fill="#F96533"/><path d="m14.131 22.915 0.382 0.191 -1.337 1.337 -0.382 -0.382z" fill="#3D22B3"/><path d="M24.824 23.105v0.382l-0.346 0.155c-0.412 0.224 -0.677 0.454 -0.991 0.8l-0.382 -0.382a88.985 88.985 0 0 1 0.644 -0.477l0.362 -0.268C24.442 23.105 24.442 23.105 24.824 23.105" fill="#D2A269"/><path d="m30.744 18.523 0.382 0.191 -0.191 0.382h-0.382v0.764l-0.573 0.191 0.191 -0.955 0.573 -0.191z" fill="#FBC231"/><path d="m7.447 30.553 0.191 0.382 -0.382 -0.191zm-1.337 0.382h1.146c-0.239 0.298 -0.239 0.298 -0.573 0.573 -0.418 -0.06 -0.418 -0.06 -0.764 -0.191z" fill="#7724D6"/><path d="m13.558 29.598 0.191 0.382h0.573l-0.382 0.764 -0.764 -0.382z" fill="#FB413C"/><path d="m23.487 23.296 -0.382 0.955h-0.382l-0.191 -0.764c0.382 -0.191 0.382 -0.191 0.955 -0.191" fill="#447ED5"/><path d="m87.075 27.879 0.764 0.191Z" fill="#000000"/><path d="" fill="#000000"/><path d="" fill="#000000"/><path d="" fill="#000000"/><path d="" fill="#000000"/><path d="" fill="#000000"/><path d="" fill="#000000"/><path d="" fill="#000000"/><path d="" fill="#000000"/><path d="" fill="#404080"/><path d="" fill="#000000"/><path d="" fill="#000000"/><path d="" fill="#000000"/><path d="" fill="#000000"/><path d="" fill="#000000"/><path d="" fill="#000000"/><path d="" fill="#000000"/><path d="" fill="#000000"/><path d="" fill="#000000"/><path d="" fill="#000000"/><path d="" fill="#000000"/><path d="" fill="#000000"/><path d="" fill="#000000"/><path d="" fill="#000000"/><path d="" fill="#000000"/><path d="" fill="#000000"/><path d="" fill="#000000"/><path d="" fill="#000000"/><path d="" fill="#000000"/><path d="" fill="#000000"/><path d="" fill="#808080"/><path d="" fill="#000000"/></svg>