<svg version="1.1" xmlns="http://www.w3.org/2000/svg" width="31" height="31" viewBox="0 0 31 31"><path d="m8.295 0.122 0.526 -0.003C9.392 0.115 9.964 0.114 10.535 0.114l1.199 -0.003Q12.99 0.107 14.246 0.108c1.068 0 2.136 -0.005 3.204 -0.01 0.826 -0.004 1.651 -0.004 2.477 -0.004q0.59 -0.001 1.18 -0.005c3.174 -0.02 5.6 0.197 8.041 2.416 1.099 1.138 1.869 2.68 1.877 4.275l0.004 0.475 0.001 0.517 0.003 0.548q0.005 0.898 0.007 1.797l0.002 0.621q0.005 1.628 0.008 3.255c0.002 1.118 0.008 2.236 0.015 3.354 0.005 0.862 0.006 1.723 0.007 2.585q0.001 0.618 0.006 1.236c0.004 0.578 0.004 1.156 0.003 1.735l0.007 0.51c-0.015 1.989 -0.77 3.7 -2.092 5.174 -1.823 1.754 -4.245 2.297 -6.696 2.29l-0.479 0.003c-0.518 0.002 -1.035 0.002 -1.553 0.002l-1.092 0.002q-1.142 0.002 -2.283 0c-0.969 -0.001 -1.938 0.002 -2.907 0.006 -0.751 0.003 -1.503 0.003 -2.254 0.002q-0.535 0 -1.071 0.003c-3.232 0.014 -6.08 -0.068 -8.548 -2.378C0.419 26.703 -0.026 24.564 -0.025 22.157l-0.002 -0.488q-0.002 -0.795 -0.002 -1.591l-0.002 -1.112q-0.002 -1.164 -0.001 -2.327c0 -0.991 -0.002 -1.982 -0.005 -2.973q-0.003 -1.148 -0.002 -2.295 0 -0.548 -0.002 -1.096c-0.002 -0.512 -0.001 -1.025 0 -1.537 -0.001 -0.149 -0.002 -0.298 -0.003 -0.451 0.011 -2.28 0.626 -4.261 2.207 -5.954C3.923 0.685 5.944 0.119 8.295 0.121M15.072 5.652c-0.55 1.192 -1.01 2.402 -1.446 3.639 -0.671 1.863 -0.671 1.863 -1.248 2.171 -1.123 0.428 -2.294 0.485 -3.482 0.559l-0.598 0.043Q7.574 12.114 6.851 12.16l-0.171 0.685q0.653 0.616 1.306 1.231l0.37 0.35c0.538 0.506 1.074 1.004 1.647 1.47C10.526 16.337 10.745 16.649 10.961 17.298c-0.066 1.248 -0.469 2.366 -0.867 3.543q-0.192 0.568 -0.381 1.137l-0.171 0.504c-0.122 0.464 -0.147 0.848 -0.123 1.325 0.3 0.139 0.3 0.139 0.685 0.171 0.417 -0.215 0.417 -0.215 0.835 -0.557l0.497 -0.379Q11.713 22.825 11.989 22.608l0.311 -0.245 0.322 -0.254 0.323 -0.255a96.083 96.083 0 0 0 0.625 -0.499c1.236 -0.987 1.236 -0.987 1.999 -0.947 0.599 0.164 0.987 0.398 1.495 0.755l0.537 0.369q0.42 0.295 0.839 0.592a109.956 109.956 0 0 0 0.83 0.58l0.498 0.354c0.418 0.28 0.418 0.28 0.815 0.164L20.895 23.122c-0.093 -1.079 -0.292 -2.039 -0.61 -3.072 -0.658 -2.273 -0.658 -2.273 -0.417 -3.265 0.283 -0.451 0.472 -0.689 0.856 -1.028l0.302 -0.274c0.352 -0.313 0.71 -0.618 1.068 -0.925a164.249 164.249 0 0 0 0.921 -0.814l0.432 -0.383c0.388 -0.347 0.388 -0.347 0.703 -0.859l-0.171 -0.514 -0.387 -0.023c-0.585 -0.036 -1.169 -0.076 -1.754 -0.116l-0.609 -0.036c-2.618 -0.184 -2.618 -0.184 -3.321 -0.951 -0.63 -0.926 -0.968 -1.996 -1.326 -3.049q-0.173 -0.506 -0.35 -1.01l-0.152 -0.447C15.944 5.966 15.944 5.966 15.586 5.652z" fill="#136EFC"/><path d="m6.66 0.3 0.401 0.001 0.46 -0.001 0.506 0.004h0.532c0.582 0 1.164 0.003 1.746 0.005l1.208 0.001c1.062 0.001 2.123 0.005 3.184 0.009 1.083 0.003 2.165 0.005 3.248 0.007Q21.133 0.331 24.32 0.343l-0.171 0.343H7.193l-0.171 0.343 -1.028 -0.343c0.343 -0.343 0.343 -0.343 0.666 -0.385" fill="#0B52E4"/><path d="M27.917 29.116v0.343a88.204 88.204 0 0 1 -1.006 0.492l-0.566 0.277c-1.298 0.559 -2.671 0.652 -4.067 0.642l-0.486 0.001c-0.524 0.001 -1.049 -0.001 -1.573 -0.003h-1.101q-1.15 -0.001 -2.301 -0.004 -1.472 -0.004 -2.944 -0.003 -1.136 0 -2.271 -0.002 -0.543 -0.001 -1.086 -0.001 -0.758 -0.001 -1.517 -0.004l-0.449 0c-0.812 -0.004 -1.582 -0.061 -2.383 -0.196v-0.171l0.282 -0.002a8410.42 8410.42 0 0 0 6.806 -0.056q1.646 -0.014 3.292 -0.027 1.589 -0.012 3.178 -0.027 0.605 -0.005 1.211 -0.01a792.127 792.127 0 0 0 1.7 -0.015l0.503 -0.003c0.977 -0.01 1.926 -0.08 2.896 -0.203l0.171 -0.514h0.343v-0.343c0.464 -0.232 0.858 -0.182 1.37 -0.171" fill="#4578CD"/><path d="M16.099 20.381c0.534 0.315 1.04 0.663 1.541 1.028l-0.514 0.343v-0.343c-0.735 -0.216 -1.178 -0.108 -1.884 0.171l0.171 -0.685q-0.418 0.202 -0.835 0.407l-0.47 0.229c-0.424 0.204 -0.424 0.204 -0.751 0.563 -0.364 -0.064 -0.364 -0.064 -0.685 -0.171q0.406 -0.333 0.814 -0.664l0.458 -0.373c0.781 -0.589 1.188 -0.796 2.154 -0.504" fill="#3E82F0"/><path d="m22.501 11.465 0.531 0.002q0.644 0.003 1.289 0.008l0.171 1.541 -0.385 0.214c-0.454 0.289 -0.791 0.592 -1.156 0.985l-0.343 -0.171 0.3 -0.276 0.385 -0.367 0.385 -0.361c0.372 -0.376 0.372 -0.376 0.3 -1.052l-0.496 0.006C22.151 12.004 20.849 11.972 19.525 11.818v-0.171c0.991 -0.215 1.968 -0.19 2.976 -0.182" fill="#5A8FE6"/><path d="M17.641 21.58c0.575 0.272 1.102 0.598 1.638 0.942l0.493 0.316c0.945 0.611 0.945 0.611 1.123 0.969 -0.782 0.08 -1.218 0.041 -1.83 -0.439l-0.28 -0.247c-0.287 -0.212 -0.287 -0.212 -0.665 -0.111L17.812 23.122l0.011 -0.578c0.034 -0.592 0.034 -0.592 -0.182 -0.963" fill="#2676F7"/><path d="M16.785 7.707c0.375 0.563 0.513 1.063 0.685 1.713h0.171v0.856l0.856 0.171v0.856l1.028 0.171c-0.451 0.184 -0.642 0.188 -1.102 0.011C17.457 10.709 16.963 9.558 16.613 8.392c0.074 -0.383 0.074 -0.383 0.171 -0.685" fill="#6A9CE8"/><path d="M27.917 29.116v0.343c-2.713 1.352 -2.713 1.352 -3.939 1.37 -0.39 -0.166 -0.39 -0.166 -0.685 -0.343 0.921 -0.204 1.79 -0.393 2.74 -0.343l0.171 -0.514h0.343v-0.343c0.464 -0.232 0.858 -0.182 1.37 -0.171" fill="#538CE7"/><path d="M29.972 26.376h0.343c-0.222 1.084 -0.926 1.829 -1.713 2.569l-0.514 0.171 0.171 -1.199h0.685v-0.343c0.321 -0.364 0.321 -0.364 0.685 -0.685h0.343z" fill="#5F91E6"/><path d="m12.331 22.094 0.343 0.171c-0.678 1.289 -0.678 1.289 -1.424 1.627L10.79 23.978v0.514c-0.507 -0.105 -0.75 -0.215 -1.199 -0.514l0.599 -0.268c0.831 -0.411 1.472 -0.983 2.141 -1.616" fill="#538CED"/><path d="M4.335 1.081 4.624 1.199l-0.407 0.396C3.755 2.04 3.755 2.04 3.425 2.569v-0.343l-0.856 0.171v0.514l-0.685 -0.171c1.677 -1.764 1.677 -1.764 2.451 -1.659" fill="#4583EE"/><path d="m1.884 26.033 0.514 0.685 -0.171 0.343h0.343l0.171 0.856 -0.856 -0.171 -0.171 0.343c-0.268 -0.3 -0.268 -0.3 -0.514 -0.685 0.054 -0.385 0.054 -0.385 0.171 -0.685l0.343 0.171z" fill="#287DF5"/><path d="m7.108 11.798 0.563 0.003 0.607 0.002 0.639 0.004 0.641 0.002Q10.345 11.813 11.133 11.818v0.171l-0.388 0.023c-0.578 0.036 -1.155 0.076 -1.732 0.116l-0.61 0.036 -0.582 0.042 -0.538 0.035c-0.492 0.05 -0.492 0.05 -0.774 0.604a17.127 17.127 0 0 1 0 -0.856c0.171 -0.171 0.171 -0.171 0.599 -0.191" fill="#86AFEF"/><path d="m14.729 5.309 1.199 0.343 -0.171 0.343 -0.685 -0.171 -0.685 1.713 -0.343 -0.171c-0.107 -0.524 -0.107 -0.524 -0.171 -1.028l0.343 -0.171 0.171 -0.514h0.343z" fill="#407FED"/><path d="M20.21 19.696c0.738 0.492 0.748 1.036 0.943 1.873 0.104 0.642 0.07 1.098 -0.086 1.724l-0.343 -0.171c-0.059 -0.312 -0.059 -0.312 -0.086 -0.706 -0.062 -0.712 -0.226 -1.348 -0.428 -2.034z" fill="#6495E4"/><path d="m22.265 14.215 0.343 0.171 -0.514 0.514 0.343 0.343c-0.614 0.428 -1.185 0.763 -1.884 1.028l-0.514 0.343c0.268 -0.691 0.761 -1.108 1.306 -1.584l0.268 -0.238A122.63 122.63 0 0 1 22.265 14.215" fill="#6597F2"/><path d="m6.8 0.319 0.582 0.027 0.629 0.027 0.66 0.033 0.664 0.029Q10.148 0.473 10.961 0.514v0.171H7.193l-0.171 0.343 -1.028 -0.343c0.343 -0.343 0.343 -0.343 0.806 -0.366" fill="#0A5AFE"/><path d="M3.768 29.63c0.343 -0.007 0.685 -0.007 1.028 0l0.171 0.171c0.353 0.048 0.705 0.077 1.06 0.106L6.337 29.972l0.171 0.343c-1.046 0.331 -1.795 -0.079 -2.74 -0.514z" fill="#4F85EA"/><path d="M29.801 3.597c0.573 0.464 0.795 1.025 1.028 1.713 -0.053 0.589 -0.053 0.589 -0.171 1.028l-0.343 -0.171c-0.102 -0.318 -0.102 -0.318 -0.182 -0.717l-0.085 -0.419c-0.089 -0.477 -0.173 -0.954 -0.247 -1.433" fill="#5B8EE9"/><path d="m14.387 20.552 0.343 0.171 -0.856 0.856 -0.268 0.321L13.359 22.094l-0.685 -0.171z" fill="#5D91EA"/><path d="m10.619 16.613 0.343 0.171c0.313 1.108 0.001 2.01 -0.343 3.083h-0.171c-0.021 -1.327 -0.021 -1.327 0.171 -1.713 0.012 -0.264 0.015 -0.528 0.011 -0.792l-0.005 -0.424z" fill="#7CA7E8"/><path d="m10.105 19.696 0.343 0.171c-0.197 0.925 -0.415 1.834 -0.685 2.74h-0.171c-0.069 -1.056 0.177 -1.914 0.514 -2.912" fill="#5A8DE5"/><path d="M28.26 27.917h0.685c-0.043 0.407 -0.043 0.407 -0.171 0.856 -0.353 0.225 -0.353 0.225 -0.685 0.343z" fill="#3A81EB"/><path d="m17.983 10.276 0.514 0.171v0.856l1.028 0.171c-0.289 0.118 -0.289 0.118 -0.685 0.171 -0.509 -0.225 -0.791 -0.355 -1.006 -0.878L17.812 10.448z" fill="#4782EB"/><path d="M16.099 5.823c0.353 0.161 0.353 0.161 0.685 0.514 0.01 0.526 -0.072 1.026 -0.171 1.541 -0.425 -0.637 -0.528 -1.136 -0.685 -1.884z" fill="#518DEB"/><path d="M4.624 1.199c-0.193 0.332 -0.193 0.332 -0.514 0.685 -0.546 0.128 -0.546 0.128 -1.028 0.171 0.636 -1.128 0.636 -1.128 1.541 -0.856" fill="#3A76E7"/><path d="M18.326 22.094c0.704 0.248 1.273 0.601 1.884 1.028 -0.278 0.128 -0.278 0.128 -0.685 0.171 -0.978 -0.537 -0.978 -0.537 -1.199 -1.199" fill="#6898E9"/><path d="m6.166 12.674 0.343 0.343h0.514l0.171 0.343h-0.514v0.343h-0.514v-0.343h-0.343v-0.343h0.343z" fill="#2579F6"/><path d="M17.641 21.58c0.332 0.118 0.332 0.118 0.685 0.343 0.128 0.45 0.128 0.45 0.171 0.856l-0.685 0.343 0.011 -0.578c0.034 -0.592 0.034 -0.592 -0.182 -0.963" fill="#3B84F2"/><path d="M20.21 19.696c0.514 0.343 0.514 0.343 0.653 0.846C20.895 21.066 20.895 21.066 20.552 21.58c-0.204 -0.664 -0.343 -1.185 -0.343 -1.884" fill="#6E9BE8"/><path d="M7.193 13.359c0.985 0.621 0.985 0.621 1.37 1.199 -0.469 -0.063 -0.785 -0.117 -1.167 -0.407C7.193 13.873 7.193 13.873 7.193 13.359" fill="#6491E7"/><path d="M1.199 3.597c0.251 0.653 0.074 1.077 -0.171 1.713H0.514c0.097 -0.678 0.31 -1.142 0.685 -1.713" fill="#6A97EE"/><path d="m10.619 23.464 0.343 0.171 -0.171 0.856c-0.507 -0.105 -0.75 -0.215 -1.199 -0.514a17.298 17.298 0 0 1 1.028 -0.514" fill="#5992F7"/><path d="m6.508 11.304 0.343 0.171c-0.15 1.327 -0.15 1.327 -0.343 1.713 -0.343 -0.514 -0.343 -0.514 -0.289 -1.038C6.337 11.646 6.337 11.646 6.508 11.304" fill="#1464EE"/><path d="M13.873 7.707h0.343c-0.115 0.652 -0.296 1.259 -0.514 1.884h-0.171q0.036 -0.375 0.075 -0.749c0.014 -0.139 0.028 -0.278 0.042 -0.421C13.702 8.05 13.702 8.05 13.873 7.707" fill="#608CE7"/><path d="M6.958 0.321 7.536 0.343l-0.514 0.685 -1.028 -0.343c0.343 -0.343 0.343 -0.343 0.963 -0.364" fill="#1B5DE7"/><path d="M16.271 20.724c0.578 0.203 0.967 0.39 1.37 0.856l-0.514 0.171v-0.343l-1.028 -0.343z" fill="#6397E9"/><path d="m20.724 15.928 0.343 0.171c-0.128 0.332 -0.128 0.332 -0.343 0.685 -0.364 0.128 -0.364 0.128 -0.685 0.171 0.197 -0.423 0.351 -0.693 0.685 -1.028" fill="#1766E6"/></svg>