<svg version="1.1" xmlns="http://www.w3.org/2000/svg" width="31" height="31" viewBox="0 0 31 31"><path d="M0 0h31v31H0z" fill="#106CFE"/><path d="M14.901 5.652h1.028l0.162 0.445q0.301 0.82 0.605 1.639 0.131 0.354 0.26 0.709c0.124 0.341 0.251 0.681 0.377 1.02l0.228 0.62c0.302 0.644 0.599 1.078 1.268 1.357 1.087 0.214 2.159 0.272 3.265 0.3q0.53 0.015 1.06 0.033l0.468 0.012C23.978 11.818 23.978 11.818 24.149 11.989c0.096 0.45 0.096 0.45 0 1.028 -0.404 0.461 -0.891 0.819 -1.37 1.199a85.122 85.122 0 0 0 -0.888 0.792l-0.435 0.392A29.459 29.459 0 0 0 20.21 16.613l-0.171 0.171c-0.083 1.272 0.165 2.336 0.514 3.554q0.146 0.517 0.289 1.036c0.043 0.151 0.086 0.301 0.13 0.457 0.098 0.451 0.136 0.831 0.094 1.291l-0.343 0.343c-0.66 -0.056 -1.082 -0.278 -1.616 -0.657l-0.422 -0.296 -0.435 -0.311c-1.427 -1.156 -1.427 -1.156 -3.105 -1.631 -0.492 0.182 -0.844 0.416 -1.262 0.732l-0.493 0.369a61.657 61.657 0 0 0 -1.171 0.927l-0.321 0.258a53.265 53.265 0 0 0 -0.619 0.507c-0.549 0.444 -0.972 0.748 -1.689 0.787l-0.343 -0.171c0.098 -0.794 0.249 -1.528 0.488 -2.291l0.186 -0.606a649.459 649.459 0 0 1 0.389 -1.25l0.185 -0.606 0.171 -0.548c0.179 -0.759 0.233 -1.324 -0.112 -2.032 -0.719 -0.971 -1.738 -1.723 -2.649 -2.505l-0.466 -0.407 -0.429 -0.367C6.671 13.007 6.534 12.824 6.508 12.331c0.463 -0.463 0.74 -0.402 1.389 -0.433l0.638 -0.036q0.666 -0.034 1.333 -0.066l0.641 -0.037 0.586 -0.029c0.715 -0.109 1.339 -0.298 1.804 -0.879l0.137 -0.314c0.053 -0.121 0.107 -0.241 0.162 -0.365 0.308 -0.781 0.599 -1.566 0.879 -2.358q0.18 -0.505 0.361 -1.01l0.158 -0.447C14.729 5.994 14.729 5.994 14.901 5.652" fill="#F7F9FB"/><path d="M0 0h31v6.337a37.851 37.851 0 0 1 -0.59 -1.228C29.415 2.99 28.288 1.714 26.033 0.856c-1.123 -0.322 -2.193 -0.393 -3.356 -0.39l-0.529 -0.003a356.414 356.414 0 0 0 -1.718 -0.002l-1.202 -0.002q-1.258 -0.002 -2.515 0c-1.071 0.001 -2.143 -0.002 -3.214 -0.006 -0.827 -0.003 -1.654 -0.003 -2.481 -0.002q-0.592 0 -1.185 -0.003c-0.553 -0.002 -1.106 -0.001 -1.66 0.001l-0.488 -0.004C5.609 0.462 3.803 1.195 2.269 2.601 0.753 4.222 0.291 6.113 0.293 8.263l-0.003 0.516c-0.003 0.56 -0.004 1.12 -0.004 1.68l-0.003 1.176q-0.003 1.231 -0.003 2.463c0 1.047 -0.005 2.095 -0.01 3.142 -0.004 0.81 -0.004 1.62 -0.004 2.429q-0.001 0.579 -0.005 1.158c-0.019 3.044 0.141 5.416 2.277 7.773 1.643 1.588 3.689 1.909 5.878 1.915l0.522 0.003q0.853 0.005 1.705 0.007l0.591 0.002q1.548 0.005 3.095 0.008c1.062 0.002 2.124 0.008 3.186 0.015 0.82 0.005 1.64 0.006 2.46 0.007q0.587 0.001 1.174 0.006c2.988 0.023 5.434 -0.146 7.771 -2.245 1.036 -1.12 1.61 -2.52 1.911 -3.998h0.171v6.68H0z" fill="#F6F8FC"/><path d="M5.652 0.856c-0.453 0.25 -0.667 0.343 -1.199 0.343v0.343a15.586 15.586 0 0 1 -0.685 0.685l-0.343 -0.171c0.021 -0.31 0.021 -0.31 0.171 -0.685 0.7 -0.456 1.226 -0.573 2.055 -0.514" fill="#115FFC"/><path d="M30.829 24.32h0.171v1.541l-0.514 0.171z" fill="#E5EFFC"/><path d="m20.724 15.757 0.514 0.171 -0.685 0.856 -0.343 -0.514z" fill="#2573FD"/></svg>